<?xml version="1.0" encoding="utf-8"?>
<!-- Generator: Adobe Illustrator 21.0.2, SVG Export Plug-In . SVG Version: 6.00 Build 0)  -->
<svg version="1.1" id="Layer_1" xmlns="http://www.w3.org/2000/svg" xmlns:xlink="http://www.w3.org/1999/xlink" x="0px" y="0px"
	 viewBox="0 0 792 612" style="enable-background:new 0 0 792 612;" xml:space="preserve">
<style type="text/css">
	.st0{fill:#4767AB;}
	.st1{fill:none;}
</style>
<g>
	<path class="st0" d="M238.1,246.9c-4.6,0-5.9,2-5.9,6.5v7.4h12.2l-1.2,12h-11v36.5h-14.7v-36.5h-9.9v-12h9.9v-7.2
		c0-12.1,4.9-18.5,18.5-18.5c3,0,6.4,0.2,8.6,0.5v11.3H238.1z"/>
	<path class="st0" d="M245.4,283.6c0-13.5,6.4-23.7,19.9-23.7c7.3,0,11.8,3.8,14,8.5v-7.4h14.1v48.5h-14.1V302
		c-2,4.7-6.6,8.4-14,8.4c-13.4,0-19.9-10.2-19.9-23.7V283.6z M260.1,286.8c0,7.2,2.6,12,9.5,12c6,0,9.1-4.4,9.1-11.3v-4.9
		c0-6.9-3.1-11.3-9.1-11.3c-6.8,0-9.5,4.8-9.5,12V286.8z"/>
	<path class="st0" d="M323.9,259.8c5.7,0,11.1,1.2,14.1,3.3l-3.3,10.4c-2.2-1.1-5.9-2.2-9.8-2.2c-7.9,0-11.4,4.6-11.4,12.4v2.9
		c0,7.8,3.5,12.4,11.4,12.4c3.9,0,7.5-1.1,9.8-2.2l3.3,10.4c-3,2-8.4,3.3-14.1,3.3c-17.2,0-25.1-9.3-25.1-24.1V284
		C298.8,269.1,306.6,259.8,323.9,259.8z"/>
	<path class="st0" d="M339.8,286.9v-4.3c0-13.8,7.8-22.8,23.8-22.8c15.1,0,21.7,9.2,21.7,22.6v7.7h-30.9c0.3,6.6,3.3,9.6,11.4,9.6
		c5.5,0,11.3-1.1,15.6-3l2.6,10.1c-3.9,2-11.8,3.6-18.8,3.6C346.8,310.5,339.8,301.2,339.8,286.9z M354.5,280.6h17.7v-1.2
		c0-5.3-2.1-9.5-8.6-9.5C357.1,269.9,354.5,274.1,354.5,280.6z"/>
	<path class="st0" d="M439.8,286.6c0,13.5-6.5,23.7-20,23.7c-7.3,0-12.4-3.7-14.5-8.4v7.3h-13.9v-72.8l14.7-1.3v32.4
		c2.1-4.3,6.8-7.7,13.7-7.7c13.4,0,20,10.2,20,23.7V286.6z M425.1,283.3c0-6.8-2.6-11.9-9.7-11.9c-6,0-9.3,4.3-9.3,11.2v5.1
		c0,6.9,3.3,11.2,9.3,11.2c7,0,9.7-5.1,9.7-11.9V283.3z"/>
	<path class="st0" d="M444.7,286.3v-2.4c0-14,7.9-24,24.1-24c16.2,0,24.1,10.1,24.1,24v2.4c0,14-7.9,24-24.1,24
		C452.6,310.4,444.7,300.3,444.7,286.3z M478.3,282.8c0-6.4-2.6-11.5-9.5-11.5c-6.8,0-9.5,5.1-9.5,11.5v4.5c0,6.4,2.6,11.5,9.5,11.5
		c6.8,0,9.5-5.1,9.5-11.5V282.8z"/>
	<path class="st0" d="M497.8,286.3v-2.4c0-14,7.9-24,24.1-24c16.2,0,24.1,10.1,24.1,24v2.4c0,14-7.9,24-24.1,24
		C505.8,310.4,497.8,300.3,497.8,286.3z M531.5,282.8c0-6.4-2.6-11.5-9.5-11.5c-6.8,0-9.5,5.1-9.5,11.5v4.5c0,6.4,2.6,11.5,9.5,11.5
		c6.8,0,9.5-5.1,9.5-11.5V282.8z"/>
	<path class="st0" d="M566.3,284l14.5-23.1h15.6l-15.2,23.9l15.8,24.6h-15.6l-15.1-23.7v23.7h-14.7v-72.8l14.7-1.3V284z"/>
</g>
<rect x="159.1" y="186.7" class="st1" width="486.3" height="171.1"/>
</svg>
