<svg id="Layer_1" data-name="Layer 1" xmlns="http://www.w3.org/2000/svg" viewBox="0 0 553.54 552.93"><defs><style>.cls-1,.cls-4{fill:#fff;}.cls-1{opacity:0.36;}.cls-2{fill:#074267;}.cls-3{opacity:0.37;}</style></defs><title>Untitled-2</title><ellipse class="cls-1" cx="276.77" cy="276.47" rx="276.77" ry="276.47"/><ellipse class="cls-2" cx="276.77" cy="276.47" rx="244.66" ry="244.39"/><path class="cls-3" d="M521.28,278.44l-0.59-.81-75.45-75.37-76.59-7.41-38.4,24.45-35.92-35.89-57.89,45.35L191,183.42l-45.56,26.4L119,183.42,87.48,339.76,269,521.07l0.53,0.15c2.38,0.07,4.75.18,7.15,0.18C411.3,521.39,520.5,412.75,521.28,278.44Z"/><path class="cls-4" d="M88.31,372v-26.4h4.36V372H88.31Z"/><path class="cls-4" d="M111.1,372H107V362.2a19.9,19.9,0,0,0-.25-3.91,2.67,2.67,0,0,0-.86-1.5,2.3,2.3,0,0,0-1.47-.52,3,3,0,0,0-1.88.68,3.52,3.52,0,0,0-1.2,1.87,19.63,19.63,0,0,0-.34,4.48V372H96.81V352.86h3.85v2.8a7.46,7.46,0,0,1,2.32-2.43,5.22,5.22,0,0,1,2.86-.81,4.92,4.92,0,0,1,3.06.95,4.7,4.7,0,0,1,1.73,2.43,14.42,14.42,0,0,1,.48,4.29V372Z"/><path class="cls-4" d="M122.49,352.86v4h-2.83v7.72a17.16,17.16,0,0,0,.14,2.9,1,1,0,0,0,1,.73,4.37,4.37,0,0,0,1.66-.49l0.36,3.93a6.91,6.91,0,0,1-3.26.74,3.84,3.84,0,0,1-2.53-.76,3.59,3.59,0,0,1-1.28-2.16,22.37,22.37,0,0,1-.24-4.26v-8.34h-1.93v-4h1.93v-3.79l4.14-2.95v6.74h2.83Z"/><path class="cls-4" d="M134.5,365.9l4.12,0.85A8,8,0,0,1,136,371a6.66,6.66,0,0,1-4.26,1.39,6.52,6.52,0,0,1-5.37-2.32,11.65,11.65,0,0,1-2.25-7.58,12.25,12.25,0,0,1,2.25-7.67,6,6,0,0,1,5-2.44,6.27,6.27,0,0,1,5.28,2.49c1.47,1.9,2.19,4.69,2.19,8.39v0.59h-10.4a5.82,5.82,0,0,0,1,3.52,2.9,2.9,0,0,0,2.36,1.24C133.16,368.64,134.06,367.73,134.5,365.9Zm0.22-5.14a5.64,5.64,0,0,0-1-3.35,2.67,2.67,0,0,0-2.15-1.13,2.71,2.71,0,0,0-2.22,1.17,5.31,5.31,0,0,0-.9,3.31h6.22Z"/><path class="cls-4" d="M142.22,372v-26.4h4.15V372h-4.15Z"/><path class="cls-4" d="M150.62,372v-26.4h4.17V372h-4.17Z"/><path class="cls-4" d="M159,350.26v-4.68h4.16v4.68H159ZM159,372V352.86h4.16V372H159Z"/><path class="cls-4" d="M167.06,373.23l4.76,0.7a2,2,0,0,0,.65,1.5,2.83,2.83,0,0,0,1.74.44,4.74,4.74,0,0,0,2.21-.45,2.23,2.23,0,0,0,.92-1.08,7.67,7.67,0,0,0,.31-2.66v-2.8a6.85,6.85,0,0,1-2.1,2.32A4.62,4.62,0,0,1,173,372a5.34,5.34,0,0,1-4.38-2.37,11.76,11.76,0,0,1-2.06-7.33q0-4.87,1.94-7.39a5.77,5.77,0,0,1,4.68-2.49,4.75,4.75,0,0,1,2.66.79,7,7,0,0,1,2.13,2.35v-2.69h3.9V370a17.36,17.36,0,0,1-.75,6,5.6,5.6,0,0,1-2.34,2.79,8.38,8.38,0,0,1-4.37,1,10.67,10.67,0,0,1-4.13-.68,5.15,5.15,0,0,1-2.36-2,6,6,0,0,1-.81-3.14v-0.63Zm3.7-11.21a7.82,7.82,0,0,0,1,4.46,2.83,2.83,0,0,0,2.36,1.41,3.12,3.12,0,0,0,2.55-1.43,7.26,7.26,0,0,0,1.07-4.33,7.7,7.7,0,0,0-1-4.42,3,3,0,0,0-2.52-1.44,2.89,2.89,0,0,0-2.46,1.42A7.45,7.45,0,0,0,170.77,362Z"/><path class="cls-4" d="M195,365.9l4.12,0.85a8.16,8.16,0,0,1-2.58,4.28,6.65,6.65,0,0,1-4.26,1.39A6.55,6.55,0,0,1,187,370.1c-1.5-1.81-2.23-4.34-2.23-7.58a12.14,12.14,0,0,1,2.23-7.67,6,6,0,0,1,4.95-2.44,6.26,6.26,0,0,1,5.28,2.49q2.2,2.84,2.2,8.39l0,0.59H189a5.75,5.75,0,0,0,1,3.52,2.93,2.93,0,0,0,2.39,1.24Q194.37,368.64,195,365.9Zm0.21-5.14a5.57,5.57,0,0,0-.95-3.35,2.64,2.64,0,0,0-4.36,0,5.33,5.33,0,0,0-.9,3.31h6.22Z"/><path class="cls-4" d="M217,372h-4.16V362.2a20.07,20.07,0,0,0-.24-3.91,2.8,2.8,0,0,0-.87-1.5,2.28,2.28,0,0,0-1.44-.52,3,3,0,0,0-1.9.68,3.59,3.59,0,0,0-1.18,1.87,18.12,18.12,0,0,0-.36,4.48V372h-4.15V352.86h3.86v2.8a7.32,7.32,0,0,1,2.33-2.43,5.12,5.12,0,0,1,2.84-.81,5,5,0,0,1,3.07.95,4.82,4.82,0,0,1,1.72,2.43,14.07,14.07,0,0,1,.49,4.29V372Z"/><path class="cls-4" d="M228.41,352.86v4h-2.82v7.72a18.88,18.88,0,0,0,.11,2.9,1,1,0,0,0,1,.73,4.49,4.49,0,0,0,1.66-.49l0.35,3.93a6.92,6.92,0,0,1-3.27.74,3.84,3.84,0,0,1-2.53-.76,3.71,3.71,0,0,1-1.29-2.16,23,23,0,0,1-.25-4.26v-8.34h-1.9v-4h1.9v-3.79l4.18-2.95v6.74h2.82Z"/><path class="cls-4" d="M239.69,372v-26.4h6.54l3.93,18,3.92-18h6.56V372h-4.07V351.19L252.24,372H248l-4.29-20.79V372h-4.06Z"/><path class="cls-4" d="M274,365.9l4.11,0.85a8.12,8.12,0,0,1-2.57,4.28,6.66,6.66,0,0,1-4.27,1.39A6.51,6.51,0,0,1,266,370.1c-1.5-1.81-2.25-4.34-2.25-7.58a12.09,12.09,0,0,1,2.25-7.67,6,6,0,0,1,4.94-2.44,6.28,6.28,0,0,1,5.28,2.49q2.21,2.84,2.2,8.39l0,0.59H268a5.57,5.57,0,0,0,1,3.52,2.92,2.92,0,0,0,2.38,1.24C272.69,368.64,273.59,367.73,274,365.9Zm0.21-5.14a5.48,5.48,0,0,0-1-3.35,2.64,2.64,0,0,0-2.13-1.13,2.74,2.74,0,0,0-2.23,1.17,5.28,5.28,0,0,0-.89,3.31h6.22Z"/><path class="cls-4" d="M296.13,372h-3.88v-2.82a6.83,6.83,0,0,1-2.24,2.43,4.94,4.94,0,0,1-2.67.82,5.66,5.66,0,0,1-4.59-2.61q-1.95-2.64-1.95-7.5t1.9-7.4a5.73,5.73,0,0,1,4.7-2.5,4.84,4.84,0,0,1,2.45.66,7,7,0,0,1,2.1,2v-9.49h4.17V372ZM285,362a12.77,12.77,0,0,0,.44,3.88,4.24,4.24,0,0,0,1.26,1.91,2.75,2.75,0,0,0,4.22-.84,8,8,0,0,0,1-4.45,8.78,8.78,0,0,0-1-4.76,2.83,2.83,0,0,0-4.92,0A7.48,7.48,0,0,0,285,362Z"/><path class="cls-4" d="M300.22,350.26v-4.68h4.16v4.68h-4.16Zm0,21.72V352.86h4.16V372h-4.16Z"/><path class="cls-4" d="M322.33,358.49l-4.1.9c-0.3-2-1.24-3-2.84-3a2.9,2.9,0,0,0-2.48,1.31,7.7,7.7,0,0,0-.94,4.38q0,3.41.94,4.82a2.87,2.87,0,0,0,2.51,1.41,2.57,2.57,0,0,0,2-.81,5.43,5.43,0,0,0,1.06-2.84l4.09,0.85c-0.82,4.6-3.26,6.91-7.26,6.91a6.27,6.27,0,0,1-5.68-2.91,13,13,0,0,1-1.86-7c0-3.28.71-5.77,2.11-7.49a7.39,7.39,0,0,1,10-1.11A8.49,8.49,0,0,1,322.33,358.49Z"/><path class="cls-4" d="M328.56,358.67l-3.78-.83a7.34,7.34,0,0,1,2.26-4.17,7.15,7.15,0,0,1,4.55-1.27,8.68,8.68,0,0,1,4,.74,4.29,4.29,0,0,1,2,2,12,12,0,0,1,.6,4.62l0,5.9a25.19,25.19,0,0,0,.19,3.7,12.25,12.25,0,0,0,.76,2.6H335l-0.54-2.1a8.28,8.28,0,0,1-2.28,1.9,5.64,5.64,0,0,1-2.58.63,5,5,0,0,1-3.77-1.54,5.72,5.72,0,0,1-1.46-4.1A6.31,6.31,0,0,1,325,364a4.87,4.87,0,0,1,1.68-1.93,10.88,10.88,0,0,1,3.45-1.29,19,19,0,0,0,4-1.23,6.62,6.62,0,0,0-.22-2.09,2,2,0,0,0-.84-0.82,3.84,3.84,0,0,0-1.7-.31,2.79,2.79,0,0,0-1.76.5A3.62,3.62,0,0,0,328.56,358.67Zm5.55,4.12a20.37,20.37,0,0,1-2.46.76,5.68,5.68,0,0,0-2.53,1.12,2.18,2.18,0,0,0-.58,1.59,2.75,2.75,0,0,0,.64,1.85,2.11,2.11,0,0,0,1.66.74,3,3,0,0,0,1.74-.6,3.37,3.37,0,0,0,1.2-1.43,9.35,9.35,0,0,0,.33-3v-1Z"/><path class="cls-4" d="M342.28,372v-26.4h4.16V372h-4.16Z"/><path class="cls-4" d="M358.25,358.95a18.77,18.77,0,0,1,1.39-7.77,10.57,10.57,0,0,1,3.66-4.54,9.63,9.63,0,0,1,5.45-1.49,9.37,9.37,0,0,1,7.58,3.54c1.95,2.36,2.94,5.73,2.94,10.1s-1,7.85-3.11,10.33a10,10,0,0,1-14.82,0C359.29,366.67,358.25,363.27,358.25,358.95Zm4.51-.18c0,3,.57,5.31,1.72,6.83a5.2,5.2,0,0,0,8.58,0q1.69-2.25,1.69-6.93t-1.64-6.79a5.34,5.34,0,0,0-8.65,0C363.31,353.39,362.76,355.67,362.76,358.76Z"/><path class="cls-4" d="M382.45,372v-26.4h4.17v9.49a7.06,7.06,0,0,1,2.09-2,4.86,4.86,0,0,1,2.44-.66,5.74,5.74,0,0,1,4.7,2.51c1.29,1.67,1.91,4.13,1.91,7.39s-0.66,5.74-2,7.5a5.66,5.66,0,0,1-4.59,2.61,4.93,4.93,0,0,1-2.67-.83,7.11,7.11,0,0,1-2.23-2.42V372h-3.85Zm4.14-10a12.44,12.44,0,0,0,.45,3.79,4.44,4.44,0,0,0,1.35,2,2.94,2.94,0,0,0,1.81.68,2.79,2.79,0,0,0,2.34-1.44,8.29,8.29,0,0,0,1-4.54,8.8,8.8,0,0,0-1-4.73,2.85,2.85,0,0,0-4.94,0A7.37,7.37,0,0,0,386.58,362Z"/><path class="cls-4" d="M405.2,352.86v18.52a21.61,21.61,0,0,1-.42,5.34,4.07,4.07,0,0,1-1.54,2.23,4.77,4.77,0,0,1-2.76.78,9.51,9.51,0,0,1-2.88-.55l0.72-4.32a3.63,3.63,0,0,0,1,.17,1.49,1.49,0,0,0,1.49-.87,10.91,10.91,0,0,0,.23-3.08V352.86h4.14Zm-4.14-2.59v-4.68h4.14v4.68h-4.14Z"/><path class="cls-4" d="M418.65,365.9l4.14,0.85a8.11,8.11,0,0,1-2.58,4.28,6.69,6.69,0,0,1-4.25,1.39,6.52,6.52,0,0,1-5.37-2.32c-1.49-1.81-2.25-4.34-2.25-7.58a12.21,12.21,0,0,1,2.26-7.67,6,6,0,0,1,4.94-2.44,6.32,6.32,0,0,1,5.29,2.49c1.44,1.9,2.18,4.69,2.18,8.39v0.59H412.61a5.5,5.5,0,0,0,1,3.52,2.9,2.9,0,0,0,2.37,1.24Q418,368.64,418.65,365.9Zm0.22-5.14a5.58,5.58,0,0,0-.94-3.35,2.65,2.65,0,0,0-4.37,0,5.27,5.27,0,0,0-.89,3.31h6.2Z"/><path class="cls-4" d="M440.06,358.49l-4.08.9c-0.31-2-1.25-3-2.86-3a2.93,2.93,0,0,0-2.47,1.31,7.65,7.65,0,0,0-.94,4.38c0,2.28.31,3.89,0.93,4.82a2.9,2.9,0,0,0,2.5,1.41,2.58,2.58,0,0,0,2-.81,5.38,5.38,0,0,0,1.07-2.84l4.1,0.85c-0.84,4.6-3.26,6.91-7.25,6.91a6.3,6.3,0,0,1-5.71-2.91,12.94,12.94,0,0,1-1.85-7c0-3.28.71-5.77,2.12-7.49a7.4,7.4,0,0,1,10-1.11A8.4,8.4,0,0,1,440.06,358.49Z"/><path class="cls-4" d="M450.36,352.86v4h-2.83v7.72a18.4,18.4,0,0,0,.12,2.9,1,1,0,0,0,1,.73,4.48,4.48,0,0,0,1.67-.49l0.36,3.93a7,7,0,0,1-3.27.74,3.88,3.88,0,0,1-2.54-.76,3.63,3.63,0,0,1-1.26-2.16,21.36,21.36,0,0,1-.26-4.26v-8.34h-1.92v-4h1.92v-3.79l4.15-2.95v6.74h2.83Z"/><path class="cls-4" d="M451.81,366.54l4.16-.78c0.35,2,1.47,3,3.34,3a3.64,3.64,0,0,0,2.24-.57,1.83,1.83,0,0,0,.74-1.49,1.49,1.49,0,0,0-.31-1,3.12,3.12,0,0,0-1.35-.64c-3.4-.9-5.59-1.76-6.5-2.57a5.31,5.31,0,0,1-1.74-4.21,5.61,5.61,0,0,1,1.7-4.27,6.87,6.87,0,0,1,4.91-1.61,7.65,7.65,0,0,1,4.68,1.21,6.43,6.43,0,0,1,2.25,3.85l-3.89.9a2.75,2.75,0,0,0-3-2.32,4.08,4.08,0,0,0-2.18.44,1.39,1.39,0,0,0-.64,1.16,1.25,1.25,0,0,0,.6,1.05,16.92,16.92,0,0,0,3.69,1.3,10,10,0,0,1,4.71,2.37,5.29,5.29,0,0,1,1.24,3.68,6.07,6.07,0,0,1-1.89,4.58,7.38,7.38,0,0,1-5.26,1.8,7.82,7.82,0,0,1-5-1.49A7.07,7.07,0,0,1,451.81,366.54Z"/><path class="cls-4" d="M87.59,339.22V182.88h31.57V339.22H87.59Zm56.14,0V182.88h47.42l28,106.64,27.74-106.64h47.5V339.22h-29.2l-0.1-123.07L234.26,339.22h-30.5L173,216.15l-0.1,123.07h-29.2ZM314.33,262q0-23.87,7.15-40.06a73.37,73.37,0,0,1,14.58-21.42,60.76,60.76,0,0,1,20.21-14q14.64-6.19,33.74-6.19,34.58,0,55.34,21.41t20.77,59.54q0,37.82-20.6,59.17T390.43,341.8q-34.89,0-55.5-21.26T314.33,262ZM347,260.94q0,26.5,12.27,40.17t31.15,13.67q18.87,0,31-13.57t12.1-40.69q0-26.81-11.79-40t-31.31-13.2q-19.52,0-31.48,13.35T347,260.94Z"/><path class="cls-4" d="M457.07,182.88a9.13,9.13,0,0,1,4.46,1.17,8.36,8.36,0,0,1,3.35,3.34,9.06,9.06,0,0,1,0,9.05,8.55,8.55,0,0,1-3.35,3.33,9.06,9.06,0,0,1-4.49,1.21,9.19,9.19,0,0,1-4.53-1.21,8.54,8.54,0,0,1-3.34-3.33,9.24,9.24,0,0,1-1.2-4.51,9.06,9.06,0,0,1,1.23-4.54,8.22,8.22,0,0,1,3.36-3.34A9.21,9.21,0,0,1,457.07,182.88Zm0,1.77a7.39,7.39,0,0,0-3.58.93,6.77,6.77,0,0,0-2.7,2.68,7.33,7.33,0,0,0,0,7.29,7,7,0,0,0,2.7,2.69,7.25,7.25,0,0,0,7.24,0,6.87,6.87,0,0,0,2.69-2.69,7.24,7.24,0,0,0,0-7.29,6.7,6.7,0,0,0-2.7-2.68A7.49,7.49,0,0,0,457.07,184.66ZM453,196.77v-9.6h1.94c1.84,0,2.85,0,3.08,0a3.89,3.89,0,0,1,1.51.37,2.49,2.49,0,0,1,.89.94,2.61,2.61,0,0,1,.37,1.36,2.48,2.48,0,0,1-.69,1.77,3,3,0,0,1-1.9.92,2.29,2.29,0,0,1,.67.36,5.74,5.74,0,0,1,.66.74c0.07,0.1.31,0.49,0.71,1.17l1.12,1.94h-2.41l-0.8-1.56a6.85,6.85,0,0,0-1.34-2,2.17,2.17,0,0,0-1.35-.41h-0.51v3.95H453Zm1.94-5.46h0.79a9.43,9.43,0,0,0,2.09-.13,1.27,1.27,0,0,0,.66-0.45,1.2,1.2,0,0,0,.22-0.73,1.14,1.14,0,0,0-.22-0.72,1.28,1.28,0,0,0-.66-0.45,9.45,9.45,0,0,0-2.09-.14h-0.79v2.61Z"/></svg>