<svg xmlns="http://www.w3.org/2000/svg" xmlns:xlink="http://www.w3.org/1999/xlink" viewBox="0 0 149.47 190.91"><defs><style>      @import url('https://fonts.googleapis.com/css?family=Roboto');
.cls-1,.cls-10{fill:#fff;}.cls-2,.cls-3,.cls-8{fill:#333;}.cls-3{clip-rule:evenodd;}.cls-4{clip-path:url(#clip-path);}.cls-5{clip-path:url(#clip-path-2);}.cls-6{fill:none;}.cls-7{clip-path:url(#clip-path-3);}.cls-8{fill-rule:evenodd;}.cls-9{clip-path:url(#clip-path-4);}.cls-10{font-size:25.39px;font-family:RobotoMonoForPowerline-Regular, Roboto Mono for Powerline, Roboto;}</style><clipPath id="clip-path"><rect class="cls-1" x="31.43" y="31.43" width="86.61" height="86.61" transform="translate(-30.96 74.74) rotate(-45)"/></clipPath><clipPath id="clip-path-2"><circle class="cls-2" cx="74.75" cy="74.77" r="33.63"/></clipPath><clipPath id="clip-path-3"><circle class="cls-1" cx="74.75" cy="74.77" r="30.13" transform="translate(-16.81 21.9) rotate(-15)"/></clipPath><clipPath id="clip-path-4"><path class="cls-3" d="M78.59,66.26l4,0v2.21C83.82,66.71,85,66,86.72,66a5.26,5.26,0,0,1,2.63.64A4.71,4.71,0,0,1,91,68.55a6.92,6.92,0,0,1,2.06-1.93A4.63,4.63,0,0,1,95.44,66a5.72,5.72,0,0,1,3,.73A4.27,4.27,0,0,1,100,68.83a10.2,10.2,0,0,1,.4,3.35V82.5H96.35V73.27a5.23,5.23,0,0,0-.66-2.84,1.76,1.76,0,0,0-1.63-.91,2.43,2.43,0,0,0-1.51.55,2.07,2.07,0,0,0-.76,1.35,12.73,12.73,0,0,0-.31,3.33V82.5h-4V73.65A7.72,7.72,0,0,0,87,70.91a1.93,1.93,0,0,0-.64-1,1.82,1.82,0,0,0-1.16-.33,2.59,2.59,0,0,0-1.59.53c-.47.35-.39.4-.59,1.07a15.1,15.1,0,0,0-.16,3.36v7.85l-4.27,0V66.26m-1.78,5.81H72.67a3.53,3.53,0,0,0-.92-2A2.41,2.41,0,0,0,70,69.54a2.54,2.54,0,0,0-2.22,1A5.37,5.37,0,0,0,66.88,74a7.17,7.17,0,0,0,.86,4.06,2.75,2.75,0,0,0,2.33,1.19,2.44,2.44,0,0,0,1.78-.68,3,3,0,0,0,.81-2h4a8.83,8.83,0,0,1-2.31,4.72,7.51,7.51,0,0,1-9.81-.5,10.3,10.3,0,0,1-1.88-6.52,9.37,9.37,0,0,1,2.13-6.22A6.36,6.36,0,0,1,70,65.85a7.55,7.55,0,0,1,4.57,1.34,7.13,7.13,0,0,1,2.29,4.87m-20,2.66a7.83,7.83,0,0,1-2.11.63,7.48,7.48,0,0,0-2.5.79,1.84,1.84,0,0,0-.75,1.51c0,.6-.15,1,.25,1.42a2,2,0,0,0,1.53.65,3.1,3.1,0,0,0,2-.76c.46-.39,1.29-.64,1.44-1.2a9.4,9.4,0,0,0,.15-2.08l0-1m-5.06-3.21H47.84c.13-1.61.87-3.79,1.82-4.54a6.79,6.79,0,0,1,4.25-1.13,12.62,12.62,0,0,1,4.65.68,3.89,3.89,0,0,1,1.76,1.72,9.56,9.56,0,0,1,.52,3.82l0,5A19.68,19.68,0,0,0,61,80.21a2.33,2.33,0,0,0,.68,1.47c.11.09,0,.43.06.71-.3,0-2.92,0-4.36,0Q57.2,82,57,81.17q-.1-.38-.14-.5a10,10,0,0,1-2.58,1.88,5,5,0,0,1-2.3.29,4.53,4.53,0,0,1-3.44-1.46A4.78,4.78,0,0,1,47.25,78a5,5,0,0,1,.59-2.43,4,4,0,0,1,1.63-1.64,11.75,11.75,0,0,1,3.05-1,19.13,19.13,0,0,0,3.72-1V71.4a2.34,2.34,0,0,0-.54-1.75c-.36-.35-.61-.34-1.62-.34a2.32,2.32,0,0,0-1.53.54,3.41,3.41,0,0,0-.82,1.65"/></clipPath></defs><title>acm_logo_50</title><g id="Layer_2" data-name="Layer 2"><g id="Layer_1-2" data-name="Layer 1"><rect class="cls-1" x="31.43" y="31.43" width="86.61" height="86.61" transform="translate(-30.96 74.74) rotate(-45)"/><g class="cls-4"><rect class="cls-1" x="21.89" y="21.89" width="105.69" height="105.69" transform="translate(-30.96 74.74) rotate(-45)"/></g><circle class="cls-2" cx="74.75" cy="74.77" r="33.63"/><g class="cls-5"><rect class="cls-6" x="31.58" y="31.6" width="86.34" height="86.34"/></g><circle class="cls-1" cx="74.75" cy="74.77" r="30.13" transform="translate(-16.81 21.9) rotate(-15)"/><g class="cls-7"><rect class="cls-1" x="35.09" y="35.11" width="79.34" height="79.34" transform="translate(-16.81 21.9) rotate(-15)"/></g><path class="cls-8" d="M78.59,66.26l4,0v2.21C83.82,66.71,85,66,86.72,66a5.26,5.26,0,0,1,2.63.64A4.71,4.71,0,0,1,91,68.55a6.92,6.92,0,0,1,2.06-1.93A4.63,4.63,0,0,1,95.44,66a5.72,5.72,0,0,1,3,.73A4.27,4.27,0,0,1,100,68.83a10.2,10.2,0,0,1,.4,3.35V82.5H96.35V73.27a5.23,5.23,0,0,0-.66-2.84,1.76,1.76,0,0,0-1.63-.91,2.43,2.43,0,0,0-1.51.55,2.07,2.07,0,0,0-.76,1.35,12.73,12.73,0,0,0-.31,3.33V82.5h-4V73.65A7.72,7.72,0,0,0,87,70.91a1.93,1.93,0,0,0-.64-1,1.82,1.82,0,0,0-1.16-.33,2.59,2.59,0,0,0-1.59.53c-.47.35-.39.4-.59,1.07a15.1,15.1,0,0,0-.16,3.36v7.85l-4.27,0V66.26m-1.78,5.81H72.67a3.53,3.53,0,0,0-.92-2A2.41,2.41,0,0,0,70,69.54a2.54,2.54,0,0,0-2.22,1A5.37,5.37,0,0,0,66.88,74a7.17,7.17,0,0,0,.86,4.06,2.75,2.75,0,0,0,2.33,1.19,2.44,2.44,0,0,0,1.78-.68,3,3,0,0,0,.81-2h4a8.83,8.83,0,0,1-2.31,4.72,7.51,7.51,0,0,1-9.81-.5,10.3,10.3,0,0,1-1.88-6.52,9.37,9.37,0,0,1,2.13-6.22A6.36,6.36,0,0,1,70,65.85a7.55,7.55,0,0,1,4.57,1.34,7.13,7.13,0,0,1,2.29,4.87m-20,2.66a7.83,7.83,0,0,1-2.11.63,7.48,7.48,0,0,0-2.5.79,1.84,1.84,0,0,0-.75,1.51c0,.6-.15,1,.25,1.42a2,2,0,0,0,1.53.65,3.1,3.1,0,0,0,2-.76c.46-.39,1.29-.64,1.44-1.2a9.4,9.4,0,0,0,.15-2.08l0-1m-5.06-3.21H47.84c.13-1.61.87-3.79,1.82-4.54a6.79,6.79,0,0,1,4.25-1.13,12.62,12.62,0,0,1,4.65.68,3.89,3.89,0,0,1,1.76,1.72,9.56,9.56,0,0,1,.52,3.82l0,5A19.68,19.68,0,0,0,61,80.21a2.33,2.33,0,0,0,.68,1.47c.11.09,0,.43.06.71-.3,0-2.92,0-4.36,0Q57.2,82,57,81.17q-.1-.38-.14-.5a10,10,0,0,1-2.58,1.88,5,5,0,0,1-2.3.29,4.53,4.53,0,0,1-3.44-1.46A4.78,4.78,0,0,1,47.25,78a5,5,0,0,1,.59-2.43,4,4,0,0,1,1.63-1.64,11.75,11.75,0,0,1,3.05-1,19.13,19.13,0,0,0,3.72-1V71.4a2.34,2.34,0,0,0-.54-1.75c-.36-.35-.61-.34-1.62-.34a2.32,2.32,0,0,0-1.53.54,3.41,3.41,0,0,0-.82,1.65"/><g class="cls-9"><rect class="cls-2" x="37.7" y="56.31" width="72.28" height="36.14"/></g><path class="cls-1" d="M37.17,178.71l.72-6,6.22.11,0,1.5-4.92-.09-.4,3.22a4.28,4.28,0,0,1,.86-.35,3.83,3.83,0,0,1,1.16-.14,3.73,3.73,0,0,1,1.5.32,3.19,3.19,0,0,1,1.12.84,3.65,3.65,0,0,1,.69,1.29,5.24,5.24,0,0,1,.22,1.67,5.33,5.33,0,0,1-.26,1.6,3.5,3.5,0,0,1-.73,1.27,3.22,3.22,0,0,1-1.2.82,4.28,4.28,0,0,1-1.69.27,4.62,4.62,0,0,1-1.39-.23,3.52,3.52,0,0,1-1.16-.65,3.28,3.28,0,0,1-.82-1.06,4,4,0,0,1-.39-1.48l1.47,0a2.4,2.4,0,0,0,.73,1.58,2.36,2.36,0,0,0,1.58.56,2.31,2.31,0,0,0,1-.18,1.92,1.92,0,0,0,.72-.55,2.47,2.47,0,0,0,.45-.86,4.09,4.09,0,0,0,.17-1.13,3.34,3.34,0,0,0-.14-1.06,2.52,2.52,0,0,0-.45-.86,2.19,2.19,0,0,0-.75-.58,2.43,2.43,0,0,0-1-.23,3.51,3.51,0,0,0-.66,0,2.26,2.26,0,0,0-.93.38q-.2.14-.41.32Z"/><path class="cls-1" d="M54.43,180.46a7.2,7.2,0,0,1-.3,2,4.28,4.28,0,0,1-.79,1.49,3.22,3.22,0,0,1-1.24.91,4.49,4.49,0,0,1-3.31-.06,3.28,3.28,0,0,1-1.22-1,4.25,4.25,0,0,1-.75-1.52,7.09,7.09,0,0,1-.23-2.06l.05-2.84a7.2,7.2,0,0,1,.3-2,4.29,4.29,0,0,1,.8-1.5A3.27,3.27,0,0,1,49,173a4.44,4.44,0,0,1,3.31.06,3.28,3.28,0,0,1,1.22,1,4.29,4.29,0,0,1,.74,1.52,7.2,7.2,0,0,1,.23,2.06Zm-6.3-.42,4.78-3.54a3.19,3.19,0,0,0-.67-1.85,2.11,2.11,0,0,0-1.63-.66,2,2,0,0,0-1.81.79,4.14,4.14,0,0,0-.62,2.38ZM52.93,178l-4.78,3.52a3.07,3.07,0,0,0,.69,1.8,2.13,2.13,0,0,0,1.61.65,2,2,0,0,0,1.81-.8,4.23,4.23,0,0,0,.61-2.39Z"/><path class="cls-1" d="M65.24,179.25l2.87-6,1.75,0L66,180.78l-.11,4.52-1.43,0,.06-4.52-3.64-7.67,1.76,0Z"/><path class="cls-1" d="M78.56,179.93l-5.06-.09-.08,4.3,5.9.11,0,1.31-7.44-.13.22-12.12,7.37.13,0,1.32-5.83-.1-.07,3.9,5.06.09Z"/><path class="cls-1" d="M87.86,182.56l-4-.07-1,3.12-1.54,0,4.13-12.05,1.29,0,3.63,12.19-1.53,0Zm-3.61-1.41,3.22.06L86,175.92Z"/><path class="cls-1" d="M96.35,180.9l-2.42,0-.09,4.94-1.53,0,.22-12.12,3.55.06a6,6,0,0,1,1.59.27,3.85,3.85,0,0,1,1.3.7,3.14,3.14,0,0,1,.86,1.14,3.7,3.7,0,0,1,.29,1.6,3.2,3.2,0,0,1-.68,2,3.47,3.47,0,0,1-.73.7,4.65,4.65,0,0,1-.93.51l2.48,5.22v.1l-1.62,0ZM94,179.59l2.06,0a3.2,3.2,0,0,0,1-.15,2.43,2.43,0,0,0,.81-.43,2.09,2.09,0,0,0,.56-.7,2.23,2.23,0,0,0,.22-1,2.52,2.52,0,0,0-.17-1,2,2,0,0,0-.52-.74,2.28,2.28,0,0,0-.8-.46,3.55,3.55,0,0,0-1-.18l-2,0Z"/><path class="cls-1" d="M108.88,183a1.66,1.66,0,0,0-.24-.94,2.26,2.26,0,0,0-.64-.66,4.27,4.27,0,0,0-.87-.45l-.91-.33q-.64-.22-1.29-.52a5.68,5.68,0,0,1-1.19-.74,3.6,3.6,0,0,1-.87-1,2.61,2.61,0,0,1-.32-1.37,2.81,2.81,0,0,1,.37-1.39,3.36,3.36,0,0,1,.92-1,4.06,4.06,0,0,1,1.28-.62,4.76,4.76,0,0,1,1.43-.2A4.48,4.48,0,0,1,108,174a4.2,4.2,0,0,1,1.29.76,3.6,3.6,0,0,1,.89,1.17,3.45,3.45,0,0,1,.33,1.51l-1.58,0a3.38,3.38,0,0,0-.24-1,2.36,2.36,0,0,0-.49-.75,2.23,2.23,0,0,0-.75-.49,2.69,2.69,0,0,0-1-.19,3,3,0,0,0-.86.11,2.33,2.33,0,0,0-.76.36,1.87,1.87,0,0,0-.54.61,1.78,1.78,0,0,0-.21.85,1.53,1.53,0,0,0,.25.89,2.3,2.3,0,0,0,.64.62,4.36,4.36,0,0,0,.85.43l.86.31q.45.15.9.34a7.54,7.54,0,0,1,.88.43,5.59,5.59,0,0,1,.78.54,3.55,3.55,0,0,1,.63.67,3,3,0,0,1,.41.82,3,3,0,0,1,.14,1,2.73,2.73,0,0,1-.39,1.42,3.26,3.26,0,0,1-1,1,4.22,4.22,0,0,1-1.31.58,5.31,5.31,0,0,1-1.45.18,5.13,5.13,0,0,1-1.58-.28,4.55,4.55,0,0,1-1.37-.74,3.77,3.77,0,0,1-1-1.17,3.28,3.28,0,0,1-.38-1.55l1.57,0a2.91,2.91,0,0,0,.29,1,2.45,2.45,0,0,0,.59.75,2.51,2.51,0,0,0,.84.47,3.39,3.39,0,0,0,1,.17,3.56,3.56,0,0,0,.89-.1,2.42,2.42,0,0,0,.78-.34,1.93,1.93,0,0,0,.57-.59A1.65,1.65,0,0,0,108.88,183Z"/><text class="cls-10" transform="translate(11.38 164.1)">ACM@UIUC</text></g></g></svg>