<?xml version="1.0" encoding="utf-8"?>
<!-- Generator: Adobe Illustrator 21.0.2, SVG Export Plug-In . SVG Version: 6.00 Build 0)  -->
<svg version="1.1" id="Layer_1" xmlns="http://www.w3.org/2000/svg" xmlns:xlink="http://www.w3.org/1999/xlink" x="0px" y="0px"
	 viewBox="0 0 934.8 934.8" style="enable-background:new 0 0 934.8 934.8;" xml:space="preserve">
<style type="text/css">
	.st0{fill:#FFFFFF;}
</style>
<g id="acm-logo-flat_16_">
	<g id="Page-1_34_">
		<g id="acm-logo-flat-white_16_">
			<g id="Page-1_35_">
				<g id="acm-logo_16_">
					<g id="layer1_16_" transform="translate(0.660370, 0.726750)">
						<path class="st0" d="M466.7-0.7L-0.7,466.7l467.4,467.4l467.4-467.4L466.7-0.7z M466.9,723.6
							c-141.8,0-256.7-114.9-256.7-256.7s114.9-256.7,256.7-256.7S723.5,325.2,723.5,467S608.6,723.6,466.9,723.6z"/>
						<g>
							<path class="st0" d="M294.6,477.4c-3.8,3-5.7,6.8-5.7,11.5c0,4.6-1.1,7.5,1.9,10.8c3,3.3,6.9,5,11.6,5
								c5.3,0,10.3-1.9,15.1-5.8c3.5-2.9,9.9-4.9,11-9.1c0.8-2.8,1.1-8.1,1.1-15.9l0.2-7.3c-3.7,1.4-7,3.4-16.1,4.8
								C305.4,472.7,297,475.5,294.6,477.4z"/>
							<path class="st0" d="M689,407.4C656.1,284.8,530,212,407.4,244.9c-122.7,32.9-195.4,158.9-162.6,281.6
								C277.6,649.1,403.7,721.9,526.4,689C649,656.2,721.8,530.1,689,407.4z M367.3,525.1c-2.3,0.3-22.3,0.2-33.3,0.3
								c-0.8-2.2-1.7-5.4-2.8-9.6c-0.5-1.9-0.8-3.2-1-3.8c-5,5.4-14,11.7-19.7,14.4c-5.7,2.7-11.1,2.2-17.5,2.2
								c-11.4,0-19.7-4.3-26.3-11.2c-6.5-6.9-9.8-15.6-9.8-26.1c0-7,1.5-13.2,4.5-18.6c3-5.5,7.1-9.7,12.5-12.5
								c5.4-2.9,12.1-5.5,22.2-7.7c13.7-2.9,21.8-5.5,27.3-8v-3.3c0-6.3-0.3-10.7-3.1-13.3c-2.8-2.7-4.1-2.6-11.8-2.6
								c-5.2,0-8.5,1.2-11.4,3.6c-2.9,2.2-4.3,6.5-6.1,12h0.1h0h0l-29.7,0.6c1-12.3,6.6-28.6,13.9-34.4c7.3-5.7,18.1-8.4,32.4-8.4
								c13,0,29.1,1.8,35.5,5.3c6.4,3.4,10.8,7.8,13.4,13.2c2.6,5.3,4,15,4,29.2l-0.3,38.1c0,10.8,0.4,18.9,1.4,24
								c0.5,3,1.4,8.3,5.2,11.2C367.7,520.3,367.2,523,367.3,525.1z M482.6,446.3l-31.6,0c-1-6.4-3.5-12.1-7-15.3
								c-3.4-3.3-8-3.9-13.5-3.9c-7.3,0-12.6,2-17,7.6c-4.3,5.6-6.8,13.3-6.8,26.4c0,14.6,2.2,25,6.6,31c4.4,6,10.4,9.1,17.8,9.1
								c5.5,0,10.1-1.7,13.6-5.2c3.5-3.6,4.7-6.5,6.1-15l30.9,0.1c-3,14.7-9.2,28.5-17.7,36c-8.5,7.5-20.3,12.1-34.5,12.1
								c-16.2,0-30.7-4.5-40.4-15.9c-9.6-11.4-14.3-29.6-14.3-49.8c0-20.4,6.7-36.2,16.3-47.5c9.6-11.4,22.7-17.1,39.1-17.1
								c13.4,0,27,3.8,34.9,10.3C473.1,415.5,480.2,427,482.6,446.3L482.6,446.3z M665.2,523.6h-33.1v-68.2
								c0-12.2-3.2-18.1-5.2-21.7c-2.7-4.6-7-7-12.6-7c-4.1,0-8,1.4-11.6,4.2c-3.6,2.8-4.7,4.9-6.3,10.3c-1.6,5.3-2.9,13.8-2.9,25.4
								v56.9H566v-65.3c0-12-3.4-17.4-4.4-20.9c-1-3.5-3.3-6.1-5.5-7.8c-2.1-1.7-5.4-2.6-9.1-2.6c-4.5,0-8.7,1.4-12.3,4.1
								c-3.6,2.7-3.7,3.1-5.3,8.2c-1.5,5.1-2,13.8-2,25.6v59.9l-33.1,0.3V402.4h1.4l31.7-0.7v16.8c11-13.1,18-18.6,31.3-18.6
								c7.1,0,14.6,1.6,19.8,4.9c5.2,3.3,9.3,8.2,12.7,14.7c4.9-6.6,10-11.5,15.6-14.7c5.6-3.3,11.6-4.9,18-4.9
								c8.1,0,17,1.9,22.6,5.6c5.6,3.6,10.9,9,13.7,16.1c2,5.3,4.1,13.8,4.1,25.5V523.6z"/>
						</g>
					</g>
				</g>
			</g>
		</g>
	</g>
</g>
</svg>
