<?xml version="1.0" encoding="utf-8"?>
<!-- Generator: Adobe Illustrator 21.0.2, SVG Export Plug-In . SVG Version: 6.00 Build 0)  -->
<svg version="1.1" id="Layer_1" xmlns="http://www.w3.org/2000/svg" xmlns:xlink="http://www.w3.org/1999/xlink" x="0px" y="0px"
	 viewBox="0 0 845.9 195.9" style="enable-background:new 0 0 845.9 195.9;" xml:space="preserve">
<style type="text/css">
	.st0{fill:#FFFFFF;}
	.st1{fill:none;}
</style>
<g>
	<g>
		<path class="st0" d="M0,83v-5.1h12.1l0.7,5.9c1.1-1.9,2.4-3.3,4-4.4s3.4-1.6,5.4-1.6c0.5,0,1.1,0.1,1.7,0.2s1,0.2,1.3,0.3
			l-0.9,6.5l-3.9-0.2c-1.8,0-3.1,0.4-4.4,1.3c-1.2,0.9-2.6,2.1-2.6,3.6v21.9l4.5,1v3.5H0v-3.5l6.7-1V84.2L0,83z"/>
		<path class="st0" d="M48.4,117.4c-5.3,0-9.4-1.8-12.6-5.3c-3.1-3.5-4.6-8.1-4.6-13.7v-1.5c0-5.4,1.5-9.9,4.8-13.5
			c3.2-3.6,7-5.4,11.4-5.4c5.1,0,8.7,1.5,11.3,4.6s3.7,7.2,3.7,12.4v5.3H38.2l-0.1-0.3c0.1,3.7,1,6.4,2.8,8.8s4.3,3.4,7.5,3.4
			c2.3,0,4.4-0.4,6.2-1.1s3.3-1.6,4.6-2.8l2.7,4.5c-1.4,1.3-3.2,2.4-5.4,3.3C54.2,116.9,51.5,117.4,48.4,117.4z M47.3,83.3
			c-2.3,0-4.3,1-5.9,2.9c-1.6,2-2.7,4.3-3,7.2h0.1h17.3v-0.6c0-2.7-0.6-5-2-6.8C52.2,84.2,50.2,83.3,47.3,83.3z"/>
		<path class="st0" d="M71.3,84.6v-6.7h4.5v-4.2c0-4.1,1.5-7.2,3.6-9.4c2.1-2.2,5.3-3.3,9.1-3.3c0.8,0,1.7,0.1,2.5,0.2
			s1.8,0.3,2.7,0.5L92.9,67c-0.4-0.1-0.9-0.2-1.5-0.2c-0.6-0.1-1.2-0.1-1.8-0.1c-2,0-3,0.6-4,1.8c-1,1.2-0.9,3-0.9,5.3V78h6.7v6.7
			h-6.7v26.6l4.5,1v3.5H71.4v-3.5l4.5-1V84.7L71.3,84.6L71.3,84.6z"/>
		<path class="st0" d="M100.2,66.2v-3.9h13.4v48.9l4.5,1v3.5h-17.8v-3.5l6.7-1v-44L100.2,66.2z"/>
		<path class="st0" d="M142.5,117.4c-5.3,0-9.7-1.8-12.9-5.3c-3.1-3.5-4.9-8.1-4.9-13.7v-1.5c0-5.4,1.8-9.9,5.1-13.5
			c3.2-3.6,7.2-5.4,11.6-5.4c5.1,0,9.6,1.5,12.2,4.6c2.6,3.1,4.6,7.2,4.6,12.4v5.3h-25.8l-0.1-0.3c0.1,3.7,1,6.4,2.8,8.8
			s4.3,3.4,7.5,3.4c2.3,0,4.4-0.4,6.2-1.1s3.3-1.6,4.6-2.8l2.7,4.5c-1.4,1.3-3.2,2.4-5.4,3.3C148.3,116.9,145.6,117.4,142.5,117.4z
			 M141.4,83.3c-2.3,0-4.3,1-5.9,2.9c-1.6,2-2.7,4.3-3,7.2h0.1h16.7v-0.6c0-2.7-0.3-5-1.7-6.8C146,84.2,144.3,83.3,141.4,83.3z"/>
		<path class="st0" d="M182.9,112c2.3,0,4.3-0.7,6.1-2.1c1.7-1.4,2.6-3,2.6-5.2h6.2l0.1,0.2c0.1,3.3-1.3,6.2-4.4,8.7
			c-3,2.5-6.6,3.8-10.6,3.8c-5.5,0-10.3-1.8-13.2-5.4c-2.9-3.6-4.9-8.2-4.9-13.6v-1.5c0-5.4,2-9.9,4.9-13.6
			c2.9-3.6,7.4-5.4,12.9-5.4c3,0,5.9,0.5,8.4,1.5c2.4,1,4.5,2,6.1,3.8l0.4,8.1H192l-1.5-5.6c-0.8-0.8-1.9-1.3-3.2-1.8
			c-1.3-0.5-2.7-0.6-4.4-0.6c-3.6,0-5.8,1.4-7.3,4c-1.6,2.6-1.9,5.9-1.9,9.7v1.5c0,3.9,0.3,7.1,1.9,9.7
			C177.1,110.7,179.3,112,182.9,112z"/>
		<path class="st0" d="M218.2,69v8.9h8.9v6.7h-8.9v22.2c0,1.8,0.7,3,1.4,3.8c0.7,0.7,1.9,1.1,3.1,1.1c0.6,0,1.4-0.1,2.1-0.2
			c0.8-0.1,1.4-0.2,2-0.3l1,4.8c-0.7,0.4-1.6,0.8-2.9,1c-1.3,0.3-2.5,0.4-3.8,0.4c-2.8,0-5.3-0.8-6.9-2.6c-1.7-1.7-2.7-4.4-2.7-8
			V84.6h-6.7v-6.7h6.7V69L218.2,69L218.2,69z"/>
		<path class="st0" d="M236,112.2l6.7-1V84l-6.7-1v-5.1h13.4v33.3l4.5,1v3.5H236V112.2z M249.4,69h-6.7v-6.7h6.7V69z"/>
		<path class="st0" d="M260.5,97.3c0-5.6,1.6-10.3,4.6-13.9s7.2-5.5,12.4-5.5c5.3,0,9,1.8,12.1,5.5c3.1,3.6,4.2,8.3,4.2,13.9v0.8
			c0,5.7-1.2,10.3-4.2,13.9s-7,5.4-12.2,5.4c-5.3,0-9.4-1.8-12.4-5.4s-4.5-8.3-4.5-13.9V97.3z M267.2,98c0,4,1,7.4,2.7,10
			s4.3,3.9,7.7,3.9c3.3,0,5.6-1.3,7.3-3.9c1.7-2.6,2.4-6,2.4-10v-0.8c0-4-0.6-7.3-2.3-10s-4.1-4-7.4-4s-5.9,1.3-7.6,4s-2.6,6-2.6,10
			V98H267.2z"/>
		<path class="st0" d="M300.6,112.2l6.7-1V84l-6.7-1v-5.1h12.5l0.5,6c1.3-2,2.9-3.4,4.8-4.5s4.1-1.6,6.5-1.6c4.1,0,7.6,1.2,9.9,3.6
			s3.7,6.2,3.7,11.2v18.6l4.5,1v3.5h-17.8v-3.5l6.7-1V92.7c0-3.4-1.1-5.7-2.5-7.1c-1.3-1.4-3.6-2.1-6.3-2.1c-2,0-3.8,0.5-5.3,1.4
			c-1.5,1-3.7,2.3-3.7,3.9v22.3l6.7,1v3.5h-20v-3.4H300.6z"/>
		<path class="st0" d="M379.8,91.3h-5.2l-1.1-4.9c-0.8-0.8-1.9-1.6-3.2-2.1c-1.3-0.5-2.7-0.8-4.3-0.8c-2.5,0-4.3,0.5-5.5,1.6
			s-1.8,2.4-1.8,3.9s0.5,2.7,1.6,3.5c1.1,0.9,3.2,1.6,6.4,2.3c4.8,1,8.4,2.4,10.7,4.2c2.3,1.8,3.5,4.1,3.5,7.1
			c0,3.4-1.4,6.1-4.1,8.2s-6.3,3.1-10.7,3.1c-2.9,0-5.5-0.3-7.8-1s-4.4-1.7-6.2-3v-8.8h5.2l1.3,5.2c0.8,0.7,1.9,1.3,3.3,1.6
			c1.4,0.3,2.8,0.5,4.2,0.5c2.5,0,4.4-0.5,5.8-1.5s2.1-2.3,2.1-3.9c0-1.5-0.6-2.8-1.7-3.8c-1.2-1-3.4-1.8-6.6-2.6
			c-4.6-1-8.1-2.4-10.5-4.1c-2.3-1.7-3.5-4.1-3.5-7c0-3.1,1.3-5.7,4-7.9c2.6-2.2,6.1-3.3,10.3-3.3c2.9,0,5.5,0.4,7.8,1.1
			c2.3,0.8,4.2,2.2,5.7,3.5L379.8,91.3z"/>
	</g>
	<g>
		<line class="st1" x1="420.8" y1="195.9" x2="420.8" y2="0"/>
		<rect x="414.2" class="st0" width="6.7" height="195.9"/>
	</g>
	<g>
		<path class="st0" d="M449.8,127.5l6.7-1V84.7l-6.7-1v-3.5h12.5l0.6,4.2c1.3-1.7,2.8-3.3,4.6-4.2c1.8-0.9,3.9-1.5,6.3-1.5
			c4.7,0,8.9,1.8,11.5,5.6c2.6,3.7,4.5,8.6,4.5,14.8v0.7c0,5.5-1.8,9.9-4.5,13.3c-2.6,3.4-6.5,5-11.1,5c-2.3,0-4.6-0.4-6.4-1.2
			c-1.8-0.8-2.5-2-4.7-3.5v13.1l6.7,1v3.9h-20L449.8,127.5L449.8,127.5z M481,98.9c0-4.3-0.4-7.9-2.1-10.7c-1.7-2.8-4-4.2-7.3-4.2
			c-2,0-3.6,0.4-5,1.3s-3.4,2.1-3.4,3.7v18.5c0,1.6,2.1,2.8,3.5,3.6c1.4,0.9,3.2,1.3,5.2,1.3c3.3,0,5.4-1.2,7-3.6
			c1.7-2.4,2.1-5.5,2.1-9.3V98.9z"/>
		<path class="st0" d="M496.5,83.7v-3.5h11.3l0.7,5.1c1.1-1.9,2.4-3.7,4-4.8c1.6-1.1,3.4-1.8,5.4-1.8c0.5,0,1.1,0,1.7,0.1
			c0.6,0.1,1,0.1,1.3,0.2l-0.9,6.4l-3.9-0.2c-1.8,0-3.8,0.4-5.1,1.3c-1.2,0.9-1.1,2.1-3.4,3.6V112l6.7,1v5.1h-17.8V113l4.5-1V84.8
			L496.5,83.7z"/>
		<path class="st0" d="M527.7,97.9c0-5.6,1.1-10.3,4.1-13.9s7-5.5,12.2-5.5c5.3,0,9.4,1.8,12.5,5.5c3.1,3.6,4.6,8.3,4.6,13.9v0.8
			c0,5.7-1.7,10.3-4.7,13.9s-7.3,5.4-12.5,5.4c-5.3,0-9-1.8-12.1-5.4c-3-3.6-4.1-8.3-4.1-13.9V97.9z M534.4,98.7c0,4,0.5,7.4,2.2,10
			s4.1,3.9,7.4,3.9c3.3,0,6-1.3,7.7-3.9s2.7-6,2.7-10v-0.8c0-4-1.1-7.3-2.8-10s-4.4-4-7.7-4s-5.6,1.3-7.3,4s-2.3,6-2.3,10
			L534.4,98.7L534.4,98.7z"/>
		<path class="st0" d="M578.9,120.4c0,3.9-0.6,6.9-2.7,9.1c-2,2.1-4.6,3.2-8.2,3.2c-0.8,0-1.3-0.1-1.9-0.2c-0.6-0.1-1.2-0.3-1.9-0.5
			l0.5-5.5c0.3,0.1,0.8,0.2,1.5,0.3c0.6,0.1,1.2,0.1,1.6,0.1c1.5,0,2.5-0.5,3.4-1.5s1.1-2.7,1.1-5V84.6l-4.5-1v-3.5h11.1
			L578.9,120.4L578.9,120.4z M578.9,69h-6.7v-6.7h6.7V69z"/>
		<path class="st0" d="M607.4,118c-5.3,0-9.5-1.8-12.7-5.3c-3.1-3.5-4.7-8.1-4.7-13.7v-1.6c0-5.4,1.6-9.9,4.9-13.5
			c3.2-3.6,7.1-5.4,11.5-5.4c5.1,0,8.6,1.5,11.3,4.6c2.6,3.1,3.6,7.2,3.6,12.4v4.6h-24h-0.1c0.1,3.7,1,6.6,2.8,8.9
			c1.8,2.4,4.3,3.5,7.5,3.5c2.3,0,4.4-0.4,6.2-1c1.8-0.7,3.3-1.6,4.6-2.8l2.7,4.5c-1.4,1.3-3.2,2.4-5.4,3.3
			C613.3,117.6,610.6,118,607.4,118z M606.4,84c-2.3,0-4.3,1-5.9,2.9c-1.6,2-2.7,3.9-3,6.9l0.1-0.3h17.1l0,0c0-2.7-0.5-5-1.9-6.8
			C611.2,84.9,609.2,84,606.4,84z"/>
		<path class="st0" d="M647.9,112.6c2.3,0,4.3-1,6.1-2.4c1.7-1.4,2.6-3.3,2.6-5.5h6.2l0.1,0.5c0.1,3.3-1.3,6.4-4.4,8.9
			c-3,2.5-6.6,3.9-10.6,3.9c-5.5,0-10.1-1.8-13-5.4s-4.7-8.1-4.7-13.6v-1.5c0-5.4,1.8-9.9,4.7-13.6c2.9-3.6,7.3-5.4,12.8-5.4
			c3,0,5.9,0.5,8.3,1.5c2.4,1,4.5,2.8,6.1,4.6l0.4,8.9H657l-1.5-6.4c-0.8-0.8-1.9-1.7-3.2-2.2s-2.7-0.8-4.4-0.8
			c-3.6,0-6.7,1.3-8.3,3.9s-2.8,5.8-2.8,9.6v1.5c0,3.9,1.2,7.1,2.8,9.7C641.2,111.3,644.2,112.6,647.9,112.6z"/>
		<path class="st0" d="M683.6,69v11.1h6.7v4.5h-6.7v22.9c0,1.8,0.5,3,1.3,3.8c0.7,0.7,1.8,1.1,3,1.1c0.6,0,1.3-0.1,2.1-0.2
			s1.4-0.2,1.9-0.3l1,4.8c-0.7,0.4-1.6,0.8-2.9,1c-1.3,0.3-2.5,0.4-3.8,0.4c-2.8,0-5.1-0.8-6.7-2.6c-1.7-1.7-2.5-4.4-2.5-8V84.6
			h-6.7v-4.5h6.7V69L683.6,69L683.6,69z"/>
		<path class="st0" d="M701.4,112.8l4.5-1V84.6l-4.5-1v-3.5h11.1v31.7l6.7,1v5.1h-17.8V112.8z M712.5,69h-6.7v-6.7h6.7V69z"/>
		<path class="st0" d="M725.9,97.9c0-5.6,1.4-10.3,4.4-13.9s7.1-5.5,12.3-5.5c5.3,0,9.2,1.8,12.3,5.5c3.1,3.6,4.4,8.3,4.4,13.9v0.8
			c0,5.7-1.3,10.3-4.4,13.9c-3,3.6-7.1,5.4-12.3,5.4c-5.3,0-9.2-1.8-12.3-5.4c-3-3.6-4.4-8.3-4.4-13.9V97.9z M732.6,98.7
			c0,4,0.8,7.4,2.5,10s4.2,3.9,7.6,3.9c3.3,0,5.7-1.3,7.4-3.9s2.5-6,2.5-10v-0.8c0-4-0.8-7.3-2.5-10s-4.2-4-7.5-4s-5.8,1.3-7.5,4
			s-2.5,6-2.5,10V98.7z"/>
		<path class="st0" d="M766,112.8l6.7-1V84.6l-6.7-1v-3.5h12l0.5,5.2c1.3-2,2.9-3.8,4.8-4.9c1.9-1.1,4.1-1.8,6.5-1.8
			c4.1,0,7.8,1.1,10.1,3.5s3.9,6.1,3.9,11.1v18.6l4.5,1v5.1h-17.8v-5.1l4.5-1V93.4c0-3.4-0.2-5.7-1.5-7.1s-3.1-2.1-5.8-2.1
			c-2,0-3.4,0.5-4.9,1.4c-1.5,1-3.3,2.3-3.3,3.9v22.3l4.5,1v5.1h-18V112.8z"/>
		<path class="st0" d="M844.8,91.3h-5.2l-1.1-4.6c-0.8-0.8-1.9-1.5-3.2-1.9c-1.3-0.5-2.7-0.7-4.3-0.7c-2.5,0-4.3,0.5-5.5,1.6
			s-1.8,2.4-1.8,3.9s0.5,2.7,1.6,3.6s3.2,1.6,6.4,2.3c4.8,1,8.4,2.4,10.7,4.2c2.3,1.8,3.5,4.1,3.5,7.1c0,3.4-1.4,6.1-4.1,8.2
			c-2.7,2.1-6.3,3.1-10.7,3.1c-2.9,0-5.5-0.3-7.8-1s-4.4-2-6.2-3.3v-9.1h5.2l1.3,5.5c0.8,0.7,1.9,1.5,3.3,1.8
			c1.4,0.3,2.8,0.6,4.2,0.6c2.5,0,4.4-0.4,5.8-1.4c1.4-1,2.1-2.3,2.1-3.9c0-1.5-0.6-2.8-1.7-3.8c-1.2-1-3.4-1.8-6.6-2.6
			c-4.6-1-8.1-2.4-10.5-4.1c-2.3-1.7-3.5-4.1-3.5-7c0-3.1,1.3-5.7,4-7.9c2.6-2.2,6.1-3.3,10.3-3.3c2.9,0,5.5,0.4,7.8,1.1
			c2.3,0.8,4.2,1.8,5.7,3.2L844.8,91.3z"/>
	</g>
</g>
</svg>
