<?xml version="1.0" encoding="utf-8"?>
<!-- Generator: Adobe Illustrator 21.0.2, SVG Export Plug-In . SVG Version: 6.00 Build 0)  -->
<svg version="1.1" id="Layer_1" xmlns="http://www.w3.org/2000/svg" xmlns:xlink="http://www.w3.org/1999/xlink" x="0px" y="0px"
	 viewBox="0 0 1683.5 869.4" style="enable-background:new 0 0 1683.5 869.4;" xml:space="preserve">
<style type="text/css">
	.st0{opacity:0.33;enable-background:new    ;}
	.st1{clip-path:url(#SVGID_2_);}
	.st2{fill:none;stroke:#A01B21;stroke-width:0.3966;stroke-miterlimit:10;}
</style>
<g class="st0">
	<g>
		<defs>
			<rect id="SVGID_1_" width="1683.5" height="869.4"/>
		</defs>
		<clipPath id="SVGID_2_">
			<use xlink:href="#SVGID_1_"  style="overflow:visible;"/>
		</clipPath>
		<g class="st1">
			<path class="st2" d="M-107.7,162.6C-217.8,270.4,26.4,753,165.2,510.4C338.8,207,621.3,89.6,759.6,222.5
				c120.9,116.1-181.1,247.9-321.6,426c-130.7,165.7,212.6,40.8,338.8,89c253.7,96.8,708.8,63.1,677.7-59.6
				c-28-110.5-426-94.3-431.1-253.5c-6.1-190.4,155.3-514.1,320.1-525.6c107.6-7.5,199.1,176.1,422.1,223.2
				c121.1,25.6-429.1,168.6-377.9,295.4c42.5,105.1,329.6-110,448.2,70.5"/>
			<path class="st2" d="M-105.8,160.4C-213.4,271.5,35.4,746.1,172.3,506.1C342.9,207.6,615.2,88.5,756,217.9
				c124.7,114.6-177.7,249.7-315.9,424.8c-129.9,164,210.5,48.8,339.6,102.1c250.3,103.5,699.7,54.7,670.5-70.3
				c-26.7-114.2-422.2-99.9-429.6-259.7c-8.7-188,155.6-505.9,319-514.4c107-5.2,202.2,171.1,422.9,216.9
				c122.2,25.4-416.8,173.9-370.7,300.3c38.4,104.8,324.9-103.1,443.3,72.3"/>
			<path class="st2" d="M-103.8,158.3C-208.9,272.8,44.6,739.4,179.4,502C347,208.2,609.1,87.3,752.4,213.4
				c128.5,113-174.2,251.4-310.3,423.6C313,799.3,650.5,693.5,782.4,752.1c246.8,109.8,690.6,46.4,663.2-80.9
				c-25.4-117.8-418.3-105.5-428.1-265.9c-11.2-185.5,155.9-498.3,318-503.2c106.3-3.2,205.4,166.2,423.7,210.6
				c123.3,25.1-404.4,179.1-363.4,305.3c34.4,104.4,320.1-96.2,438.4,74.1"/>
			<path class="st2" d="M-101.9,156.1C-204.5,273.9,53.6,732.5,186.5,497.7c164.6-289,416.6-411.7,562.3-289
				C881.2,320.2,578,461.9,444.1,631.1c-128.2,160.7,206.2,64.3,341.1,128.4c243.4,115.7,681.6,38.1,656-91.5
				c-24-121.5-414.5-111-426.6-272.1c-13.7-183.1,156-490.4,316.8-492c105.7-1.1,208.6,161.2,424.5,204.3
				c124.4,24.8-392.4,184.5-356.2,310.3c30,104.2,315.4-89.4,433.6,75.9"/>
			<path class="st2" d="M-99.9,153.9C-200,275,62.7,725.7,193.6,493.4C355.2,209.2,597.2,84.6,745.2,204
				c136.3,110-166.9,255.3-299.1,421.2c-127,159.4,204,71.9,341.8,141.5c240.1,121.3,672.6,29.7,648.7-102.2
				C1414,539.3,1026,548,1011.6,386.2c-16.1-180.6,156.3-482.5,315.7-480.8c105.1,1.1,211.7,156.2,425.3,198
				c125.6,24.6-380.2,189.8-349,315.2c25.9,103.8,310.6-82.5,428.7,77.7"/>
			<path class="st2" d="M-98,151.7c-97.6,124.4,169.2,566.9,298.8,337.5c158-279.8,390.6-405.9,540.9-289.7
				c140.3,108.4-163.4,257.1-293.5,420C322,777.3,649.8,698.9,790.7,774.1c236.8,126.5,663.6,21.3,641.5-112.8
				c-21.2-128.9-406.8-122-423.5-284.4c-18.4-178.2,156.6-474.6,314.6-469.6c104.4,3.3,214.9,151.2,426.1,191.7
				c126.7,24.3-368,195-341.8,320.2c21.7,103.5,305.9-75.6,423.8,79.5"/>
			<path class="st2" d="M-96.1,149.6c-95.1,127.7,176.3,562.1,304,335.4C362.8,209.9,585.7,82,738.1,194.9
				c144.3,106.8-159.9,258.9-287.9,418.8C325,769.9,649.5,700.5,793.5,781.5c233.6,131.4,654.6,12.9,634.2-123.5
				c-19.8-132.6-402.8-127.4-422-290.6C985,191.7,1162.5-99.2,1319.2-91C1423-85.5,1537.3,55.2,1746,94.4
				c127.9,24-355.7,200.3-334.5,325.2c17.5,103.2,301.2-68.8,418.9,81.3"/>
			<path class="st2" d="M-94.1,147.4C-186.7,278.5,89.1,704.9,215,480.7C366.8,210.3,579.9,80.6,734.5,190.2
				C882.9,295.5,578.2,451,452.2,607.8c-124.3,154.7,197.1,94.1,344.1,181c230.4,136.1,645.7,4.5,627-134.1
				c-18.4-136.3-398.9-132.8-420.5-296.8C980,184.8,1160-100.8,1315.2-89.3c103.2,7.6,221.3,141.1,427.6,179.1
				c129,23.8-343.5,205.5-327.3,330.1c13.4,102.8,296.4-61.9,414,83.1"/>
			<path class="st2" d="M-92.2,145.2C-182.3,279.7,98.1,698,222.1,476.5C370.7,210.9,574.3,79.2,730.9,185.7
				C883.5,289.3,578.1,448.2,454.2,602C330.8,755.1,648.9,703.4,799,796.1c227.3,140.5,636.7-3.9,619.7-144.7
				c-16.9-140-394.9-138.1-419-303c-24.9-170.6,157.4-450.7,311.3-436c102.6,9.8,224.5,136,428.4,172.8
				c130.2,23.5-331.3,210.8-320.1,335.1c9.2,102.4,291.7-55,409.1,84.9"/>
			<path class="st2" d="M-90.3,143.1C-177.8,280.9,107,691.2,229.2,472.3C374.7,211.3,568.6,77.7,727.3,181
				C884,283,578,445.4,456.2,596.2C333.7,747.8,648.6,704.7,801.8,803.5c224.3,144.7,627.8-12.3,612.5-155.4
				c-15.5-143.7-390.9-143.5-417.5-309.2c-26.9-168,157.8-442.7,310.2-424.8c102,12,227.7,130.9,429.2,166.5
				c131.3,23.2-319,216-312.8,340.1c5.1,102.1,286.9-48.1,404.2,86.7"/>
			<path class="st2" d="M-88.3,140.9C-173.4,282,116,684.3,236.3,468C378.7,211.8,563.1,76.2,723.8,176.4
				c161,100.4-145.7,266.2-265.5,414c-121.6,150,190.1,115.5,346.3,220.4c221.4,148.8,619-20.7,605.2-166
				c-14-147.4-386.9-148.8-416-315.4c-28.9-165.4,158-434.7,309.1-413.5c101.4,14.2,230.9,125.8,430,160.2
				c132.5,22.9-306.8,221.2-305.6,345c1,101.7,282.2-41.3,399.3,88.5"/>
			<path class="st2" d="M-86.4,138.7c-82.5,144.4,211.4,538.7,329.8,325C382.7,212.2,557.6,74.6,720.2,171.8
				c165.2,98.7-142.2,268-259.9,412.8C339.6,733,648.1,707,807.3,818.2c218.6,152.6,610.1-29.1,598-176.6
				c-12.5-151.2-382.8-154.1-414.4-321.6C960,157,1149.2-106.8,1298.8-82.4C1399.6-66,1532.9,38.2,1729.6,71.5
				c133.6,22.6-294.5,226.4-298.4,350c-3.2,101.3,277.4-34.4,394.4,90.3"/>
			<path class="st2" d="M-84.5,136.5c-80,147.7,218.4,534,335,322.9C386.7,212.7,552.1,73,716.6,167.1
				c169.5,97-138.7,269.9-254.3,411.6C342.5,725.6,647.9,708,810.1,825.5c215.8,156.3,601.3-37.6,590.7-187.3
				c-10.9-154.9-378.7-159.3-412.9-327.7c-32.6-160.4,158.7-418.8,306.9-391.2C1395-62,1532,34.7,1726.3,66.9
				c134.8,22.3-282.2,231.6-291.1,355c-7.3,100.9,272.7-27.5,389.5,92.1"/>
			<path class="st2" d="M-82.5,134.4C-160,285.5,143,663.7,257.6,455.3C390.7,213.3,546.7,71.5,713,162.6
				C886.8,257.9,577.8,434.2,464.3,573C345.4,718.2,647.7,709,812.8,832.8c213.1,159.8,592.5-46,583.5-197.9
				c-9.4-158.7-374.5-164.6-411.4-333.9c-34.4-157.8,159-410.7,305.8-380c99.6,20.9,240.5,110.2,432.4,141.2
				c135.9,22-269.9,236.8-283.9,359.9c-11.4,100.5,268-20.7,384.6,93.9"/>
			<path class="st2" d="M-80.6,132.2c-75,154.4,232.5,524.6,345.3,318.8c130-237.3,276.6-381.2,444.7-293
				c178.2,93.5-131.7,273.5-243.1,409.2c-117.9,143.7,181.3,142.7,349.3,273c210.5,163.2,583.6-54.4,576.2-208.6
				c-7.8-162.4-370.3-169.8-409.9-340.1c-36.1-155.2,159.4-402.7,304.7-368.8c99.1,23.1,243.7,105,433.2,134.9
				c137.1,21.6-257.6,242-276.7,364.9c-15.5,100.1,263.2-13.8,379.7,95.7"/>
			<path class="st2" d="M-78.7,130c-72.5,157.7,239.6,520,350.5,316.7c127-232.6,264.1-378.7,434-293.4
				c182.6,91.7-128.2,275.3-237.5,408c-117,142.1,179.2,149.3,350.1,286.1c208,166.5,574.9-62.8,569-219.2
				c-6.3-166.1-366.1-175.1-408.4-346.3c-37.7-152.6,159.7-394.6,303.6-357.6c98.5,25.4,247,99.8,434,128.6
				c138.3,21.3-245.3,247.2-269.4,369.9c-19.6,99.7,258.5-6.9,374.9,97.5"/>
			<path class="st2" d="M-76.7,127.9c-70,161,246.6,515.3,355.7,314.6C402.9,214.7,530.7,66.3,702.3,148.7
				c187.1,89.9-124.7,277.1-231.9,406.8c-116.2,140.6,177,155.9,350.7,299.4c205.5,169.7,566.1-71.3,561.7-229.8
				c-4.7-169.9-361.8-180.3-406.9-352.5C936.7,122.5,1136-114,1278.4-73.8c97.9,27.6,250.2,94.5,434.8,122.3
				c139.4,21-233,252.4-262.2,374.8c-23.7,99.3,253.7,0,370,99.3"/>
			<path class="st2" d="M-74.8,125.7C-142.3,290.1,178.8,636.3,286,438.3C406.8,215.2,525.3,64.5,698.6,144.2
				c191.5,88-121.2,278.9-226.3,405.7C357.1,688.7,647.4,712,823.9,862.2c203.1,172.8,557.3-79.7,554.5-240.5
				C1375.3,448.1,1020.9,436.2,973,263c-40.8-147.5,160.4-378.5,301.4-335.2c97.3,29.9,253.4,89.3,435.6,116
				c140.6,20.6-220.7,257.5-255,379.8c-27.8,98.9,249,6.8,365.1,101.1"/>
			<path class="st2" d="M-72.9,123.5c-65,167.7,260.7,505.9,366,310.5C410.9,215.7,520,62.7,695,139.5
				C891,225.6,577.4,420.2,474.3,544C360,681.3,647.5,712.6,826.7,869.5c200.8,175.8,548.6-88.1,547.2-251.1
				C1372.4,441,1020.8,427.7,970,253.6c-42.2-144.9,160.7-370.4,300.3-324c96.8,32.2,256.7,84,436.4,109.7
				c141.8,20.3-208.3,262.7-247.8,384.8c-31.8,98.5,244.3,13.7,360.2,102.9"/>
			<path class="st2" d="M-70.9,121.3c-62.5,171,267.7,501.2,371.2,308.4c114.6-213.6,214.5-369,391.2-294.9
				C892,219,577.3,417.4,476.3,538.2C362.8,674,647.6,713.2,829.4,876.9c198.5,178.7,539.8-96.6,539.9-261.8
				c0.1-181.1-348.7-195.9-402.3-371c-43.6-142.3,161.1-362.3,299.2-312.8c96.2,34.5,259.9,78.7,437.2,103.4
				c143,19.9-196,267.9-240.5,389.7c-35.9,98.1,239.5,20.6,355.3,104.7"/>
			<path class="st2" d="M-69,119.2c-60,174.4,274.7,496.5,376.4,306.4C419,216.8,509.6,58.9,687.9,130.4
				c205,82.1-110.7,284.3-209.5,402.1c-112.6,134,169.4,181.1,353.8,351.7c196.3,181.6,531.1-105,532.7-272.4
				c1.8-184.9-344.3-201.1-400.8-377.2C919.2,94.8,1125.5-119.5,1262.2-67c95.6,36.8,263.2,73.4,437.9,97.1
				c144.1,19.6-183.6,273.1-233.3,394.7c-39.9,97.7,234.8,27.4,350.4,106.5"/>
			<path class="st2" d="M-67.1,117c-57.4,177.7,281.8,491.9,381.5,304.3C423,217.2,504.3,56.9,684.3,125.7
				c209.6,80-107.2,286.1-203.9,400.9C368.7,659.2,648,714,835,891.6c194.1,184.4,522.4-113.4,525.4-283
				c3.4-188.6-339.7-206.3-399.3-383.4c-46.2-137.2,161.8-346,297-290.3c95,39.1,266.4,68,438.7,90.8
				c145.3,19.2-171.2,278.3-226.1,399.7c-44,97.3,230,34.3,345.5,108.3"/>
			<path class="st2" d="M-65.1,114.8c-55,181,288.8,487.2,386.7,302.2C427.1,217.7,499.1,54.9,680.7,121
				C894.8,199,577,408.9,482.4,520.7c-110.8,131,166,193.5,355.3,378.1c192.1,187.2,513.7-121.9,518.2-293.7
				c5.1-192.3-335.2-211.5-397.8-389.6c-47.4-134.6,162.1-337.7,295.9-279c94.5,41.4,269.7,62.7,439.5,84.5
				c146.5,18.8-158.8,283.5-218.8,404.6c-48,96.9,225.3,41.2,340.6,110.1"/>
			<path class="st2" d="M-63.2,112.7C-115.6,297,232.7,595.2,328.7,412.8C431.1,218.2,493.9,52.9,677.1,116.5
				C895.8,192.3,576.8,406.2,484.4,515C374.5,644.4,648.7,714.6,840.5,906.2c190,190,504.9-130.3,510.9-304.3
				c6.8-196.1-330.5-216.7-396.3-395.8C906.6,74,1117.6-123.5,1249.9-61.8c93.9,43.7,272.9,57.3,440.3,78.2
				c147.7,18.4-146.4,288.7-211.6,409.6c-52,96.5,220.6,48.1,335.7,111.9"/>
			<path class="st2" d="M-61.3,110.5c-49.9,187.7,302.9,477.8,397,298.1c99.4-189.8,152.9-357.7,337.7-296.7
				c223.3,73.6-96.8,291.4-187.1,397.3C377.4,637,649.2,714.8,843.3,913.6c188.1,192.7,496.3-138.7,503.7-314.9
				c8.4-199.8-325.8-221.9-394.8-402C902.5,67,1114.9-124.8,1245.8-60.1C1339.1-14,1522-8.1,1687,11.8
				c148.9,18-134,293.9-204.4,414.6c-56.1,96.1,215.8,54.9,330.8,113.7"/>
			<path class="st2" d="M-59.3,108.3c-47.4,191,310,473.2,402.2,296c96.3-185.1,140.6-355.5,327-297.1
				c227.8,71.4-93.3,293.2-181.5,396.1C380.3,629.6,649.7,714.9,846,920.9c186.1,195.3,487.6-147.1,496.4-325.6
				c10.1-203.6-321.1-227.2-393.3-408.1C898.5,60,1112.3-126,1241.8-58.3c92.7,48.4,279.4,46.5,441.9,65.6
				c150.1,17.6-121.6,299.2-197.1,419.5c-60.1,95.8,211.1,61.8,325.9,115.5"/>
			<path class="st2" d="M-57.4,106.1c-44.9,194.4,317.1,468.5,407.4,294c93.3-180.3,128.3-353.4,316.3-297.4
				c232.4,69.2-89.9,295-175.9,394.9C383.1,622.2,650.3,715.1,848.7,928.3c184.3,198,478.9-155.6,489.2-336.2
				c11.8-207.3-316.3-232.5-391.7-414.3c-51.7-124.7,163.4-305,291.5-234.3c92.1,50.8,282.7,41.1,442.7,59.2
				c151.3,17.1-109.2,304.4-189.9,424.5c-64.1,95.4,206.3,68.7,321.1,117.3"/>
			<path class="st2" d="M-55.5,104c-42.4,197.6,324.2,463.8,412.6,291.8C447.3,220.3,473.1,44.5,662.8,98
				c237,66.8-86.4,296.8-170.3,393.7C386,614.8,651,715.1,851.5,935.6c182.5,200.6,470.2-164,481.9-346.9
				c13.5-211-311.4-237.8-390.2-420.5C890.5,46,1106.9-128.5,1233.6-54.9c91.5,53.2,286,35.7,443.5,52.9
				c152.4,16.7-96.8,309.6-182.7,429.5c-68.1,95,201.6,75.6,316.2,119.1"/>
			<path class="st2" d="M-53.5,101.8c-39.9,201,331.2,459.2,417.7,289.8c87.2-170.7,103.7-349.2,295-298.2
				c241.6,64.5-83,298.5-164.7,392.5c-105.6,121.4,157.3,229.2,359.8,457c180.7,203.2,461.5-172.4,474.7-357.5
				c15.3-214.8-306.5-243.1-388.7-426.7c-53.7-119.8,164-288.5,289.2-211.9c90.9,55.6,289.2,30.2,444.3,46.6
				c153.6,16.2-84.4,314.9-175.4,434.4c-72.1,94.7,196.9,82.4,311.3,120.9"/>
			<path class="st2" d="M-51.6,99.6C-89,303.9,286.7,554.1,371.3,387.3c84.2-166,91.4-347.2,284.3-298.5
				c246.2,62.1-79.5,300.3-159.1,391.3c-104.7,119.8,156.1,235,360.6,470.2c179,205.7,452.9-180.8,467.4-368.1
				c17-218.5-301.5-248.4-387.2-432.9C882.8,31.9,1101.5-131,1225.5-51.5c90.3,57.9,292.5,24.8,445.1,40.3
				c154.8,15.8-72,320.1-168.2,439.4c-76.1,94.3,192.1,89.3,306.4,122.7"/>
			<path class="st2" d="M-49.7,97.5c-34.8,207.6,345.4,449.8,428.1,285.6C459.6,221.9,457.5,37.9,652,84.2
				c250.8,59.7-76.1,302-153.5,390.1c-103.9,118.2,155,240.8,361.3,483.3c177.3,208.3,444.2-189.2,460.2-378.8
				c18.7-222.2-296.4-253.8-385.7-439.1c-55.4-115,164.5-272,287-189.5c89.6,60.3,295.8,19.3,445.9,34
				c156,15.3-59.6,325.4-161,444.4c-80.1,94,187.4,96.2,301.5,124.5"/>
			<path class="st2" d="M-47.7,95.3c-32.4,211,352.4,445.2,433.3,283.5c78.2-156.4,66.8-343.2,262.9-299.3
				c255.4,57.2-72.7,303.8-147.9,388.9C397.6,585,654.5,714.9,862.7,964.8c175.6,210.9,435.6-197.6,452.9-389.4
				c20.5-225.9-291.3-259.3-384.2-445.2C875.1,17.7,1096.1-133.4,1217.3-48c89,62.7,299,13.8,446.7,27.7
				c157.2,14.8-47.1,330.6-153.8,449.3c-84.1,93.6,182.6,103,296.6,126.3"/>
			<path class="st2" d="M-45.8,93.1c-29.8,214.3,359.5,440.6,438.4,281.5C467.8,223,447.1,33.4,644.8,75
				c260,54.7-69.3,305.5-142.3,387.7c-102.2,115,152.9,252.2,362.8,509.6c174,213.4,426.9-206,445.7-400
				c22.2-229.7-286.1-264.7-382.7-451.4c-57-110.2,165-255.5,284.8-167.1c88.4,65.1,302.3,8.3,447.5,21.4
				c158.4,14.3-34.7,335.9-146.5,454.3c-88.1,93.3,177.9,109.9,291.7,128.1"/>
			<path class="st2" d="M-43.9,90.9c-27.3,217.7,366.7,435.9,443.6,279.4c72.2-146.8,42.2-339.3,241.5-300
				c264.6,52.1-65.8,307.3-136.7,386.6c-101.3,113.4,152,257.8,363.6,522.7c172.5,216,418.3-214.5,438.4-410.7
				c24-233.4-280.8-270.3-381.1-457.6C867.6,3.4,1090.7-135.8,1209.2-44.6c87.7,67.6,305.6,2.8,448.3,15.1
				c159.6,13.7-22.3,341.2-139.3,459.3c-92.1,93,173.2,116.8,286.8,129.9"/>
			<path class="st2" d="M-41.9,88.8C-66.8,309.7,331.8,520,406.8,366.1c69.2-142,29.9-337.3,230.8-300.4
				c269.2,49.5-62.4,309-131.1,385.4C406,562.8,657.7,714.5,870.9,987c171,218.5,409.7-222.9,431.2-421.3
				c25.7-237.1-275.5-275.8-379.6-463.8C863.9-3.8,1087.9-137,1205.1-42.9c87.1,70,308.8-2.7,449,8.8
				c160.8,13.2-9.9,346.5-132.1,464.2c-96.1,92.6,168.4,123.7,281.9,131.7"/>
			<path class="st2" d="M-40,86.6c-22.3,224.3,380.8,426.6,454,275.2c66.3-137.2,17.5-335.4,220.1-300.7
				c273.8,46.9-59,310.7-125.5,384.2c-99.7,110.1,150.4,269,365.1,549c169.5,221,401-231.3,423.9-432
				c27.5-240.8-270.1-281.5-378.1-470C860.3-11,1085.2-138.2,1201-41.2c86.4,72.4,312.1-8.3,449.8,2.5
				c162,12.6,2.5,351.8-124.8,469.2C1425.9,522.8,1689.7,561,1803,564"/>
			<path class="st2" d="M-38.1,84.4c-19.8,227.6,388,422,459.2,273.2C484.4,225.2,426.3,24,630.5,56.5
				c278.4,44.3-55.6,312.5-119.9,383C411.7,548,660.3,714,876.4,1001.6c168,223.6,392.4-239.7,416.7-442.6
				c29.3-244.5-264.6-287.2-376.6-476.2c-59.9-101,165.9-222.2,280.4-122.2c85.7,74.8,315.4-13.8,450.6-3.8
				c163.2,12,15,357.1-117.6,474.2c-104.1,92,158.9,137.4,272.1,135.3"/>
			<path class="st2" d="M-36.1,82.3C-53.4,313.2,359,499.6,428.2,353.4c60.4-127.6-7.1-331.7,198.7-301.5
				c283,41.6-52.2,314.2-114.3,381.8c-98.1,106.8,149.1,280,366.6,575.3c166.6,226.1,383.8-248.1,409.4-453.2
				c31.1-248.2-259-292.9-375.1-482.4c-60.6-98.8,166.1-214,279.3-111.1c85,77.2,318.7-19.4,451.4-10.1
				c164.4,11.4,27.4,362.4-110.4,479.1C1425.6,523,1688,575.6,1801.1,568.4"/>
			<path class="st2" d="M-34.2,80.1C-49,314.3,368,492.8,435.3,349.1c57.4-122.7-19.5-329.9,188-301.8
				c287.5,38.8-48.8,315.9-108.7,380.6C417.3,533,663.1,713.4,882,1016.3c165.2,228.7,375.2-256.5,402.2-463.9
				c32.8-251.9-253.4-298.8-373.6-488.5c-61.2-96.6,166.2-205.7,278.2-99.9c84.3,79.7,321.9-24.9,452.2-16.4
				c165.6,10.8,39.8,367.7-103.1,484.1c-112.2,91.4,149.4,151.1,262.4,138.9"/>
			<path class="st2" d="M-32.3,77.9c-12.2,237.6,409.4,408.1,474.7,267c54.5-117.9-31.8-328,177.3-302.2
				c292.1,36.1-45.5,317.6-103.1,379.4c-96.5,103.5,148,291,368.1,601.6c163.9,231.2,366.5-264.9,394.9-474.5
				c34.6-255.6-247.7-304.7-372.1-494.7c-61.7-94.6,166.5-197.4,277.2-88.8c83.6,82.1,325.2-30.5,453-22.7
				c166.8,10.1,52.2,373-95.9,489.1c-116.2,91.1,144.7,158,257.5,140.7"/>
			<path class="st2" d="M-30.3,75.7c-9.8,240.9,416.5,403.5,479.8,264.9C501.1,227.5,405.3,14.4,616.1,38
				c296.6,33.3-42.1,319.3-97.5,378.2C422.9,518.1,666.2,712.7,887.5,1031c162.5,233.8,357.9-273.3,387.7-485.2
				c36.4-259.3-241.9-310.7-370.6-500.9c-62.4-92.3,166.6-189,276-77.5c82.9,84.5,328.5-36.1,453.8-29.1
				c168,9.5,64.6,378.3-88.7,494c-120.2,90.7,140,164.9,252.6,142.5"/>
			<path class="st2" d="M-28.4,73.6c-7.3,244.2,423.7,398.9,485,262.8C505.3,228.1,400,12,612.5,33.4c301.2,30.5-38.7,321-91.9,377
				c-95,100.1,147.2,301.9,369.6,627.9c161.3,236.3,349.3-281.7,380.4-495.8c38.2-263-236-316.7-369-507.1
				c-63-90.2,166.8-180.7,274.9-66.3c82.2,87,331.8-41.7,454.6-35.4c169.2,8.8,77,383.6-81.5,499
				c-124.2,90.4,135.2,171.8,247.7,144.3"/>
			<path class="st2" d="M-26.4,71.4C-31.2,319,404.5,465.7,463.7,332.1c45.8-103.4-69-322.6,145.2-303.3
				c305.7,27.6-35.4,322.7-86.3,375.8c-94.2,98.4,146.9,307.3,370.4,641c160,238.9,340.7-290,373.2-506.4
				c40-266.7-230.1-322.9-367.5-513.3c-63.7-88.1,166.9-172.3,273.8-55c81.5,89.4,335-47.3,455.4-41.7c170.4,8,89.5,388.9-74.2,504
				c-128.2,90.1,130.5,178.6,242.8,146.1"/>
			<path class="st2" d="M-24.5,69.2C-26.8,320.1,413.6,459,470.8,327.9c43-98.5-81.3-320.9,134.5-303.7
				c310.2,24.7-32,324.3-80.7,374.6c-93.5,96.7,146.7,312.7,371.1,654.2c158.7,241.5,332.1-298.4,365.9-517.1
				c41.8-270.4-224.1-329.2-366-519.5c-64.2-86.1,167-164.1,272.7-43.9c80.8,91.9,338.3-53,456.2-48c171.6,7.3,101.9,394.2-67,508.9
				c-132.2,89.8,125.7,185.5,237.9,147.9"/>
			<path class="st2" d="M-22.6,67c0.2,254.2,445.4,385.2,500.5,256.6c40.1-93.7-93.8-319.1,123.8-304
				c314.7,21.8-28.7,326-75.1,373.4c-92.8,94.9,146.5,318.1,371.9,667.3c157.5,244.1,323.5-306.8,358.7-527.7
				c43.7-274.1-218-335.5-364.5-525.6c-64.8-84.1,167.1-155.8,271.6-32.7c80,94.3,341.6-58.6,457-54.3
				c172.8,6.5,114.3,399.5-59.8,513.9c-136.2,89.5,121,192.4,233,149.7"/>
			<path class="st2" d="M-20.6,64.9c2.7,257.5,452.7,380.6,505.6,254.5C522.3,230.6,378.9,2,598.2,15
				c319.2,18.9-25.4,327.7-69.5,372.2c-92.2,93.2,146.4,323.5,372.6,680.5c156.3,246.7,314.9-315.2,351.4-538.3
				c45.5-277.8-211.9-342-363-531.8C824.4-84.6,1057-150,1160.3-24c79.3,96.7,344.8-64.3,457.8-60.6c174,5.6,126.7,404.8-52.5,518.9
				c-140.3,89.2,116.3,199.2,228.1,151.5"/>
			<path class="st2" d="M-18.7,62.7c5.3,260.9,460,376.1,510.8,252.4C526.6,231.2,373.5-0.5,594.6,10.3
				c323.7,15.9-22.1,329.3-63.9,371C439.2,472.8,677,710.2,904.1,1075c155.2,249.3,306.3-323.6,344.2-549
				c47.3-281.5-205.6-348.5-361.5-538c-65.9-80.2,167.4-139.2,269.4-10.3c78.5,99.2,348.1-69.9,458.6-66.9
				c175.2,4.8,139.3,410.5-45.3,523.8C1425.3,523.9,1681,640.8,1792.7,588"/>
			<path class="st2" d="M-16.8,60.5c7.8,264.2,467.4,371.6,516,250.4C530.9,231.9,368.2-3,591,5.8c328.2,12.9-18.8,330.9-58.3,369.8
				c-90.9,89.5,146.3,334.1,374.1,706.7c154,251.9,297.7-332,336.9-559.6c49.1-285.2-199.4-355.2-360-544.2
				c-66.5-78.3,167.4-130.9,268.3,0.9c77.7,101.6,351.3-75.6,459.4-73.2C1787.8-89.9,1763,322,1573.3,435
				c-148.2,88.9,106.8,213,218.3,155.1"/>
			<path class="st2" d="M-14.8,58.4c10.2,267.5,474.8,367,521.1,248.3C535.2,232.5,362.8-5.5,587.4,1.2
				C920,11.1,572,333.8,534.7,369.8c-90.4,87.6,146.3,339.5,374.9,719.9c152.9,254.6,289.6-340.3,329.7-570.3
				c51.5-288.8-193-362-358.4-550.4c-67.2-76.3,167.5-122.5,267.1,12.2c77,104,354.6-81.3,460.1-79.5c177.6,2.9,164,421-30.8,533.8
				c-152.2,88.5,102,219.9,213.5,156.9"/>
			<path class="st2" d="M-12.9,56.2c12.8,270.9,482.3,362.6,526.4,246.2C539.7,233.1,357.6-8.1,583.9-3.5
				c337.1,6.9-12.2,334.2-47.1,367.4c-89.8,85.6,146.4,344.8,375.6,733c151.8,257.2,280.8-348.7,322.4-580.9
				c53.2-292.5-186.6-368.9-356.9-556.6C810.2-115,1045.5-154.7,1144-17.1c76.2,106.5,357.8-86.9,460.9-85.8
				c178.8,1.9,176.4,426.3-23.6,538.7c-156.3,88.2,97.3,226.7,208.6,158.7"/>
			<path class="st2" d="M-11,54C4.3,328.2,479,412.1,520.6,298.2C544.1,233.8,352.2-10.6,580.3-8c341.5,3.8-8.9,335.8-41.5,366.3
				c-89.4,83.6,146.6,350.1,376.4,746.2c150.8,259.9,272.1-357.1,315.2-591.5c54.8-296.2-180.1-376-355.4-562.8
				c-68.3-72.8,167.5-105.9,265,34.5c75.3,109,361.1-92.6,461.7-92.1c180,0.9,188.7,431.5-16.4,543.7
				c-160.3,87.8,92.6,233.6,203.7,160.5"/>
			<path class="st2" d="M-9,51.8C8.8,329.3,488.6,405.5,527.7,293.9c20.8-59.5-180.9-307.1,49-306.6c345.9,0.8-5.6,337.4-35.9,365.1
				c-89,81.5,146.8,355.4,377.1,759.3c149.7,262.6,263.3-365.5,307.9-602.2c56.5-299.9-173.6-383.1-353.9-568.9
				c-68.9-71,167.7-97.7,263.9,45.7c74.6,111.3,364.3-98.3,462.5-98.4c181.2-0.2,201.1,436.8-9.1,548.7
				C1424.8,524,1677,677,1788,598.9"/>
		</g>
	</g>
</g>
</svg>
