<svg id="Layer_1" data-name="Layer 1" xmlns="http://www.w3.org/2000/svg" viewBox="0 0 795.62 185.76">
  <defs>
    <style>
      .cls-1 {
        fill: #fff;
      }
    </style>
  </defs>
  <title>RP 2017 wordmark</title>
  <g>
    <g>
      <path class="cls-1" d="M63.74,81.32V77.79h9.42l.53,4.36a10.51,10.51,0,0,1,3.16-3.61,7.33,7.33,0,0,1,4.3-1.31,9.36,9.36,0,0,1,1.32.1,7.37,7.37,0,0,1,1,.21l-.72,5.09-3.11-.17a6.27,6.27,0,0,0-3.64,1,6.57,6.57,0,0,0-2.28,2.85v17.26l4.53.78v3.5H63.74v-3.5l4.53-.78V82.1Z"/>
      <path class="cls-1" d="M101.77,108.46a12.69,12.69,0,0,1-10-4.18,15.75,15.75,0,0,1-3.71-10.86V92.19A15.42,15.42,0,0,1,91.89,81.5a11.78,11.78,0,0,1,9-4.27q6.06,0,9.19,3.67t3.13,9.79v3.42H93.74l-.08.14a11.89,11.89,0,0,0,2.2,7.13,7,7,0,0,0,5.92,2.79,13.78,13.78,0,0,0,4.88-.79,11.23,11.23,0,0,0,3.63-2.18l2.14,3.56a13.14,13.14,0,0,1-4.27,2.63A17.06,17.06,0,0,1,101.77,108.46Zm-.83-26.91a5.93,5.93,0,0,0-4.7,2.32,11,11,0,0,0-2.39,5.82l.06.14h13.87v-.72a8.4,8.4,0,0,0-1.72-5.39A6.14,6.14,0,0,0,100.94,81.54Z"/>
      <path class="cls-1" d="M119.41,81.85V77.79h4.7V74q0-4.81,2.52-7.44a9.26,9.26,0,0,1,7-2.63,12.14,12.14,0,0,1,1.9.15q1,.15,2.13.43L137,68.67q-.5-.11-1.21-.19a12.49,12.49,0,0,0-1.46-.08,4.36,4.36,0,0,0-3.59,1.43A6.44,6.44,0,0,0,129.58,74v3.81h6.28v4.06h-6.28v21.74l4.53.78v3.5H119.57v-3.5l4.53-.78V81.85Z"/>
      <path class="cls-1" d="M143,68V64.5h10v39.09l4.53.78v3.5H143v-3.5l4.53-.78V68.81Z"/>
      <path class="cls-1" d="M176.13,108.46a12.69,12.69,0,0,1-10-4.18,15.75,15.75,0,0,1-3.71-10.86V92.19a15.42,15.42,0,0,1,3.82-10.69,11.78,11.78,0,0,1,9-4.27q6.06,0,9.19,3.67t3.13,9.79v3.42H168.09l-.08.14a11.89,11.89,0,0,0,2.2,7.13,7,7,0,0,0,5.92,2.79,13.78,13.78,0,0,0,4.88-.79,11.23,11.23,0,0,0,3.63-2.18l2.14,3.56a13.14,13.14,0,0,1-4.27,2.63A17.06,17.06,0,0,1,176.13,108.46Zm-.83-26.91a5.93,5.93,0,0,0-4.7,2.32,11,11,0,0,0-2.39,5.82l.06.14h13.87v-.72a8.4,8.4,0,0,0-1.72-5.39A6.14,6.14,0,0,0,175.29,81.54Z"/>
      <path class="cls-1" d="M208.08,104.18a7.39,7.39,0,0,0,4.8-1.68,5.13,5.13,0,0,0,2.07-4.13h4.92l.06.17q.14,3.89-3.46,6.91a12.66,12.66,0,0,1-8.38,3q-6.56,0-10-4.28a16.56,16.56,0,0,1-3.46-10.76V92.25a16.49,16.49,0,0,1,3.48-10.72q3.47-4.3,10-4.3a16.79,16.79,0,0,1,6.49,1.19,13.11,13.11,0,0,1,4.77,3.28l.25,6.67h-4.36L214,83.66a7.25,7.25,0,0,0-2.5-1.53,9.6,9.6,0,0,0-3.45-.58q-4.31,0-6.16,3.1a14.6,14.6,0,0,0-1.85,7.6v1.17a14.78,14.78,0,0,0,1.83,7.69Q203.74,104.18,208.08,104.18Z"/>
      <path class="cls-1" d="M236.51,70.54v7.26h5.7v4.06h-5.7v18.27a4.09,4.09,0,0,0,.88,3,3.17,3.17,0,0,0,2.32.86,11.92,11.92,0,0,0,1.63-.13q.9-.12,1.52-.26l.75,3.75a7,7,0,0,1-2.28.82,14.41,14.41,0,0,1-3,.32,7.09,7.09,0,0,1-5.31-2q-2-2-2-6.32V81.85h-4.75V77.79H231V70.54Z"/>
      <path class="cls-1" d="M250,104.37l4.53-.78V82.1L250,81.32V77.79h10v25.8l4.53.78v3.5H250Zm10-34.28h-5.48V64.5H260Z"/>
      <path class="cls-1" d="M269.46,92.55a16.56,16.56,0,0,1,3.61-11,13.36,13.36,0,0,1,19.67,0,16.51,16.51,0,0,1,3.63,11v.61a16.48,16.48,0,0,1-3.61,11,13.44,13.44,0,0,1-19.68,0,16.49,16.49,0,0,1-3.61-11Zm5.48.61a14.26,14.26,0,0,0,2,7.9,7.25,7.25,0,0,0,11.91,0,14.19,14.19,0,0,0,2-7.9v-.61a14.22,14.22,0,0,0-2-7.87,7.23,7.23,0,0,0-11.93,0,14.38,14.38,0,0,0-2,7.87Z"/>
      <path class="cls-1" d="M301.47,104.37l4.53-.78V82.1l-4.53-.78V77.79h9.42l.39,4.48a10.92,10.92,0,0,1,3.77-3.71,10.05,10.05,0,0,1,5.16-1.32q4.86,0,7.53,2.85t2.67,8.8v14.71l4.53.78v3.5H320.4v-3.5l4.53-.78V89q0-4-1.57-5.64a6.29,6.29,0,0,0-4.8-1.67,7.72,7.72,0,0,0-4.18,1.14,8.33,8.33,0,0,0-2.91,3.11v17.65l4.53.78v3.5H301.47Z"/>
      <path class="cls-1" d="M363.64,87.24h-4.11l-.89-3.61a7.42,7.42,0,0,0-2.52-1.51,9.71,9.71,0,0,0-3.43-.57,6.32,6.32,0,0,0-4.34,1.28,4,4,0,0,0-1.42,3.09,3.44,3.44,0,0,0,1.25,2.81q1.25,1,5.09,1.83,5.7,1.22,8.48,3.32a6.7,6.7,0,0,1,2.78,5.63,7.77,7.77,0,0,1-3.24,6.48,13.57,13.57,0,0,1-8.47,2.47,22,22,0,0,1-6.14-.79,16.34,16.34,0,0,1-4.87-2.29l0-6.87h4.11l1,4a5.72,5.72,0,0,0,2.57,1.25,14.21,14.21,0,0,0,3.32.39A7.75,7.75,0,0,0,357.4,103a3.64,3.64,0,0,0,1.65-3.1,3.73,3.73,0,0,0-1.38-3,12.93,12.93,0,0,0-5.21-2,21.89,21.89,0,0,1-8.26-3.25,6.56,6.56,0,0,1-2.78-5.56,7.85,7.85,0,0,1,3.13-6.26,12.34,12.34,0,0,1,8.13-2.59,19.76,19.76,0,0,1,6.14.89,12.82,12.82,0,0,1,4.53,2.47Z"/>
    </g>
    <rect class="cls-1" x="389.96" y="14.88" width="6" height="156"/>
    <g>
      <path class="cls-1" d="M419.58,116.41l4.53-.78v-33l-4.53-.78V78.29h9.23l.5,3.67A10.12,10.12,0,0,1,433,78.82a11,11,0,0,1,5-1.08,10,10,0,0,1,8.69,4.43q3.1,4.43,3.1,11.72v.58q0,6.5-3.11,10.49a10.3,10.3,0,0,1-8.59,4,11.93,11.93,0,0,1-4.88-.93,9.44,9.44,0,0,1-3.57-2.77v10.37l4.53.78v3.53H419.58Zm24.66-22.52a16,16,0,0,0-2-8.42,6.53,6.53,0,0,0-5.95-3.28,7.33,7.33,0,0,0-4,1.06,8,8,0,0,0-2.7,2.89v14.65a7.16,7.16,0,0,0,6.76,3.89,6.75,6.75,0,0,0,5.89-2.84,12.5,12.5,0,0,0,2-7.37Z"/>
      <path class="cls-1" d="M455.39,81.82V78.29h9.42l.53,4.36A10.51,10.51,0,0,1,468.5,79a7.33,7.33,0,0,1,4.3-1.31,9.36,9.36,0,0,1,1.32.1,7.37,7.37,0,0,1,1,.21l-.72,5.09L471.32,83a6.27,6.27,0,0,0-3.64,1,6.57,6.57,0,0,0-2.28,2.85v17.26l4.53.78v3.5H455.39v-3.5l4.53-.78V82.6Z"/>
      <path class="cls-1" d="M479.75,93.05a16.56,16.56,0,0,1,3.61-11A13.36,13.36,0,0,1,503,82a16.51,16.51,0,0,1,3.63,11v.61a16.48,16.48,0,0,1-3.61,11,13.44,13.44,0,0,1-19.68,0,16.49,16.49,0,0,1-3.61-11Zm5.48.61a14.26,14.26,0,0,0,2,7.9,7.25,7.25,0,0,0,11.91,0,14.19,14.19,0,0,0,2-7.9v-.61a14.22,14.22,0,0,0-2-7.87,7.23,7.23,0,0,0-11.93,0,14.38,14.38,0,0,0-2,7.87Z"/>
      <path class="cls-1" d="M521.54,110.85q0,4.64-2.39,7.16a8.73,8.73,0,0,1-6.64,2.52,9.52,9.52,0,0,1-1.61-.12,11.14,11.14,0,0,1-1.5-.38l.36-4.31a5.84,5.84,0,0,0,1.14.24,9.94,9.94,0,0,0,1.22.1,3.63,3.63,0,0,0,2.88-1.22,6,6,0,0,0,1.07-4V82.6l-4.53-.78V78.29h10Zm-.17-40.37H515.9V65h5.48Z"/>
      <path class="cls-1" d="M543.48,109a12.69,12.69,0,0,1-10-4.18,15.75,15.75,0,0,1-3.71-10.86V92.69A15.42,15.42,0,0,1,533.6,82a11.78,11.78,0,0,1,9-4.27q6.06,0,9.19,3.67T555,91.19v3.42H535.45l-.08.14a11.89,11.89,0,0,0,2.2,7.13,7,7,0,0,0,5.92,2.79,13.78,13.78,0,0,0,4.88-.79A11.23,11.23,0,0,0,552,101.7l2.14,3.56a13.14,13.14,0,0,1-4.27,2.63A17.06,17.06,0,0,1,543.48,109ZM542.65,82a5.93,5.93,0,0,0-4.7,2.32,11,11,0,0,0-2.39,5.82l.06.14h13.87v-.72a8.4,8.4,0,0,0-1.72-5.39A6.14,6.14,0,0,0,542.65,82Z"/>
      <path class="cls-1" d="M575.43,104.68a7.39,7.39,0,0,0,4.8-1.68,5.13,5.13,0,0,0,2.07-4.13h4.92l.06.17q.14,3.89-3.46,6.91a12.66,12.66,0,0,1-8.38,3q-6.56,0-10-4.28A16.56,16.56,0,0,1,562,93.92V92.75A16.49,16.49,0,0,1,565.43,82q3.47-4.3,10-4.3a16.79,16.79,0,0,1,6.49,1.19,13.11,13.11,0,0,1,4.77,3.28l.25,6.67h-4.36l-1.2-4.73a7.25,7.25,0,0,0-2.5-1.53,9.6,9.6,0,0,0-3.45-.58q-4.31,0-6.16,3.1a14.6,14.6,0,0,0-1.85,7.6v1.17a14.78,14.78,0,0,0,1.83,7.69Q571.1,104.68,575.43,104.68Z"/>
      <path class="cls-1" d="M603.86,71v7.26h5.7v4.06h-5.7v18.27a4.09,4.09,0,0,0,.88,3,3.17,3.17,0,0,0,2.32.86,11.92,11.92,0,0,0,1.63-.13q.9-.12,1.52-.26l.75,3.75a7,7,0,0,1-2.28.82,14.41,14.41,0,0,1-3,.32,7.09,7.09,0,0,1-5.31-2q-2-2-2-6.32V82.35h-4.75V78.29h4.75V71Z"/>
      <path class="cls-1" d="M617.35,104.87l4.53-.78V82.6l-4.53-.78V78.29h10v25.8l4.53.78v3.5H617.35Zm10-34.28h-5.48V65h5.48Z"/>
      <path class="cls-1" d="M636.81,93.05a16.56,16.56,0,0,1,3.61-11,13.36,13.36,0,0,1,19.67,0,16.51,16.51,0,0,1,3.63,11v.61a16.48,16.48,0,0,1-3.61,11,13.44,13.44,0,0,1-19.68,0,16.49,16.49,0,0,1-3.61-11Zm5.48.61a14.26,14.26,0,0,0,2,7.9,7.25,7.25,0,0,0,11.91,0,14.19,14.19,0,0,0,2-7.9v-.61a14.22,14.22,0,0,0-2-7.87,7.23,7.23,0,0,0-11.93,0,14.38,14.38,0,0,0-2,7.87Z"/>
      <path class="cls-1" d="M668.83,104.87l4.53-.78V82.6l-4.53-.78V78.29h9.42l.39,4.48a10.92,10.92,0,0,1,3.77-3.71,10.05,10.05,0,0,1,5.16-1.32q4.86,0,7.53,2.85t2.67,8.8v14.71l4.53.78v3.5H687.76v-3.5l4.53-.78V89.5q0-4-1.57-5.64a6.29,6.29,0,0,0-4.8-1.67,7.72,7.72,0,0,0-4.18,1.14,8.33,8.33,0,0,0-2.91,3.11v17.65l4.53.78v3.5H668.83Z"/>
      <path class="cls-1" d="M731,87.74h-4.11L726,84.13a7.42,7.42,0,0,0-2.52-1.51A9.72,9.72,0,0,0,720,82a6.32,6.32,0,0,0-4.34,1.28,4,4,0,0,0-1.42,3.09,3.44,3.44,0,0,0,1.25,2.81q1.25,1,5.09,1.83,5.7,1.22,8.48,3.32a6.7,6.7,0,0,1,2.78,5.63,7.77,7.77,0,0,1-3.24,6.48,13.57,13.57,0,0,1-8.47,2.47,22,22,0,0,1-6.14-.79,16.34,16.34,0,0,1-4.87-2.29l0-6.87h4.11l1,4a5.72,5.72,0,0,0,2.57,1.25,14.21,14.21,0,0,0,3.32.39,7.75,7.75,0,0,0,4.57-1.18,3.64,3.64,0,0,0,1.65-3.1,3.73,3.73,0,0,0-1.38-3,12.94,12.94,0,0,0-5.21-2,21.89,21.89,0,0,1-8.26-3.25,6.56,6.56,0,0,1-2.78-5.56,7.85,7.85,0,0,1,3.13-6.26A12.34,12.34,0,0,1,720,77.74a19.76,19.76,0,0,1,6.14.89,12.82,12.82,0,0,1,4.53,2.47Z"/>
    </g>
  </g>
</svg>
