<?xml version="1.0" encoding="utf-8"?>
<!-- Generator: Adobe Illustrator 21.0.0, SVG Export Plug-In . SVG Version: 6.00 Build 0)  -->
<svg version="1.1" id="Layer_1" xmlns="http://www.w3.org/2000/svg" xmlns:xlink="http://www.w3.org/1999/xlink" x="0px" y="0px"
	 viewBox="0 0 432 105.3" style="enable-background:new 0 0 432 105.3;" xml:space="preserve">
<style type="text/css">
	.st0{fill:#F7911E;}
	.st1{fill:#96D6D9;}
	.st2{fill:#FFC96B;}
	.st3{fill:#DD7127;}
	.st4{fill:#FFD10D;}
	.st5{fill:#4FC3C4;}
	.st6{fill:#329E9B;}
</style>
<g>
	<g>
		<g>
			<g>
				<path class="st0" d="M132.8,30c-6,0-11.5,2.4-15.4,6.7c-3.8,4.2-5.9,10-5.9,16.1c0,6.2,2.1,11.9,6,16.1
					c3.9,4.3,9.3,6.6,15.1,6.6c6.8,0,11.8-2.3,16.7-7.8l0.4-0.4l-5.3-5.8l-0.5,0.5c-3.4,3.4-6.4,5.4-11.1,5.4c-3.5,0-6.7-1.5-9-4.3
					c-2.3-2.7-3.6-6.5-3.6-10.5s1.3-7.7,3.6-10.4c2.3-2.7,5.5-4.2,9-4.2c3.9,0,7.2,1.5,10.8,5.2l0.5,0.5l5.3-6.5l-0.4-0.4
					C145.8,33.6,141.2,30,132.8,30z"/>
			</g>
		</g>
		<g>
			<g>
				<path class="st0" d="M154.1,30.7V56c0,6.2,1.6,11.1,4.8,14.5c3,3.2,7.5,5,12.9,5h0.1c5.4,0,9.9-1.7,13-5
					c3.2-3.4,4.9-8.4,4.9-14.8v-25h-8.3V56c0,3.7-0.9,6.6-2.6,8.6c-1.6,1.9-3.9,2.8-6.9,2.8s-5.3-1-7-2.9c-1.7-2-2.6-5-2.6-8.7v-25
					L154.1,30.7L154.1,30.7z"/>
			</g>
		</g>
		<g>
			<path class="st0" d="M220.7,58.2l0.3-0.1c5.8-2,9.1-6.8,9-13.2c0-4.3-1.4-7.8-4.1-10.3c-2.7-2.5-6.6-3.8-11.3-3.8h-18.4v43.9h8
				v-15h8.1l0.1,0.1l9.8,14.8h9.5L220.7,58.2z M219.8,50.3c-1.4,1.2-3.3,1.8-5.7,1.8h-9.8V38.6h9.8c2.5,0,4.5,0.6,5.8,1.7
				c1.3,1.1,2,2.8,2,5C221.9,47.4,221.2,49.1,219.8,50.3z"/>
		</g>
		<g>
			<g>
				<path class="st0" d="M269.2,74.8h8.8l-18.2-44.4h-7.4l-18.2,44.4h8.6l4.1-10.4H265v0.1L269.2,74.8z M262,56.6h-12l0.1-0.2
					l5.9-14.8l0.1,0.3L262,56.6z"/>
			</g>
		</g>
		<g>
			<g>
				<path class="st0" d="M364.3,74.8h8.3V38.9h12.7v-8.2h-33.8v8.2h12.7L364.3,74.8L364.3,74.8z"/>
			</g>
		</g>
		<g>
			<g>
				<path class="st0" d="M282,74.8h25.5l3.3-8.1h-20.5v-36H282V74.8z"/>
			</g>
		</g>
		<g>
			<g>
				<path class="st0" d="M347.7,74.8h8.8l-18.2-44.4H331l-18.2,44.4h8.6l4.1-10.4h18.1v0.1L347.7,74.8z M340.6,56.6h-12l0.1-0.2
					l5.9-14.8l0.1,0.3L340.6,56.6z"/>
			</g>
		</g>
		<g>
			<g>
				<path class="st0" d="M390.3,74.8h29.9v-7.9h-21.6V56.5h13.1v-7.9h-13.1v-10h18.6l3.1-7.9h-30V74.8z"/>
			</g>
		</g>
	</g>
	<g>
		<polygon class="st1" points="65.1,39.5 91.6,39.5 91.6,12.9 		"/>
		<polygon class="st0" points="38.5,66 12,66 12,92.6 38.5,92.6 65.1,92.6 65.1,66 		"/>
		<polygon class="st2" points="91.6,66 65.1,66 65.1,92.6 		"/>
		<polygon class="st3" points="38.5,66 38.5,66 38.5,66 38.5,39.5 12,39.5 12,66 12,66 12,92.5 		"/>
		<rect x="38.5" y="39.5" class="st4" width="26.5" height="26.5"/>
		<polygon class="st5" points="38.5,39.5 65.1,39.5 91.6,12.9 38.5,12.9 		"/>
		<polygon class="st6" points="12,39.5 38.5,39.5 38.5,12.9 		"/>
	</g>
</g>
</svg>
