<svg id="Layer_1" data-name="Layer 1" xmlns="http://www.w3.org/2000/svg" viewBox="0 0 452.39 458.24">
  <defs>
    <style>
      .cls-1 {
        fill: #a01d21;
      }

      .cls-2 {
        fill: none;
      }

      .cls-3 {
        fill: #cb2027;
      }

      .cls-4 {
        fill: #fff;
      }

      .cls-5 {
        fill: #8f191c;
      }

      .cls-6 {
        fill: #b32024;
      }

      .cls-7 {
        fill: #e81d29;
      }

      .cls-8 {
        fill: #7a1216;
      }

      .cls-9 {
        fill: #9e1d20;
      }
    </style>
  </defs>
  <title>RP 2017 logo</title>
  <g>
    <path class="cls-1" d="M115.81,231.07a53.69,53.69,0,0,1,30.35-28.34,115.45,115.45,0,0,1-34.9-79.18A107.06,107.06,0,0,0,15,194a53.85,53.85,0,0,0,100.84,37Z"/>
    <path class="cls-2" d="M218.73,251.6c0-.07,0-.15,0-.22S218.73,251.53,218.73,251.6Z"/>
    <path class="cls-2" d="M218.5,258.45c0-.09,0-.18,0-.26C218.52,258.28,218.51,258.36,218.5,258.45Z"/>
    <path class="cls-3" d="M218.12,261.45a53.77,53.77,0,0,1-4.1,13.86A107.71,107.71,0,1,1,17.6,186.84a53.86,53.86,0,0,0,98.21,44.23,53.68,53.68,0,0,1,30.35-28.34,115.46,115.46,0,0,0,69.46,32.41h0c2.29.22,4.61.36,6.95.45a107.4,107.4,0,0,1-4.47,26.06C218.11,261.6,218.11,261.53,218.12,261.45Z"/>
    <path class="cls-4" d="M227,235.71q-3,0-5.9-.15A105.38,105.38,0,1,1,111.32,125.8q-.15-2.93-.15-5.9c0-1.52.06-3,.11-4.52A115.8,115.8,0,1,0,231.51,235.6C230,235.66,228.51,235.71,227,235.71Z"/>
    <path class="cls-5" d="M225.53,121.48a53.69,53.69,0,0,1,28.34,30.35,115.45,115.45,0,0,1,79.18-34.9,107.06,107.06,0,0,0-70.48-96.3,53.85,53.85,0,0,0-37,100.84Z"/>
    <path class="cls-2" d="M205,224.38h0Z"/>
    <path class="cls-2" d="M198.16,224.15l.26,0Z"/>
    <path class="cls-6" d="M195.16,223.77a53.77,53.77,0,0,1-13.86-4.1A107.71,107.71,0,1,1,269.77,23.25a53.86,53.86,0,0,0-44.23,98.21,53.68,53.68,0,0,1,28.34,30.35,115.46,115.46,0,0,0-32.41,69.46h0c-.22,2.3-.36,4.62-.45,6.95a107.4,107.4,0,0,1-26.06-4.47Z"/>
    <path class="cls-4" d="M220.9,232.64q0-3,.15-5.9a105.38,105.38,0,0,1,4.49-210.67c56.61,0,102.91,45,105.28,101q2.93-.15,5.9-.15c1.52,0,3,.06,4.52.11C338.85,55.3,287.88,5.65,225.54,5.65A115.8,115.8,0,0,0,221,237.16C221,235.66,220.9,234.15,220.9,232.64Z"/>
    <path class="cls-6" d="M226.89,342.43a53.69,53.69,0,0,1-28.34-30.35,115.29,115.29,0,0,1-79.17,34.76,107,107,0,0,0,70.46,96.44,53.85,53.85,0,0,0,37-100.84Z"/>
    <path class="cls-2" d="M247.42,239.51h0Z"/>
    <path class="cls-2" d="M254.26,239.74l-.26,0Z"/>
    <path class="cls-7" d="M257.27,240.12a53.77,53.77,0,0,1,13.86,4.1,107.71,107.71,0,1,1-88.47,196.42,53.86,53.86,0,0,0,44.23-98.21,53.68,53.68,0,0,1-28.34-30.35A115.46,115.46,0,0,0,231,242.62h0c.22-2.3.36-4.62.45-6.95a107.4,107.4,0,0,1,26.06,4.47Z"/>
    <path class="cls-4" d="M231.41,237.1a21.44,21.44,0,0,1-10.36,0,20,20,0,0,1,0-10.36,15.68,15.68,0,0,1,10.36,0,14.15,14.15,0,0,1,0,10.36Z"/>
    <path class="cls-8" d="M336.58,232.74a53.69,53.69,0,0,1-30.35,28.34,115.45,115.45,0,0,1,34.9,79.18,107.06,107.06,0,0,0,96.3-70.48,53.85,53.85,0,0,0-100.84-37Z"/>
    <path class="cls-2" d="M233.67,212.21c0,.07,0,.15,0,.22S233.67,212.28,233.67,212.21Z"/>
    <path class="cls-2" d="M233.89,205.36c0,.09,0,.18,0,.26C233.87,205.54,233.88,205.45,233.89,205.36Z"/>
    <path class="cls-9" d="M234.27,202.36a53.77,53.77,0,0,1,4.1-13.86A107.71,107.71,0,1,1,434.79,277a53.86,53.86,0,0,0-98.21-44.23,53.68,53.68,0,0,1-30.35,28.34,115.46,115.46,0,0,0-69.46-32.41h0c-1.81-.18-3.63-.3-5.47-.39-.49,0,0-.9-.46-.91,0-.59-1-.33-.93-.92a107.27,107.27,0,0,1,4.38-24.29C234.29,202.22,234.28,202.29,234.27,202.36Z"/>
    <path class="cls-4" d="M225.41,228.1c2,0,3.94.08,5.9.18A105.38,105.38,0,1,1,341.07,338q.15,2.93.15,5.9c0,1.52-.06,3-.11,4.52A115.8,115.8,0,1,0,220.88,228.21C222.39,228.16,223.89,228.1,225.41,228.1Z"/>
    <path class="cls-4" d="M231.53,231.25q0,3-.15,5.9a105.38,105.38,0,0,1-4.49,210.67c-56.61,0-102.91-45.07-105.28-101.11-2,.1-3.82.18-5.8.18-1.52,0-3.12-.09-4.62-.15,2.39,61.77,53.36,111.5,115.7,111.5a115.8,115.8,0,0,0,4.52-231.51C231.47,228.23,231.53,229.74,231.53,231.25Z"/>
  </g>
</svg>
