<?xml version="1.0" encoding="utf-8"?>
<!-- Generator: Adobe Illustrator 19.0.0, SVG Export Plug-In . SVG Version: 6.00 Build 0)  -->
<svg version="1.1" id="Layer_1" xmlns="http://www.w3.org/2000/svg" xmlns:xlink="http://www.w3.org/1999/xlink" x="0px" y="0px"
	 viewBox="0 0 1000.1 560.4" style="enable-background:new 0 0 1000.1 560.4;" xml:space="preserve">
<style type="text/css">
	.st0{clip-path:url(#XMLID_59_);fill:#A01D21;}
	.st1{clip-path:url(#XMLID_59_);fill:#CB2027;}
	.st2{clip-path:url(#XMLID_59_);fill:#FFFFFF;}
	.st3{clip-path:url(#XMLID_59_);fill:#8F191C;}
	.st4{clip-path:url(#XMLID_59_);fill:#B32024;}
	.st5{clip-path:url(#XMLID_59_);fill:#E81D29;}
	.st6{clip-path:url(#XMLID_59_);fill:#7A1216;}
	.st7{clip-path:url(#XMLID_59_);fill:#9E1D20;}
</style>
<g id="XMLID_2_">
	<defs>
		<rect id="XMLID_3_" x="-154" y="0.4" width="1308.1" height="832.4"/>
	</defs>
	<clipPath id="XMLID_59_">
		<use xlink:href="#XMLID_3_"  style="overflow:visible;"/>
	</clipPath>
	<path id="XMLID_58_" class="st0" d="M421.3,277.1c4.4-9.7,12.4-16.8,21.6-20.2c-14.8-14.4-24.2-34.4-24.9-56.5
		c-18.5,0.8-36.8,8.2-50.9,22.3c-8.2,8.2-14.1,17.8-17.8,28c-5.2,18.1,3.5,37.7,21.1,45.6C389.9,305,412.6,296.4,421.3,277.1"/>
	<path id="XMLID_57_" class="st1" d="M494.3,298.8c-0.5,3.3-1.5,6.7-2.9,9.9c-8.1,17.9-23,32.8-42.9,40.3c-39.7,15-84-5-99-44.7
		c-7.5-19.8-6.3-40.8,1.8-58.7c-8.7,19.3-0.1,42,19.2,50.8c19.3,8.7,42.1,0.1,50.8-19.2c4.4-9.7,12.4-16.8,21.6-20.2
		c13.1,12.8,30.3,21.2,49.5,23.1c0,0,0,0,0,0c0,0,0,0,0,0c1.6,0.2,3.3,0.3,5,0.3c-0.3,6.3-1.4,12.5-3.2,18.6
		C494.3,298.9,494.3,298.8,494.3,298.8"/>
	<path id="XMLID_56_" class="st2" d="M500.6,280.4c-1.4,0-2.8,0-4.2-0.1c-1.7,40-34.7,72-75.1,72c-41.4,0-75.2-33.7-75.2-75.2
		c0-40.4,32-73.4,72-75.1c-0.1-1.4-0.1-2.8-0.1-4.2c0-1.1,0-2.2,0.1-3.2c-44,1.7-79.4,38-79.4,82.5c0,45.5,37,82.6,82.6,82.6
		c44.5,0,80.8-35.3,82.5-79.4C502.8,280.4,501.7,280.4,500.6,280.4"/>
	<path id="XMLID_55_" class="st3" d="M499.6,198.9c9.7,4.4,16.8,12.4,20.2,21.6c14.4-14.8,34.4-24.2,56.5-24.9
		c-0.8-18.5-8.2-36.8-22.3-50.9c-8.2-8.2-17.8-14.1-28-17.8c-18.1-5.2-37.7,3.5-45.6,21.1C471.6,167.5,480.2,190.2,499.6,198.9"/>
	<path id="XMLID_54_" class="st4" d="M477.9,271.9c-3.3-0.5-6.7-1.5-9.9-2.9c-17.9-8.1-32.8-23-40.3-42.9c-15-39.7,5-84,44.7-99
		c19.8-7.5,40.8-6.3,58.7,1.8c-19.3-8.7-42-0.1-50.8,19.2c-8.7,19.3-0.1,42.1,19.2,50.8c9.7,4.4,16.8,12.4,20.2,21.6
		c-12.8,13.1-21.2,30.3-23.1,49.5c0,0,0,0,0,0s0,0,0,0c-0.2,1.6-0.3,3.3-0.3,5c-6.3-0.3-12.5-1.4-18.6-3.2
		C477.8,271.9,477.9,271.9,477.9,271.9"/>
	<path id="XMLID_53_" class="st2" d="M496.3,278.2c0-1.4,0-2.8,0.1-4.2c-40-1.7-72-34.7-72-75.1c0-41.4,33.7-75.2,75.2-75.2
		c40.4,0,73.4,32.1,75.1,72c1.4-0.1,2.8-0.1,4.2-0.1c1.1,0,2.2,0,3.2,0.1c-1.7-44-38-79.5-82.5-79.5c-45.5,0-82.6,37-82.6,82.6
		c0,44.5,35.3,80.8,79.4,82.5C496.3,280.4,496.3,279.3,496.3,278.2"/>
	<path id="XMLID_52_" class="st4" d="M500.5,356.5c-9.7-4.4-16.8-12.4-20.2-21.6c-14.4,14.8-34.4,24.1-56.5,24.8
		c0.8,18.5,8.2,36.9,22.3,51c8.2,8.2,17.8,14.1,28,17.8c18.1,5.2,37.7-3.5,45.6-21.1C528.5,388,519.9,365.2,500.5,356.5"/>
	<path id="XMLID_51_" class="st5" d="M522.2,283.5c3.3,0.5,6.7,1.5,9.9,2.9c17.9,8.1,32.8,23,40.3,42.9c15,39.7-5,84-44.7,99
		c-19.8,7.5-40.8,6.3-58.7-1.8c19.3,8.7,42,0.1,50.8-19.2c8.7-19.3,0.1-42.1-19.2-50.8c-9.7-4.4-16.8-12.4-20.2-21.6
		c12.8-13.1,21.2-30.3,23.1-49.5l0,0l0,0c0.2-1.6,0.3-3.3,0.3-5c6.3,0.3,12.5,1.4,18.6,3.2C522.3,283.5,522.2,283.5,522.2,283.5"/>
	<path id="XMLID_50_" class="st2" d="M503.7,281.4c-1,0.2-2.2,0.5-3.7,0.5c-1.5,0-2.7-0.2-3.6-0.5c-0.3-1-0.5-2.3-0.5-3.9
		c0-1.4,0.2-2.6,0.5-3.5c0.8-0.3,2.1-0.6,3.7-0.6c1.6,0,2.9,0.3,3.7,0.6c0.3,0.8,0.7,2,0.7,3.5C504.5,279.2,504.1,280.6,503.7,281.4
		"/>
	<path id="XMLID_49_" class="st6" d="M578.8,278.3c-4.4,9.7-12.4,16.8-21.6,20.2c14.8,14.4,24.2,34.4,24.9,56.5
		c18.5-0.8,36.8-8.2,50.9-22.3c8.2-8.2,14.1-17.8,17.8-28c5.2-18.1-3.5-37.7-21.1-45.6C610.2,250.3,587.5,258.9,578.8,278.3"/>
	<path id="XMLID_48_" class="st7" d="M505.8,256.6c0.5-3.3,1.5-6.7,2.9-9.9c8.1-17.9,23-32.8,42.9-40.3c39.7-15,84,5,99,44.7
		c7.5,19.8,6.3,40.8-1.8,58.7c8.7-19.3,0.1-42-19.2-50.8c-19.3-8.7-42.1-0.1-50.8,19.2c-4.4,9.7-12.4,16.8-21.6,20.2
		c-13.1-12.8-30.3-21.2-49.5-23.1l0,0h0c-1.3-0.1-2.6-0.2-3.9-0.3c-0.4,0,0-0.6-0.3-0.7c0-0.4-0.7-0.2-0.7-0.7
		c0.4-5.9,1.4-11.7,3.1-17.3C505.8,256.5,505.8,256.6,505.8,256.6"/>
	<path id="XMLID_47_" class="st2" d="M499.5,275c1.4,0,2.8,0.1,4.2,0.1c1.7-40,34.7-72,75.1-72c41.4,0,75.2,33.7,75.2,75.2
		c0,40.4-32,73.4-72,75.1c0.1,1.4,0.1,2.8,0.1,4.2c0,1.1,0,2.2-0.1,3.2c44-1.7,79.4-38,79.4-82.5c0-45.5-37-82.6-82.6-82.6
		c-44.5,0-80.8,35.3-82.5,79.4C497.3,275,498.4,275,499.5,275"/>
	<path id="XMLID_46_" class="st2" d="M503.8,277.2c0,1.4,0,2.8-0.1,4.2c40,1.7,72,34.7,72,75.1c0,41.4-33.7,75.2-75.2,75.2
		c-40.4,0-73.4-32.1-75.1-72.1c-1.4,0.1-2.7,0.1-4.1,0.1c-1.1,0-2.2-0.1-3.3-0.1c1.7,44,38,79.5,82.5,79.5c45.5,0,82.6-37,82.6-82.6
		c0-44.5-35.3-80.8-79.4-82.5C503.8,275.1,503.8,276.1,503.8,277.2"/>
	<path id="XMLID_45_" class="st2" d="M48.1,270.5v-2.7h7.3l0.4,3.4c0.7-1.2,1.5-2.1,2.4-2.8c1-0.7,2.1-1,3.3-1c0.3,0,0.7,0,1,0.1
		c0.4,0.1,0.6,0.1,0.8,0.2l-0.6,3.9l-2.4-0.1c-1.1,0-2.1,0.3-2.8,0.8c-0.8,0.5-1.3,1.3-1.8,2.2v13.4l3.5,0.6v2.7H48.1v-2.7l3.5-0.6
		v-16.6L48.1,270.5z"/>
	<path id="XMLID_42_" class="st2" d="M77.5,291.5c-3.2,0-5.8-1.1-7.7-3.2c-1.9-2.2-2.9-5-2.9-8.4v-0.9c0-3.3,1-6.1,3-8.3
		c2-2.2,4.3-3.3,7-3.3c3.1,0,5.5,0.9,7.1,2.8c1.6,1.9,2.4,4.4,2.4,7.6v2.6H71.3l-0.1,0.1c0,2.2,0.6,4.1,1.7,5.5
		c1.1,1.4,2.6,2.2,4.6,2.2c1.4,0,2.7-0.2,3.8-0.6c1.1-0.4,2-1,2.8-1.7l1.7,2.8c-0.8,0.8-1.9,1.5-3.3,2
		C81.1,291.2,79.4,291.5,77.5,291.5 M76.9,270.6c-1.4,0-2.6,0.6-3.6,1.8c-1,1.2-1.6,2.7-1.9,4.5l0,0.1h10.7v-0.6
		c0-1.7-0.4-3.1-1.3-4.2C79.9,271.2,78.6,270.6,76.9,270.6"/>
	<path id="XMLID_41_" class="st2" d="M91.2,270.9v-3.1h3.6v-2.9c0-2.5,0.6-4.4,1.9-5.8c1.3-1.4,3.1-2,5.4-2c0.5,0,1,0,1.5,0.1
		c0.5,0.1,1,0.2,1.6,0.3l-0.5,3.2c-0.3-0.1-0.6-0.1-0.9-0.2c-0.4,0-0.7-0.1-1.1-0.1c-1.2,0-2.2,0.4-2.8,1.1
		c-0.6,0.7-0.9,1.8-0.9,3.2v2.9h4.9v3.1H99v16.8l3.5,0.6v2.7H91.3v-2.7l3.5-0.6v-16.8H91.2z"/>
	<polygon id="XMLID_40_" class="st2" points="109.4,260.2 109.4,257.4 117.2,257.4 117.2,287.7 120.7,288.3 120.7,291 109.4,291 
		109.4,288.3 112.9,287.7 112.9,260.8 	"/>
	<path id="XMLID_37_" class="st2" d="M135.1,291.5c-3.2,0-5.8-1.1-7.7-3.2c-1.9-2.2-2.9-5-2.9-8.4v-0.9c0-3.3,1-6.1,3-8.3
		c2-2.2,4.3-3.3,7-3.3c3.1,0,5.5,0.9,7.1,2.8c1.6,1.9,2.4,4.4,2.4,7.6v2.6h-15.1l-0.1,0.1c0,2.2,0.6,4.1,1.7,5.5
		c1.1,1.4,2.6,2.2,4.6,2.2c1.4,0,2.7-0.2,3.8-0.6c1.1-0.4,2-1,2.8-1.7l1.7,2.8c-0.8,0.8-1.9,1.5-3.3,2
		C138.7,291.2,137,291.5,135.1,291.5 M134.4,270.6c-1.4,0-2.6,0.6-3.6,1.8c-1,1.2-1.6,2.7-1.9,4.5l0,0.1h10.7v-0.6
		c0-1.7-0.4-3.1-1.3-4.2C137.5,271.2,136.2,270.6,134.4,270.6"/>
	<path id="XMLID_36_" class="st2" d="M159.8,288.1c1.4,0,2.6-0.4,3.7-1.3c1.1-0.9,1.6-1.9,1.6-3.2h3.8l0,0.1c0.1,2-0.8,3.8-2.7,5.3
		c-1.9,1.6-4,2.3-6.5,2.3c-3.4,0-6-1.1-7.8-3.3c-1.8-2.2-2.7-5-2.7-8.3v-0.9c0-3.3,0.9-6.1,2.7-8.3c1.8-2.2,4.4-3.3,7.8-3.3
		c1.9,0,3.5,0.3,5,0.9c1.5,0.6,2.7,1.5,3.7,2.5l0.2,5.2h-3.4l-0.9-3.7c-0.5-0.5-1.1-0.9-1.9-1.2c-0.8-0.3-1.7-0.5-2.7-0.5
		c-2.2,0-3.8,0.8-4.8,2.4c-1,1.6-1.4,3.6-1.4,5.9v0.9c0,2.4,0.5,4.4,1.4,6C156,287.4,157.6,288.1,159.8,288.1"/>
	<path id="XMLID_35_" class="st2" d="M181.8,262.1v5.6h4.4v3.1h-4.4V285c0,1.1,0.2,1.9,0.7,2.3c0.5,0.4,1.1,0.7,1.8,0.7
		c0.4,0,0.8,0,1.3-0.1c0.5-0.1,0.9-0.1,1.2-0.2l0.6,2.9c-0.4,0.3-1,0.5-1.8,0.6c-0.8,0.2-1.5,0.2-2.3,0.2c-1.7,0-3.1-0.5-4.1-1.6
		c-1-1-1.5-2.7-1.5-4.9v-14.1h-3.7v-3.1h3.7v-5.6H181.8z"/>
	<path id="XMLID_32_" class="st2" d="M192.3,288.3l3.5-0.6v-16.6l-3.5-0.6v-2.7h7.7v20l3.5,0.6v2.7h-11.3V288.3z M200,261.8h-4.2
		v-4.3h4.2V261.8z"/>
	<path id="XMLID_29_" class="st2" d="M207.4,279.1c0-3.4,0.9-6.3,2.8-8.5c1.9-2.2,4.4-3.3,7.6-3.3c3.2,0,5.8,1.1,7.6,3.3
		c1.9,2.2,2.8,5.1,2.8,8.5v0.5c0,3.5-0.9,6.3-2.8,8.5c-1.9,2.2-4.4,3.3-7.6,3.3c-3.2,0-5.8-1.1-7.6-3.3c-1.9-2.2-2.8-5.1-2.8-8.5
		V279.1z M211.6,279.6c0,2.5,0.5,4.5,1.6,6.1c1,1.6,2.6,2.4,4.6,2.4c2,0,3.5-0.8,4.6-2.4c1-1.6,1.6-3.6,1.6-6.1v-0.5
		c0-2.4-0.5-4.5-1.6-6.1c-1-1.6-2.6-2.4-4.6-2.4c-2,0-3.6,0.8-4.6,2.4c-1,1.6-1.5,3.7-1.5,6.1V279.6z"/>
	<path id="XMLID_28_" class="st2" d="M232.1,288.3l3.5-0.6v-16.6l-3.5-0.6v-2.7h7.3l0.3,3.5c0.8-1.2,1.7-2.2,2.9-2.9
		c1.2-0.7,2.5-1,4-1c2.5,0,4.5,0.7,5.8,2.2c1.4,1.5,2.1,3.7,2.1,6.8v11.4l3.5,0.6v2.7h-11.3v-2.7l3.5-0.6v-11.3
		c0-2.1-0.4-3.5-1.2-4.4c-0.8-0.9-2-1.3-3.7-1.3c-1.2,0-2.3,0.3-3.2,0.9s-1.7,1.4-2.2,2.4v13.7l3.5,0.6v2.7h-11.3V288.3z"/>
	<path id="XMLID_27_" class="st2" d="M280.3,275h-3.2l-0.7-2.8c-0.5-0.5-1.2-0.9-1.9-1.2c-0.8-0.3-1.7-0.4-2.7-0.4
		c-1.5,0-2.6,0.3-3.4,1c-0.7,0.7-1.1,1.5-1.1,2.4c0,0.9,0.3,1.6,1,2.2c0.6,0.5,2,1,3.9,1.4c2.9,0.6,5.1,1.5,6.6,2.6
		c1.4,1.1,2.2,2.5,2.2,4.4c0,2.1-0.8,3.7-2.5,5c-1.7,1.3-3.9,1.9-6.6,1.9c-1.8,0-3.4-0.2-4.8-0.6c-1.4-0.4-2.7-1-3.8-1.8l0-5.3h3.2
		l0.8,3.1c0.5,0.4,1.2,0.8,2,1c0.8,0.2,1.7,0.3,2.6,0.3c1.5,0,2.7-0.3,3.5-0.9c0.9-0.6,1.3-1.4,1.3-2.4c0-0.9-0.4-1.7-1.1-2.3
		c-0.7-0.6-2.1-1.1-4-1.6c-2.8-0.6-5-1.5-6.4-2.5c-1.4-1.1-2.2-2.5-2.2-4.3c0-1.9,0.8-3.5,2.4-4.8c1.6-1.3,3.7-2,6.3-2
		c1.8,0,3.4,0.2,4.8,0.7c1.4,0.5,2.6,1.1,3.5,1.9L280.3,275z"/>
	<path id="XMLID_24_" class="st2" d="M719.1,297.6l3.5-0.6v-25.6l-3.5-0.6v-2.7h7.1l0.4,2.8c0.8-1.1,1.7-1.9,2.8-2.4
		c1.1-0.6,2.4-0.8,3.9-0.8c2.9,0,5.1,1.1,6.7,3.4c1.6,2.3,2.4,5.3,2.4,9.1v0.5c0,3.4-0.8,6.1-2.4,8.1c-1.6,2.1-3.8,3.1-6.7,3.1
		c-1.4,0-2.7-0.2-3.8-0.7c-1.1-0.5-2-1.2-2.8-2.1v8l3.5,0.6v2.7h-11.3V297.6z M738.2,280.2c0-2.7-0.5-4.8-1.5-6.5
		c-1-1.7-2.6-2.5-4.6-2.5c-1.2,0-2.2,0.3-3.1,0.8c-0.9,0.5-1.6,1.3-2.1,2.2v11.3c0.5,1,1.2,1.7,2.1,2.2c0.9,0.5,1.9,0.8,3.2,0.8
		c2,0,3.5-0.7,4.6-2.2c1-1.5,1.5-3.4,1.5-5.7V280.2z"/>
	<path id="XMLID_23_" class="st2" d="M746.8,270.8v-2.7h7.3l0.4,3.4c0.7-1.2,1.5-2.1,2.4-2.8c1-0.7,2.1-1,3.3-1c0.3,0,0.7,0,1,0.1
		c0.4,0.1,0.6,0.1,0.8,0.2l-0.6,3.9l-2.4-0.1c-1.1,0-2.1,0.3-2.8,0.8c-0.8,0.5-1.3,1.3-1.8,2.2v13.4l3.5,0.6v2.7h-11.3v-2.7l3.5-0.6
		v-16.6L746.8,270.8z"/>
	<path id="XMLID_20_" class="st2" d="M765.7,279.5c0-3.4,0.9-6.3,2.8-8.5c1.9-2.2,4.4-3.3,7.6-3.3c3.2,0,5.8,1.1,7.6,3.3
		c1.9,2.2,2.8,5.1,2.8,8.5v0.5c0,3.5-0.9,6.3-2.8,8.5c-1.9,2.2-4.4,3.3-7.6,3.3c-3.2,0-5.8-1.1-7.6-3.3c-1.9-2.2-2.8-5.1-2.8-8.5
		V279.5z M769.9,280c0,2.5,0.5,4.5,1.6,6.1c1,1.6,2.6,2.4,4.6,2.4c2,0,3.5-0.8,4.6-2.4c1-1.6,1.6-3.6,1.6-6.1v-0.5
		c0-2.4-0.5-4.5-1.6-6.1c-1-1.6-2.6-2.4-4.6-2.4c-2,0-3.6,0.8-4.6,2.4c-1,1.6-1.5,3.7-1.5,6.1V280z"/>
	<path id="XMLID_17_" class="st2" d="M798,293.3c0,2.4-0.6,4.2-1.9,5.5c-1.2,1.3-2.9,1.9-5.1,1.9c-0.5,0-0.9,0-1.2-0.1
		c-0.4-0.1-0.8-0.2-1.2-0.3l0.3-3.3c0.2,0.1,0.5,0.1,0.9,0.2c0.4,0.1,0.7,0.1,0.9,0.1c0.9,0,1.7-0.3,2.2-0.9
		c0.6-0.6,0.8-1.7,0.8-3.1v-21.9l-3.5-0.6v-2.7h7.8V293.3z M797.9,262.1h-4.2v-4.2h4.2V262.1z"/>
	<path id="XMLID_14_" class="st2" d="M815,291.8c-3.2,0-5.8-1.1-7.7-3.2c-1.9-2.2-2.9-5-2.9-8.4v-0.9c0-3.3,1-6.1,3-8.3
		c2-2.2,4.3-3.3,7-3.3c3.1,0,5.5,0.9,7.1,2.8c1.6,1.9,2.4,4.4,2.4,7.6v2.6h-15.1l-0.1,0.1c0,2.2,0.6,4.1,1.7,5.5
		c1.1,1.4,2.6,2.2,4.6,2.2c1.4,0,2.7-0.2,3.8-0.6c1.1-0.4,2-1,2.8-1.7l1.7,2.8c-0.8,0.8-1.9,1.5-3.3,2
		C818.6,291.6,817,291.8,815,291.8 M814.4,271c-1.4,0-2.6,0.6-3.6,1.8c-1,1.2-1.6,2.7-1.9,4.5l0,0.1h10.7v-0.6
		c0-1.7-0.4-3.1-1.3-4.2C817.5,271.6,816.1,271,814.4,271"/>
	<path id="XMLID_13_" class="st2" d="M839.8,288.5c1.4,0,2.6-0.4,3.7-1.3c1.1-0.9,1.6-1.9,1.6-3.2h3.8l0,0.1c0.1,2-0.8,3.8-2.7,5.3
		c-1.9,1.6-4,2.3-6.5,2.3c-3.4,0-6-1.1-7.8-3.3c-1.8-2.2-2.7-5-2.7-8.3v-0.9c0-3.3,0.9-6.1,2.7-8.3c1.8-2.2,4.4-3.3,7.8-3.3
		c1.9,0,3.5,0.3,5,0.9c1.5,0.6,2.7,1.5,3.7,2.5l0.2,5.2h-3.4l-0.9-3.7c-0.5-0.5-1.1-0.9-1.9-1.2c-0.8-0.3-1.7-0.5-2.7-0.5
		c-2.2,0-3.8,0.8-4.8,2.4c-1,1.6-1.4,3.6-1.4,5.9v0.9c0,2.4,0.5,4.4,1.4,6C835.9,287.7,837.5,288.5,839.8,288.5"/>
	<path id="XMLID_12_" class="st2" d="M861.8,262.5v5.6h4.4v3.1h-4.4v14.1c0,1.1,0.2,1.9,0.7,2.3c0.5,0.4,1.1,0.7,1.8,0.7
		c0.4,0,0.8,0,1.3-0.1c0.5-0.1,0.9-0.1,1.2-0.2l0.6,2.9c-0.4,0.3-1,0.5-1.8,0.6c-0.8,0.2-1.5,0.2-2.3,0.2c-1.7,0-3.1-0.5-4.1-1.6
		c-1-1-1.5-2.7-1.5-4.9v-14.1h-3.7v-3.1h3.7v-5.6H861.8z"/>
	<path id="XMLID_9_" class="st2" d="M872.2,288.7l3.5-0.6v-16.6l-3.5-0.6v-2.7h7.7v20l3.5,0.6v2.7h-11.3V288.7z M880,262.1h-4.2
		v-4.3h4.2V262.1z"/>
	<path id="XMLID_6_" class="st2" d="M887.3,279.5c0-3.4,0.9-6.3,2.8-8.5c1.9-2.2,4.4-3.3,7.6-3.3c3.2,0,5.8,1.1,7.6,3.3
		c1.9,2.2,2.8,5.1,2.8,8.5v0.5c0,3.5-0.9,6.3-2.8,8.5c-1.9,2.2-4.4,3.3-7.6,3.3c-3.2,0-5.8-1.1-7.6-3.3c-1.9-2.2-2.8-5.1-2.8-8.5
		V279.5z M891.5,280c0,2.5,0.5,4.5,1.6,6.1c1,1.6,2.6,2.4,4.6,2.4c2,0,3.5-0.8,4.6-2.4c1-1.6,1.6-3.6,1.6-6.1v-0.5
		c0-2.4-0.5-4.5-1.6-6.1c-1-1.6-2.6-2.4-4.6-2.4c-2,0-3.6,0.8-4.6,2.4c-1,1.6-1.5,3.7-1.5,6.1V280z"/>
	<path id="XMLID_5_" class="st2" d="M912.1,288.7l3.5-0.6v-16.6l-3.5-0.6v-2.7h7.3l0.3,3.5c0.8-1.2,1.7-2.2,2.9-2.9
		c1.2-0.7,2.5-1,4-1c2.5,0,4.5,0.7,5.8,2.2c1.4,1.5,2.1,3.7,2.1,6.8v11.4l3.5,0.6v2.7h-11.3v-2.7l3.5-0.6v-11.3
		c0-2.1-0.4-3.5-1.2-4.4c-0.8-0.9-2-1.3-3.7-1.3c-1.2,0-2.3,0.3-3.2,0.9c-0.9,0.6-1.7,1.4-2.2,2.4v13.7l3.5,0.6v2.7h-11.3V288.7z"/>
	<path id="XMLID_4_" class="st2" d="M960.2,275.4H957l-0.7-2.8c-0.5-0.5-1.2-0.9-1.9-1.2c-0.8-0.3-1.7-0.4-2.7-0.4
		c-1.5,0-2.6,0.3-3.4,1c-0.7,0.7-1.1,1.5-1.1,2.4c0,0.9,0.3,1.6,1,2.2c0.6,0.5,2,1,3.9,1.4c2.9,0.6,5.1,1.5,6.6,2.6
		c1.4,1.1,2.2,2.5,2.2,4.4c0,2.1-0.8,3.7-2.5,5c-1.7,1.3-3.9,1.9-6.6,1.9c-1.8,0-3.4-0.2-4.8-0.6c-1.4-0.4-2.7-1-3.8-1.8l0-5.3h3.2
		l0.8,3.1c0.5,0.4,1.2,0.8,2,1c0.8,0.2,1.7,0.3,2.6,0.3c1.5,0,2.7-0.3,3.5-0.9c0.9-0.6,1.3-1.4,1.3-2.4c0-0.9-0.4-1.7-1.1-2.3
		c-0.7-0.6-2.1-1.1-4-1.6c-2.8-0.6-5-1.5-6.4-2.5c-1.4-1.1-2.2-2.5-2.2-4.3c0-1.9,0.8-3.5,2.4-4.8c1.6-1.3,3.7-2,6.3-2
		c1.8,0,3.4,0.2,4.8,0.7c1.4,0.5,2.6,1.1,3.5,1.9L960.2,275.4z"/>
</g>
</svg>
