<svg id="Layer_1" data-name="Layer 1" xmlns="http://www.w3.org/2000/svg" viewBox="0 0 1506 985.09">
  <defs>
    <style>
      .cls-1 {
        opacity: 0.15;
      }

      .cls-10, .cls-11, .cls-12, .cls-13, .cls-14, .cls-15, .cls-16, .cls-17, .cls-18, .cls-19, .cls-2, .cls-20, .cls-21, .cls-22, .cls-23, .cls-24, .cls-25, .cls-26, .cls-27, .cls-28, .cls-29, .cls-3, .cls-30, .cls-31, .cls-32, .cls-33, .cls-34, .cls-35, .cls-36, .cls-37, .cls-38, .cls-39, .cls-4, .cls-40, .cls-41, .cls-42, .cls-43, .cls-44, .cls-45, .cls-46, .cls-47, .cls-48, .cls-49, .cls-5, .cls-50, .cls-51, .cls-52, .cls-53, .cls-6, .cls-7, .cls-8, .cls-9 {
        fill: none;
      }

      .cls-2 {
        stroke: #fff;
      }

      .cls-10, .cls-11, .cls-12, .cls-13, .cls-14, .cls-15, .cls-16, .cls-17, .cls-18, .cls-19, .cls-2, .cls-20, .cls-21, .cls-22, .cls-23, .cls-24, .cls-25, .cls-26, .cls-27, .cls-28, .cls-29, .cls-30, .cls-31, .cls-32, .cls-33, .cls-34, .cls-35, .cls-36, .cls-37, .cls-38, .cls-39, .cls-40, .cls-41, .cls-42, .cls-43, .cls-44, .cls-45, .cls-46, .cls-47, .cls-48, .cls-49, .cls-50, .cls-51, .cls-52, .cls-53, .cls-6, .cls-7, .cls-9 {
        stroke-miterlimit: 10;
      }

      .cls-3 {
        stroke: #fcfcfc;
      }

      .cls-3, .cls-4, .cls-5 {
        stroke-miterlimit: 10;
      }

      .cls-4 {
        stroke: #f8f8f8;
      }

      .cls-5 {
        stroke: #f5f5f5;
      }

      .cls-6 {
        stroke: #f1f1f1;
      }

      .cls-7 {
        stroke: #eee;
      }

      .cls-8 {
        stroke: #eaeaea;
        stroke-miterlimit: 10;
      }

      .cls-9 {
        stroke: #e7e7e7;
      }

      .cls-10 {
        stroke: #e3e3e3;
      }

      .cls-11 {
        stroke: #e0e0e0;
      }

      .cls-12 {
        stroke: #dcdcdc;
      }

      .cls-13 {
        stroke: #d9d9d9;
      }

      .cls-14 {
        stroke: #d5d5d5;
      }

      .cls-15 {
        stroke: #d2d2d2;
      }

      .cls-16 {
        stroke: #cecece;
      }

      .cls-17 {
        stroke: #cbcbcb;
      }

      .cls-18 {
        stroke: #c7c7c7;
      }

      .cls-19 {
        stroke: #c4c4c4;
      }

      .cls-20 {
        stroke: silver;
      }

      .cls-21 {
        stroke: #bdbdbd;
      }

      .cls-22 {
        stroke: #b9b9b9;
      }

      .cls-23 {
        stroke: #b6b6b6;
      }

      .cls-24 {
        stroke: #b2b2b2;
      }

      .cls-25 {
        stroke: #afafaf;
      }

      .cls-26 {
        stroke: #ababab;
      }

      .cls-27 {
        stroke: #a8a8a8;
      }

      .cls-28 {
        stroke: #a4a4a4;
      }

      .cls-29 {
        stroke: #a1a1a1;
      }

      .cls-30 {
        stroke: #9d9d9d;
      }

      .cls-31 {
        stroke: #9a9a9a;
      }

      .cls-32 {
        stroke: #969696;
      }

      .cls-33 {
        stroke: #939393;
      }

      .cls-34 {
        stroke: #8f8f8f;
      }

      .cls-35 {
        stroke: #8c8c8c;
      }

      .cls-36 {
        stroke: #888;
      }

      .cls-37 {
        stroke: #858585;
      }

      .cls-38 {
        stroke: #818181;
      }

      .cls-39 {
        stroke: #7e7e7e;
      }

      .cls-40 {
        stroke: #7a7a7a;
      }

      .cls-41 {
        stroke: #777;
      }

      .cls-42 {
        stroke: #737373;
      }

      .cls-43 {
        stroke: #707070;
      }

      .cls-44 {
        stroke: #6c6c6c;
      }

      .cls-45 {
        stroke: #696969;
      }

      .cls-46 {
        stroke: #656565;
      }

      .cls-47 {
        stroke: #626262;
      }

      .cls-48 {
        stroke: #5e5e5e;
      }

      .cls-49 {
        stroke: #5b5b5b;
      }

      .cls-50 {
        stroke: #575757;
      }

      .cls-51 {
        stroke: #545454;
      }

      .cls-52 {
        stroke: #505050;
      }

      .cls-53 {
        stroke: #4d4d4d;
      }
    </style>
  </defs>
  <title>spectra_background</title>
  <g class="cls-1">
    <path class="cls-2" d="M1513.75,148.76S174.56-62.35,2,234.1C-100.64,410.55,323.6,1024.71,524.32,987.39c92.27-17.15-216.89-360.17-80.22-449.1C864,265.06,1469.46,989.12,1469.46,989.12"/>
    <path class="cls-3" d="M1513.69,159.14S189.28-60.94,15.1,229.33c-104.35,173.89,301.06,791.51,501,758.1C607.87,972,319.48,629.27,458.38,539.48c414-269.11,1003.72,449.87,1003.72,449.87"/>
    <path class="cls-4" d="M1513.64,169.52S203.95-59.53,28.16,224.56c-106,171.35,280.57,792.42,479.65,762.9,91.35-13.74-176.06-355.8-35.16-446.79,408.75-264,982.08,448.91,982.08,448.91"/>
    <path class="cls-5" d="M1513.58,179.9s-1295-238-1472.37,39.88C-66.53,388.61,301.29,1013.11,499.56,987.49c90.88-12-155.65-353.62-12.63-445.64,403.13-259.38,960.44,448,960.44,448"/>
    <path class="cls-6" d="M1513.53,190.28S233.13-56.68,54.27,215c-109.48,166.31,239.63,794.65,437,772.51C581.75,977.39,356.07,636.09,501.2,543,898.68,288.22,1440,990,1440,990"/>
    <path class="cls-7" d="M1513.48,200.67S247.64-55.25,67.33,210.24C-43.92,374.05,286.47,1005.89,483.05,987.56c90-8.39-114.83-349.26,32.42-443.33,391.81-250.3,917.15,446,917.15,446"/>
    <path class="cls-8" d="M1513.42,211S262.08-53.82,80.39,205.47C-32.65,366.8,279,1002.12,474.8,987.6c89.52-6.64-94.42-347.09,54.95-442.18,386.12-245.81,895.51,445.09,895.51,445.09"/>
    <path class="cls-9" d="M1513.37,221.43S276.46-52.4,93.45,200.7C-21.42,359.56,271.59,998.35,466.55,987.63c89.05-4.89-74-344.91,77.48-441,380.41-241.35,873.87,444.14,873.87,444.14"/>
    <path class="cls-10" d="M1513.32,231.81S290.79-51,106.51,195.93C-10.22,352.33,264.14,994.57,458.29,987.66c88.58-3.15-53.62-342.74,100-439.88C933,310.88,1410.53,991,1410.53,991"/>
    <path class="cls-11" d="M1513.26,242.19S305-49.56,119.56,191.16C.94,345.11,256.69,990.78,450,987.7c88.11-1.41-33.22-340.57,122.53-438.72,368.94-232.5,830.59,442.23,830.59,442.23"/>
    <path class="cls-12" d="M1513.21,252.57S319.23-48.15,132.62,186.39C12.08,337.89,249.24,988.92,441.79,987.73c87.64-.54-12.82-338.41,145.06-437.57C950,322.05,1395.79,991.43,1395.79,991.43"/>
    <path class="cls-13" d="M1513.15,263S333.36-46.76,145.68,181.62C23.17,330.69,241.78,983.2,433.53,987.77c87.17,2.07,7.58-336.24,167.59-436.42,357.4-223.75,787.3,440.32,787.3,440.32"/>
    <path class="cls-14" d="M1513.1,273.33S347.41-45.38,158.74,176.84c-124.5,146.64,75.58,802.56,266.54,811,86.7,3.81,28-334.08,190.11-435.27C967,333.13,1381.06,991.9,1381.06,991.9"/>
    <path class="cls-15" d="M1513,283.71S361.4-44,171.8,172.07C45.26,316.28,226.86,975.6,417,987.83c86.22,5.54,48.36-331.93,212.64-434.11,345.8-215.09,744,438.41,744,438.41"/>
    <path class="cls-16" d="M1513,294.09S375.32-42.68,184.85,167.3C56.25,309.08,219.39,971.8,408.78,987.87c85.75,7.28,68.75-329.77,235.17-433,340-210.8,722.38,437.45,722.38,437.45"/>
    <path class="cls-17" d="M1512.94,304.47S389.17-41.36,197.91,162.53C67.2,301.88,211.93,968,400.52,987.9c85.27,9,89.13-327.62,257.7-431.81C992.36,349.57,1359,992.59,1359,992.59"/>
    <path class="cls-18" d="M1512.89,314.85S402.95-40.07,211,157.76c-132.86,136.92-6.51,806.41,181.3,830.18,84.79,10.73,109.51-325.47,280.22-430.66,328.29-202.27,679.1,435.54,679.1,435.54"/>
    <path class="cls-19" d="M1512.83,325.23S416.65-38.81,224,153C89,287.46,197,960.34,384,988c84.32,12.46,129.89-323.33,302.75-429.5,322.42-198,657.45,434.58,657.45,434.58"/>
    <path class="cls-20" d="M1512.78,335.62S430.29-37.59,237.09,148.22C99.81,280.23,189.51,956.51,375.76,988,459.6,1002.18,526,666.81,701,559.65c316.55-193.83,635.81,433.63,635.81,433.63"/>
    <path class="cls-21" d="M1512.72,346S443.87-36.4,250.14,143.44C110.6,273,182,952.67,367.51,988c83.36,15.89,170.64-319.05,347.81-427.2C1026,371.21,1329.49,993.51,1329.49,993.51"/>
    <path class="cls-22" d="M1512.67,356.38S457.37-35.25,263.2,138.67c-141.86,127.07-88.63,810.16,96.05,849.4,82.88,17.61,191-316.92,370.33-426,304.76-185.46,592.53,431.72,592.53,431.72"/>
    <path class="cls-23" d="M1512.62,366.76S470.81-34.14,276.26,133.9C132.05,258.46,167.1,945,351,988.11c82.4,19.32,211.38-314.8,392.86-424.89C1042.72,381.92,1314.75,994,1314.75,994"/>
    <path class="cls-24" d="M1512.56,377.14S484.19-33.08,289.32,129.13c-146.6,122-129.69,812,53.43,859,81.92,21,231.74-312.68,415.39-423.74,292.93-177.15,549.25,429.81,549.25,429.81"/>
    <path class="cls-25" d="M1512.51,387.52S497.5-32.07,302.38,124.36c-149,119.48-150.22,812.9,32.12,863.81,81.44,22.74,252.1-310.56,437.92-422.59,287-173,527.6,428.85,527.6,428.85"/>
    <path class="cls-26" d="M1512.46,397.9s-1001.7-429-1197-278.31c-151.5,116.89-170.75,813.81,10.81,868.62,81,24.44,272.46-308.46,460.44-421.43,281.06-168.92,506,427.9,506,427.9"/>
    <path class="cls-27" d="M1512.4,408.28S524-30.2,328.49,114.82c-154,114.27-191.28,814.7-10.5,873.42C398.48,1014.39,610.8,681.89,801,568c275.12-164.82,484.32,426.94,484.32,426.94"/>
    <path class="cls-28" d="M1512.35,418.66S537.1-29.35,341.55,110C185,221.65,129.75,925.64,309.74,988.27c80,27.84,313.15-304.26,505.5-419.13,269.16-160.74,462.68,426,462.68,426"/>
    <path class="cls-29" d="M1512.29,429S550.19-28.56,354.61,105.27c-159.15,108.9-232.32,816.48-53.12,883,79.54,29.54,333.49-302.17,528-418,263.19-156.68,441,425,441,425"/>
    <path class="cls-30" d="M1512.24,439.42S563.24-27.82,367.67,100.5C205.89,206.66,114.82,917.86,293.23,988.34c79.07,31.23,353.83-300.09,550.55-416.82,257.21-152.62,419.4,424.08,419.4,424.08"/>
    <path class="cls-31" d="M1512.19,449.8S576.24-27.15,380.73,95.73C216.29,199.08,107.37,914,285,988.38c78.59,32.93,374.16-298,573.08-415.67,251.23-148.59,397.75,423.12,397.75,423.12"/>
    <path class="cls-32" d="M1512.13,460.19S589.21-26.55,393.78,91C226.66,191.45,99.91,910.07,276.73,988.41c78.12,34.61,394.49-296,595.61-414.52,245.24-144.56,376.11,422.16,376.11,422.16"/>
    <path class="cls-33" d="M1512.08,470.57S602.14-26,406.84,86.19C237,183.77,92.46,906.16,268.47,988.44c77.65,36.3,414.81-293.91,618.14-413.37,239.24-140.55,354.47,421.21,354.47,421.21"/>
    <path class="cls-34" d="M1512,480.95S615-25.54,419.9,81.42C247.3,176,85,902.25,260.22,988.48c77.19,38,435.12-291.87,640.66-412.21,233.23-136.55,332.83,420.25,332.83,420.25"/>
    <path class="cls-35" d="M1512,491.33S627.92-25.13,433,76.65C257.58,168.2,77.57,898.33,252,988.51c76.72,39.67,455.43-289.85,663.19-411.06,227.22-132.56,311.19,419.3,311.19,419.3"/>
    <path class="cls-36" d="M1511.92,501.71S640.78-24.79,446,71.88C267.84,160.31,70.13,894.42,243.72,988.55,320,1029.9,719.44,700.71,929.44,578.64,1150.63,450.05,1219,997,1219,997"/>
    <path class="cls-37" d="M1511.86,512.09S653.63-24.53,459.07,67.1c-181,85.25-396.38,823.39-223.61,921.48,75.79,43,496-285.84,708.25-408.76,215.17-124.62,267.9,417.39,267.9,417.39"/>
    <path class="cls-38" d="M1511.81,522.47S666.46-24.33,472.13,62.33c-183.84,82-416.86,824.23-244.92,926.28C302.54,1033.32,743.51,704.76,958,581c209.13-120.67,246.26,416.43,246.26,416.43"/>
    <path class="cls-39" d="M1511.76,532.85S679.3-24.2,485.19,57.56C298.5,136.2,47.84,882.64,219,988.65,293.83,1035,755.53,706.76,972.26,582.2c203.09-116.73,224.62,415.48,224.62,415.48"/>
    <path class="cls-40" d="M1511.7,543.23S692.13-24.13,498.25,52.79C308.7,128,40.42,878.7,210.7,988.68c74.42,48.06,556.83-279.94,775.83-405.3,197-112.8,203,414.52,203,414.52"/>
    <path class="cls-41" d="M1511.65,553.61S705-24.14,511.31,48C318.89,119.71,33,874.77,202.45,988.72c74,49.74,577.08-278,798.36-404.15,191-108.88,181.34,413.57,181.34,413.57"/>
    <path class="cls-42" d="M1511.6,564S717.83-24.21,524.36,43.25C329.09,111.34,25.6,870.83,194.2,988.75c73.51,51.41,597.32-276.11,820.89-403,184.94-105,159.7,412.61,159.7,412.61"/>
    <path class="cls-43" d="M1511.54,574.37S730.7-24.35,537.42,38.48C339.28,102.88,18.19,866.89,185.95,988.78c73.06,53.09,617.54-274.23,843.41-401.84,178.88-101.07,138.05,411.66,138.05,411.66"/>
    <path class="cls-44" d="M1511.49,584.75s-767.89-609.3-961-551C349.48,94.33,10.79,863,177.69,988.82c72.62,54.76,637.75-272.38,865.94-400.69C1216.45,491,1160,998.83,1160,998.83"/>
    <path class="cls-45" d="M1511.43,595.14S756.52-24.81,563.54,28.93C359.7,85.7,3.39,859,169.44,988.85c72.17,56.43,657.94-270.56,888.47-399.54,166.75-93.3,94.77,409.74,94.77,409.74"/>
    <path class="cls-46" d="M1511.38,605.52S769.47-25.12,576.6,24.16C369.93,77-4,855.07,161.19,988.89c71.73,58.11,678.12-268.77,911-398.38,160.67-89.42,73.13,408.79,73.13,408.79"/>
    <path class="cls-47" d="M1511.33,615.9S782.47-25.5,589.66,19.39c-209.47,48.77-601,831.74-436.72,969.53,71.29,59.78,698.27-267,933.52-397.23,154.59-85.56,51.49,407.83,51.49,407.83"/>
    <path class="cls-48" d="M1511.27,626.28S795.5-25.93,602.71,14.62C390.46,59.26-18.77,847.18,144.68,989c70.85,61.45,718.4-265.33,956.05-396.08,148.51-81.71,29.85,406.88,29.85,406.88"/>
    <path class="cls-49" d="M1511.22,636.66S808.59-26.41,615.77,9.85C400.77,50.28-25.87,842.94,136.43,989,207,1052,874.93,725.31,1115,594.06c142.43-77.87,8.2,405.92,8.2,405.92"/>
    <path class="cls-50" d="M1511.17,647s-689.45-674-882.34-642C411.11,41.21-33.31,839.07,128.17,989c70.06,64.69,758.58-262.08,1001.11-393.77,136.34-74-13.44,405-13.44,405"/>
    <path class="cls-51" d="M1511.11,657.42S834.91-27.5,641.89.31c-220.4,31.75-682.63,834.89-522,988.75,69.6,66.4,778.62-260.55,1023.63-392.62,130.25-70.21-35.08,404-35.08,404"/>
    <path class="cls-52" d="M1511.06,667.8S848.15-28.12,654.95-4.47c-223,27.3-703.13,835.8-543.28,993.55,69.14,68.11,798.62-259.1,1046.16-391.47,124.16-66.39-56.72,403.06-56.72,403.06"/>
    <path class="cls-53" d="M1511,678.18S861.45-28.77,668-9.24C442.38,13.54-55.62,827.47,103.42,989.12,172.09,1058.93,922,731.38,1172.1,598.81c118.07-62.58-78.36,402.1-78.36,402.1"/>
  </g>
</svg>
