<svg id="Layer_1" data-name="Layer 1" xmlns="http://www.w3.org/2000/svg" viewBox="0 0 509 833">
  <defs>
    <style>
      .cls-1 {
        fill: #a01d21;
      }

      .cls-2 {
        fill: none;
      }

      .cls-3 {
        fill: #cb2027;
      }

      .cls-4 {
        fill: #fff;
      }

      .cls-5 {
        fill: #8f191c;
      }

      .cls-6 {
        fill: #b32024;
      }

      .cls-7 {
        fill: #e81d29;
      }

      .cls-8 {
        fill: #7a1216;
      }

      .cls-9 {
        fill: #9e1d20;
      }
    </style>
  </defs>
  <title>narrow_web</title>
  <g>
    <path class="cls-1" d="M130.34,253.36a60.45,60.45,0,0,1,34.18-31.91,130,130,0,0,1-39.3-89.17A120.55,120.55,0,0,0,16.79,211.64a60.64,60.64,0,0,0,113.56,41.72Z"/>
    <path class="cls-2" d="M246.23,276.47c0-.08,0-.17,0-.25C246.23,276.31,246.23,276.39,246.23,276.47Z"/>
    <path class="cls-2" d="M246,284.18c0-.1,0-.2,0-.3C246,284,246,284.09,246,284.18Z"/>
    <path class="cls-3" d="M245.55,287.57a60.55,60.55,0,0,1-4.62,15.6A121.29,121.29,0,1,1,19.75,203.55a60.65,60.65,0,0,0,110.59,49.81,60.45,60.45,0,0,1,34.18-31.91,130,130,0,0,0,78.22,36.5h0c2.58.25,5.2.41,7.82.51a120.94,120.94,0,0,1-5,29.35C245.54,287.73,245.54,287.65,245.55,287.57Z"/>
    <path class="cls-4" d="M255.53,258.58q-3.34,0-6.64-.17A118.67,118.67,0,1,1,125.29,134.81q-.17-3.3-.17-6.64c0-1.71.06-3.4.13-5.1C55.69,125.76-.07,183.15-.07,253.36A130.56,130.56,0,0,0,130.34,383.77c70.2,0,127.6-55.76,130.29-125.32C258.94,258.52,257.24,258.58,255.53,258.58Z"/>
    <path class="cls-5" d="M253.9,129.95a60.45,60.45,0,0,1,31.91,34.18A130,130,0,0,1,375,124.83,120.55,120.55,0,0,0,295.61,16.39,60.64,60.64,0,0,0,253.9,129.95Z"/>
    <path class="cls-2" d="M230.79,245.82h0Z"/>
    <path class="cls-2" d="M223.08,245.56l.3,0Z"/>
    <path class="cls-6" d="M219.69,245.14a60.55,60.55,0,0,1-15.6-4.62A121.29,121.29,0,1,1,303.71,19.33,60.65,60.65,0,0,0,253.9,129.93a60.45,60.45,0,0,1,31.91,34.18,130,130,0,0,0-36.5,78.22h0c-.25,2.59-.41,5.2-.51,7.82a120.94,120.94,0,0,1-29.35-5Z"/>
    <path class="cls-4" d="M248.68,255.12q0-3.34.17-6.64A118.67,118.67,0,0,1,253.9,11.25c63.74,0,115.89,50.67,118.55,113.77q3.3-.17,6.64-.17c1.71,0,3.4.06,5.1.13C381.5,55.42,324.11-.49,253.9-.49A130.56,130.56,0,0,0,123.49,129.93c0,70.2,55.76,127.6,125.32,130.29C248.74,258.52,248.68,256.82,248.68,255.12Z"/>
    <path class="cls-6" d="M255.42,378.75a60.45,60.45,0,0,1-31.91-34.18,129.82,129.82,0,0,1-89.15,39.14A120.51,120.51,0,0,0,213.71,492.3a60.64,60.64,0,0,0,41.72-113.56Z"/>
    <path class="cls-2" d="M278.54,262.86h0Z"/>
    <path class="cls-2" d="M286.25,263.11l-.3,0Z"/>
    <path class="cls-7" d="M289.63,263.54a60.55,60.55,0,0,1,15.6,4.62,121.29,121.29,0,1,1-99.62,221.19,60.65,60.65,0,0,0,49.81-110.59,60.45,60.45,0,0,1-31.91-34.18A130,130,0,0,0,260,266.35h0c.25-2.59.41-5.2.51-7.82a120.94,120.94,0,0,1,29.35,5Z"/>
    <path class="cls-4" d="M260.51,260.14a24.14,24.14,0,0,1-11.66,0,22.47,22.47,0,0,1,0-11.66,17.66,17.66,0,0,1,11.66,0,15.94,15.94,0,0,1,0,11.66Z"/>
    <path class="cls-8" d="M378.94,255.23a60.45,60.45,0,0,1-34.18,31.91,130,130,0,0,1,39.3,89.17A120.55,120.55,0,0,0,492.5,296.95a60.64,60.64,0,0,0-113.56-41.72Z"/>
    <path class="cls-2" d="M263.05,232.11c0,.08,0,.17,0,.25C263.06,232.28,263.06,232.19,263.05,232.11Z"/>
    <path class="cls-2" d="M263.31,224.4c0,.1,0,.2,0,.3C263.28,224.6,263.3,224.5,263.31,224.4Z"/>
    <path class="cls-9" d="M263.73,221a60.55,60.55,0,0,1,4.62-15.6A121.29,121.29,0,1,1,489.54,305a60.65,60.65,0,0,0-110.59-49.81,60.45,60.45,0,0,1-34.18,31.91,130,130,0,0,0-78.22-36.5h0c-2-.2-4.09-.34-6.16-.44-.56,0,0-1-.51-1,0-.66-1.09-.37-1-1a120.8,120.8,0,0,1,4.93-27.36C263.75,220.86,263.75,220.94,263.73,221Z"/>
    <path class="cls-4" d="M253.75,250c2.23,0,4.44.09,6.64.2,2.66-63.1,54.81-113.65,118.55-113.65A118.67,118.67,0,0,1,384,373.78q.17,3.3.17,6.64c0,1.71-.06,3.4-.13,5.1,69.56-2.69,125.32-60.08,125.32-130.28A130.56,130.56,0,0,0,378.94,124.82c-70.2,0-127.6,55.76-130.29,125.32C250.35,250.07,252,250,253.75,250Z"/>
    <path class="cls-4" d="M260.65,253.56q0,3.34-.17,6.64a118.67,118.67,0,0,1-5.06,237.23c-63.74,0-115.89-50.76-118.55-113.86-2.2.11-4.3.2-6.53.2-1.71,0-3.51-.1-5.21-.16,2.69,69.56,60.08,125.55,130.28,125.55A130.56,130.56,0,0,0,385.84,378.75c0-70.2-55.76-127.6-125.32-130.29C260.58,250.15,260.65,251.85,260.65,253.56Z"/>
  </g>
  <g>
    <path class="cls-4" d="M187.27,690v-4.78H200l.71,5.9a14.22,14.22,0,0,1,4.27-4.89,9.92,9.92,0,0,1,5.81-1.77,12.65,12.65,0,0,1,1.79.13,10,10,0,0,1,1.41.28l-1,6.88-4.21-.23a8.48,8.48,0,0,0-4.93,1.37,8.89,8.89,0,0,0-3.08,3.85v23.35l6.13,1.05v4.74H187.27V721.2l6.13-1.05V691.08Z"/>
    <rect class="cls-4" x="250.92" y="622" width="8.12" height="211"/>
    <path class="cls-4" d="M290.73,779.05l6.13-1.05V733.33l-6.13-1.05V727.5h12.48l.68,5a13.69,13.69,0,0,1,4.94-4.25,14.82,14.82,0,0,1,6.75-1.47,13.52,13.52,0,0,1,11.75,6q4.19,6,4.19,15.85v.79q0,8.8-4.21,14.2A13.92,13.92,0,0,1,315.7,769a16.14,16.14,0,0,1-6.6-1.26,12.77,12.77,0,0,1-4.83-3.74v14l6.13,1.05v4.78H290.73Zm33.35-30.46q0-7-2.71-11.39a8.83,8.83,0,0,0-8-4.44,9.91,9.91,0,0,0-5.41,1.43,10.75,10.75,0,0,0-3.65,3.91v19.82a9.68,9.68,0,0,0,9.14,5.26,9.13,9.13,0,0,0,8-3.84,16.9,16.9,0,0,0,2.71-10Z"/>
  </g>
</svg>
