<svg id="Layer_1" data-name="Layer 1" xmlns="http://www.w3.org/2000/svg" viewBox="0 0 945.09 475.19">
  <defs>
    <style>
      .cls-1 {
        fill: #fff;
      }
    </style>
  </defs>
  <title>rp wordmark</title>
  <g>
    <g>
      <path class="cls-1" d="M76.88,224.77v-4.4H88.64l.66,5.44a13.11,13.11,0,0,1,3.94-4.51,9.15,9.15,0,0,1,5.36-1.63,11.67,11.67,0,0,1,1.65.12,9.19,9.19,0,0,1,1.3.26l-.9,6.35-3.88-.21a7.82,7.82,0,0,0-4.54,1.27A8.2,8.2,0,0,0,89.37,231v21.54l5.65,1v4.37H76.88v-4.37l5.65-1V225.74Z"/>
      <path class="cls-1" d="M124.33,258.62q-7.84,0-12.47-5.22t-4.63-13.54v-1.53A19.24,19.24,0,0,1,112,225a14.69,14.69,0,0,1,11.29-5.32q7.56,0,11.46,4.58t3.9,12.21v4.27H114.3l-.1.17a14.83,14.83,0,0,0,2.74,8.9,8.73,8.73,0,0,0,7.39,3.49,17.2,17.2,0,0,0,6.09-1,14,14,0,0,0,4.53-2.72l2.67,4.44a16.39,16.39,0,0,1-5.32,3.28A21.28,21.28,0,0,1,124.33,258.62Zm-1-33.57a7.4,7.4,0,0,0-5.86,2.9,13.72,13.72,0,0,0-3,7.27l.07.17h17.31v-.9a10.47,10.47,0,0,0-2.15-6.73A7.66,7.66,0,0,0,123.29,225Z"/>
      <path class="cls-1" d="M146.32,225.43v-5.06h5.86v-4.75q0-6,3.14-9.28t8.76-3.28a15.15,15.15,0,0,1,2.38.19q1.2.19,2.65.54l-.83,5.2q-.62-.14-1.51-.24a15.58,15.58,0,0,0-1.82-.1,5.44,5.44,0,0,0-4.47,1.79,8,8,0,0,0-1.46,5.19v4.75h7.84v5.06H159v27.12l5.65,1v4.37H146.53v-4.37l5.65-1V225.43Z"/>
      <path class="cls-1" d="M175.71,208.19v-4.4H188.2v48.76l5.65,1v4.37H175.71v-4.37l5.65-1V209.16Z"/>
      <path class="cls-1" d="M217.08,258.62q-7.84,0-12.47-5.22T200,239.85v-1.53A19.24,19.24,0,0,1,204.75,225,14.69,14.69,0,0,1,216,219.67q7.56,0,11.46,4.58t3.9,12.21v4.27H207.06l-.1.17a14.83,14.83,0,0,0,2.74,8.9,8.73,8.73,0,0,0,7.39,3.49,17.2,17.2,0,0,0,6.09-1,14,14,0,0,0,4.53-2.72l2.67,4.44a16.39,16.39,0,0,1-5.32,3.28A21.28,21.28,0,0,1,217.08,258.62ZM216,225a7.4,7.4,0,0,0-5.86,2.9,13.72,13.72,0,0,0-3,7.27l.07.17h17.31v-.9a10.47,10.47,0,0,0-2.15-6.73A7.66,7.66,0,0,0,216,225Z"/>
      <path class="cls-1" d="M256.94,253.28a9.21,9.21,0,0,0,6-2.1,6.4,6.4,0,0,0,2.58-5.15h6.14l.07.21q.17,4.86-4.32,8.62a15.79,15.79,0,0,1-10.46,3.76q-8.19,0-12.5-5.34t-4.32-13.42V238.4A20.56,20.56,0,0,1,244.46,225q4.33-5.36,12.49-5.36a21,21,0,0,1,8.1,1.49,16.36,16.36,0,0,1,5.95,4.09l.31,8.32h-5.44l-1.49-5.9a9,9,0,0,0-3.12-1.91,12,12,0,0,0-4.3-.73q-5.38,0-7.68,3.87A18.21,18.21,0,0,0,247,238.4v1.46a18.43,18.43,0,0,0,2.29,9.59Q251.53,253.28,256.94,253.28Z"/>
      <path class="cls-1" d="M292.4,211.31v9.05h7.11v5.06H292.4v22.79a5.1,5.1,0,0,0,1.09,3.71,4,4,0,0,0,2.9,1.08,14.87,14.87,0,0,0,2-.16q1.13-.16,1.89-.33l.94,4.68a8.75,8.75,0,0,1-2.84,1,18,18,0,0,1-3.75.4A8.85,8.85,0,0,1,288,256.1q-2.46-2.51-2.46-7.89V225.43h-5.93v-5.06h5.93v-9.05Z"/>
      <path class="cls-1" d="M309.23,253.52l5.65-1V225.74l-5.65-1v-4.4h12.49v32.18l5.65,1v4.37H309.23Zm12.49-42.76h-6.83v-7h6.83Z"/>
      <path class="cls-1" d="M333.51,238.78q0-8.32,4.51-13.72t12.24-5.39q7.77,0,12.29,5.38t4.53,13.73v.76q0,8.39-4.51,13.73t-12.24,5.34q-7.8,0-12.31-5.36t-4.51-13.72Zm6.83.76a17.79,17.79,0,0,0,2.51,9.85,9,9,0,0,0,14.86,0,17.71,17.71,0,0,0,2.53-9.85v-.76a17.74,17.74,0,0,0-2.53-9.81,9,9,0,0,0-14.88,0,17.93,17.93,0,0,0-2.5,9.81Z"/>
      <path class="cls-1" d="M373.44,253.52l5.65-1V225.74l-5.65-1v-4.4H385.2l.49,5.58a13.62,13.62,0,0,1,4.7-4.63,12.54,12.54,0,0,1,6.43-1.65q6.07,0,9.4,3.55t3.33,11v18.35l5.65,1v4.37H397.06v-4.37l5.65-1V234.34q0-5-2-7t-6-2.08a9.63,9.63,0,0,0-5.22,1.42,10.39,10.39,0,0,0-3.62,3.88v22l5.65,1v4.37H373.44Z"/>
      <path class="cls-1" d="M451,232.15h-5.13l-1.11-4.51a9.26,9.26,0,0,0-3.14-1.89,12.11,12.11,0,0,0-4.28-.71q-3.64,0-5.41,1.6a5,5,0,0,0-1.77,3.85,4.29,4.29,0,0,0,1.56,3.5q1.56,1.28,6.35,2.29,7.11,1.53,10.58,4.14a8.35,8.35,0,0,1,3.47,7,9.69,9.69,0,0,1-4,8.08q-4,3.09-10.56,3.09a27.42,27.42,0,0,1-7.66-1,20.38,20.38,0,0,1-6.07-2.86l0-8.57h5.13l1.28,5a7.14,7.14,0,0,0,3.21,1.56,17.72,17.72,0,0,0,4.14.49,9.67,9.67,0,0,0,5.71-1.47,4.55,4.55,0,0,0,2.06-3.87,4.65,4.65,0,0,0-1.72-3.71q-1.72-1.46-6.5-2.53-6.83-1.49-10.3-4.06a8.18,8.18,0,0,1-3.47-6.94,9.8,9.8,0,0,1,3.9-7.8,15.4,15.4,0,0,1,10.14-3.23,24.64,24.64,0,0,1,7.66,1.11,16,16,0,0,1,5.65,3.09Z"/>
    </g>
    <rect class="cls-1" x="483.62" y="142.33" width="8" height="194"/>
    <g>
      <path class="cls-1" d="M520.78,268.53l5.65-1v-41.2l-5.65-1V221h11.51l.62,4.58a12.63,12.63,0,0,1,4.56-3.92,13.67,13.67,0,0,1,6.23-1.35,12.47,12.47,0,0,1,10.84,5.53q3.87,5.53,3.87,14.62v.73q0,8.11-3.88,13.09a12.84,12.84,0,0,1-10.72,5,14.88,14.88,0,0,1-6.09-1.16,11.77,11.77,0,0,1-4.46-3.45v12.94l5.65,1v4.4H520.78Zm30.76-28.09a19.92,19.92,0,0,0-2.5-10.51,8.15,8.15,0,0,0-7.42-4.09,9.14,9.14,0,0,0-5,1.32,9.91,9.91,0,0,0-3.36,3.61V249a8.93,8.93,0,0,0,8.43,4.86,8.42,8.42,0,0,0,7.35-3.54,15.59,15.59,0,0,0,2.5-9.19Z"/>
      <path class="cls-1" d="M565.45,225.39V221H577.2l.66,5.44a13.11,13.11,0,0,1,3.94-4.51,9.15,9.15,0,0,1,5.36-1.63,11.67,11.67,0,0,1,1.65.12,9.19,9.19,0,0,1,1.3.26l-.9,6.35-3.88-.21a7.82,7.82,0,0,0-4.54,1.27,8.2,8.2,0,0,0-2.84,3.56v21.54l5.65,1v4.37H565.45v-4.37l5.65-1V226.36Z"/>
      <path class="cls-1" d="M595.84,239.4q0-8.32,4.51-13.72t12.24-5.39q7.77,0,12.29,5.38t4.53,13.73v.76q0,8.39-4.51,13.73t-12.24,5.34q-7.8,0-12.31-5.36t-4.51-13.72Zm6.83.76a17.79,17.79,0,0,0,2.51,9.85A9,9,0,0,0,620,250a17.71,17.71,0,0,0,2.53-9.85v-.76a17.74,17.74,0,0,0-2.53-9.81,9,9,0,0,0-14.88,0,17.93,17.93,0,0,0-2.5,9.81Z"/>
      <path class="cls-1" d="M648,261.6q0,5.79-3,8.93t-8.29,3.14a11.88,11.88,0,0,1-2-.16,13.89,13.89,0,0,1-1.87-.47l.45-5.38a7.28,7.28,0,0,0,1.42.29,12.4,12.4,0,0,0,1.53.12,4.53,4.53,0,0,0,3.59-1.53q1.33-1.53,1.34-5V226.36l-5.65-1V221H648Zm-.21-50.36h-6.83v-6.83h6.83Z"/>
      <path class="cls-1" d="M675.34,259.24q-7.84,0-12.47-5.22t-4.63-13.54V239A19.24,19.24,0,0,1,663,225.62a14.69,14.69,0,0,1,11.29-5.32q7.56,0,11.46,4.58t3.9,12.21v4.27H665.32l-.1.17a14.83,14.83,0,0,0,2.74,8.9,8.73,8.73,0,0,0,7.39,3.49,17.2,17.2,0,0,0,6.09-1,14,14,0,0,0,4.53-2.72l2.67,4.44a16.39,16.39,0,0,1-5.32,3.28A21.28,21.28,0,0,1,675.34,259.24Zm-1-33.57a7.4,7.4,0,0,0-5.86,2.9,13.72,13.72,0,0,0-3,7.27l.07.17h17.31v-.9a10.47,10.47,0,0,0-2.15-6.73A7.66,7.66,0,0,0,674.3,225.67Z"/>
      <path class="cls-1" d="M715.2,253.9a9.21,9.21,0,0,0,6-2.1,6.4,6.4,0,0,0,2.58-5.15h6.14l.07.21q.17,4.86-4.32,8.62a15.79,15.79,0,0,1-10.46,3.76q-8.19,0-12.5-5.34t-4.32-13.42V239a20.56,20.56,0,0,1,4.34-13.37q4.33-5.36,12.49-5.36a21,21,0,0,1,8.1,1.49,16.36,16.36,0,0,1,5.95,4.09l.31,8.32h-5.44l-1.49-5.9a9,9,0,0,0-3.12-1.91,12,12,0,0,0-4.3-.73q-5.38,0-7.68,3.87a18.21,18.21,0,0,0-2.31,9.48v1.46a18.43,18.43,0,0,0,2.29,9.59Q709.79,253.9,715.2,253.9Z"/>
      <path class="cls-1" d="M750.66,211.94V221h7.11v5.06h-7.11v22.79a5.1,5.1,0,0,0,1.09,3.71,4,4,0,0,0,2.9,1.08,14.87,14.87,0,0,0,2-.16q1.13-.16,1.89-.33l.94,4.68a8.75,8.75,0,0,1-2.84,1,18,18,0,0,1-3.75.4,8.85,8.85,0,0,1-6.62-2.51q-2.46-2.51-2.46-7.89V226.05H737.9V221h5.93v-9.05Z"/>
      <path class="cls-1" d="M767.49,254.14l5.65-1V226.36l-5.65-1V221H780v32.18l5.65,1v4.37H767.49ZM780,211.38h-6.83v-7H780Z"/>
      <path class="cls-1" d="M791.77,239.4q0-8.32,4.51-13.72t12.24-5.39q7.77,0,12.29,5.38t4.53,13.73v.76q0,8.39-4.51,13.73t-12.24,5.34q-7.8,0-12.31-5.36t-4.51-13.72Zm6.83.76a17.79,17.79,0,0,0,2.51,9.85A9,9,0,0,0,816,250a17.71,17.71,0,0,0,2.53-9.85v-.76a17.74,17.74,0,0,0-2.53-9.81,9,9,0,0,0-14.88,0,17.93,17.93,0,0,0-2.5,9.81Z"/>
      <path class="cls-1" d="M831.71,254.14l5.65-1V226.36l-5.65-1V221h11.76l.49,5.58a13.62,13.62,0,0,1,4.7-4.63,12.54,12.54,0,0,1,6.43-1.65q6.07,0,9.4,3.55t3.33,11v18.35l5.65,1v4.37H855.32v-4.37l5.65-1V235q0-5-2-7t-6-2.08a9.63,9.63,0,0,0-5.22,1.42,10.39,10.39,0,0,0-3.62,3.88v22l5.65,1v4.37H831.71Z"/>
      <path class="cls-1" d="M909.25,232.78h-5.13L903,228.27a9.26,9.26,0,0,0-3.14-1.89,12.12,12.12,0,0,0-4.28-.71q-3.64,0-5.41,1.6a5,5,0,0,0-1.77,3.85,4.29,4.29,0,0,0,1.56,3.5q1.56,1.28,6.35,2.29,7.11,1.53,10.58,4.14a8.35,8.35,0,0,1,3.47,7,9.7,9.7,0,0,1-4,8.08q-4,3.09-10.56,3.09a27.41,27.41,0,0,1-7.66-1,20.38,20.38,0,0,1-6.07-2.86l0-8.57h5.13l1.28,5a7.14,7.14,0,0,0,3.21,1.56,17.72,17.72,0,0,0,4.14.49,9.67,9.67,0,0,0,5.71-1.47,4.54,4.54,0,0,0,2.06-3.87,4.65,4.65,0,0,0-1.72-3.71q-1.72-1.46-6.5-2.53-6.83-1.49-10.3-4.06a8.18,8.18,0,0,1-3.47-6.94,9.8,9.8,0,0,1,3.9-7.8,15.4,15.4,0,0,1,10.14-3.23,24.64,24.64,0,0,1,7.66,1.11,16,16,0,0,1,5.65,3.09Z"/>
    </g>
  </g>
</svg>
