<svg id="Layer_1" data-name="Layer 1" xmlns="http://www.w3.org/2000/svg" viewBox="0 0 1441 509">
  <defs>
    <style>
      .cls-1 {
        fill: #a01d21;
      }

      .cls-2 {
        fill: none;
      }

      .cls-3 {
        fill: #cb2027;
      }

      .cls-4 {
        fill: #fff;
      }

      .cls-5 {
        fill: #8f191c;
      }

      .cls-6 {
        fill: #b32024;
      }

      .cls-7 {
        fill: #e81d29;
      }

      .cls-8 {
        fill: #7a1216;
      }

      .cls-9 {
        fill: #9e1d20;
      }
    </style>
  </defs>
  <title>wide_web</title>
  <path class="cls-1" d="M589.34,253.36a60.45,60.45,0,0,1,34.18-31.91,130,130,0,0,1-39.3-89.17,120.55,120.55,0,0,0-108.44,79.36,60.64,60.64,0,0,0,113.56,41.72Z"/>
  <path class="cls-2" d="M705.23,276.47c0-.08,0-.17,0-.25C705.23,276.31,705.23,276.39,705.23,276.47Z"/>
  <path class="cls-2" d="M705,284.18c0-.1,0-.2,0-.3C705,284,705,284.09,705,284.18Z"/>
  <path class="cls-3" d="M704.55,287.57a60.55,60.55,0,0,1-4.62,15.6,121.29,121.29,0,1,1-221.19-99.62,60.65,60.65,0,0,0,110.59,49.81,60.45,60.45,0,0,1,34.18-31.91,130,130,0,0,0,78.22,36.5h0c2.58.25,5.2.41,7.82.51a120.94,120.94,0,0,1-5,29.35C704.54,287.73,704.54,287.65,704.55,287.57Z"/>
  <path class="cls-4" d="M714.53,258.58q-3.34,0-6.64-.17A118.67,118.67,0,1,1,584.29,134.81q-.17-3.3-.17-6.64c0-1.71.06-3.4.13-5.1-69.56,2.69-125.32,60.08-125.32,130.28A130.56,130.56,0,0,0,589.34,383.77c70.2,0,127.6-55.76,130.29-125.32C717.94,258.52,716.24,258.58,714.53,258.58Z"/>
  <path class="cls-5" d="M712.9,129.95a60.45,60.45,0,0,1,31.91,34.18A130,130,0,0,1,834,124.83,120.55,120.55,0,0,0,754.61,16.39,60.64,60.64,0,0,0,712.9,129.95Z"/>
  <path class="cls-2" d="M689.79,245.82h0Z"/>
  <path class="cls-2" d="M682.08,245.56l.3,0Z"/>
  <path class="cls-6" d="M678.69,245.14a60.55,60.55,0,0,1-15.6-4.62A121.29,121.29,0,1,1,762.71,19.33,60.65,60.65,0,0,0,712.9,129.93a60.45,60.45,0,0,1,31.91,34.18,130,130,0,0,0-36.5,78.22h0c-.25,2.59-.41,5.2-.51,7.82a120.94,120.94,0,0,1-29.35-5Z"/>
  <path class="cls-4" d="M707.68,255.12q0-3.34.17-6.64A118.67,118.67,0,0,1,712.9,11.25c63.74,0,115.89,50.67,118.55,113.77q3.3-.17,6.64-.17c1.71,0,3.4.06,5.1.13C840.5,55.42,783.11-.49,712.9-.49A130.56,130.56,0,0,0,582.49,129.93c0,70.2,55.76,127.6,125.32,130.29C707.74,258.52,707.68,256.82,707.68,255.12Z"/>
  <path class="cls-6" d="M714.42,378.75a60.45,60.45,0,0,1-31.91-34.18,129.82,129.82,0,0,1-89.15,39.14A120.51,120.51,0,0,0,672.71,492.3a60.64,60.64,0,0,0,41.72-113.56Z"/>
  <path class="cls-2" d="M737.54,262.86h0Z"/>
  <path class="cls-2" d="M745.25,263.11l-.3,0Z"/>
  <path class="cls-7" d="M748.63,263.54a60.55,60.55,0,0,1,15.6,4.62,121.29,121.29,0,1,1-99.62,221.19,60.65,60.65,0,0,0,49.81-110.59,60.45,60.45,0,0,1-31.91-34.18A130,130,0,0,0,719,266.35h0c.25-2.59.41-5.2.51-7.82a120.94,120.94,0,0,1,29.35,5Z"/>
  <path class="cls-4" d="M719.51,260.14a24.14,24.14,0,0,1-11.66,0,22.47,22.47,0,0,1,0-11.66,17.66,17.66,0,0,1,11.66,0,15.94,15.94,0,0,1,0,11.66Z"/>
  <path class="cls-8" d="M837.94,255.23a60.45,60.45,0,0,1-34.18,31.91,130,130,0,0,1,39.3,89.17A120.55,120.55,0,0,0,951.5,296.95a60.64,60.64,0,0,0-113.56-41.72Z"/>
  <path class="cls-2" d="M722.05,232.11c0,.08,0,.17,0,.25C722.06,232.28,722.06,232.19,722.05,232.11Z"/>
  <path class="cls-2" d="M722.31,224.4c0,.1,0,.2,0,.3C722.28,224.6,722.3,224.5,722.31,224.4Z"/>
  <path class="cls-9" d="M722.73,221a60.55,60.55,0,0,1,4.62-15.6A121.29,121.29,0,1,1,948.54,305a60.65,60.65,0,0,0-110.59-49.81,60.45,60.45,0,0,1-34.18,31.91,130,130,0,0,0-78.22-36.5h0c-2-.2-4.09-.34-6.16-.44-.56,0,0-1-.51-1,0-.66-1.09-.37-1-1a120.8,120.8,0,0,1,4.93-27.36C722.75,220.86,722.75,220.94,722.73,221Z"/>
  <path class="cls-4" d="M712.75,250c2.23,0,4.44.09,6.64.2,2.66-63.1,54.81-113.65,118.55-113.65A118.67,118.67,0,0,1,843,373.78q.17,3.3.17,6.64c0,1.71-.06,3.4-.13,5.1,69.56-2.69,125.32-60.08,125.32-130.28A130.56,130.56,0,0,0,837.94,124.82c-70.2,0-127.6,55.76-130.29,125.32C709.35,250.07,711,250,712.75,250Z"/>
  <path class="cls-4" d="M719.65,253.56q0,3.34-.17,6.64a118.67,118.67,0,0,1-5.06,237.23c-63.74,0-115.89-50.76-118.55-113.86-2.2.11-4.3.2-6.53.2-1.71,0-3.51-.1-5.21-.16,2.69,69.56,60.08,125.55,130.28,125.55A130.56,130.56,0,0,0,844.84,378.75c0-70.2-55.76-127.6-125.32-130.29C719.58,250.15,719.65,251.85,719.65,253.56Z"/>
  <g>
    <path class="cls-4" d="M-.05,242.87v-4.32H11.47l.65,5.34A12.85,12.85,0,0,1,16,239.47a9,9,0,0,1,5.25-1.6,11.44,11.44,0,0,1,1.62.12,9,9,0,0,1,1.27.26l-.88,6.22-3.81-.2A7.67,7.67,0,0,0,15,245.51,8,8,0,0,0,12.19,249V270.1l5.54,1v4.28H-.05v-4.28l5.54-1V243.83Z"/>
    <path class="cls-4" d="M46.45,276.05q-7.68,0-12.22-5.12t-4.54-13.27v-1.5a18.86,18.86,0,0,1,4.67-13.07,14.4,14.4,0,0,1,11.06-5.22q7.41,0,11.24,4.49t3.82,12v4.18H36.63l-.1.17a14.54,14.54,0,0,0,2.69,8.72,8.56,8.56,0,0,0,7.24,3.42,16.85,16.85,0,0,0,6-1,13.73,13.73,0,0,0,4.44-2.67l2.62,4.35a16.06,16.06,0,0,1-5.22,3.21A20.86,20.86,0,0,1,46.45,276.05Zm-1-32.91A7.26,7.26,0,0,0,39.69,246a13.44,13.44,0,0,0-2.92,7.12l.07.17h17v-.88a10.27,10.27,0,0,0-2.11-6.59A7.51,7.51,0,0,0,45.43,243.15Z"/>
    <path class="cls-4" d="M68,243.52v-5h5.74V233.9q0-5.88,3.08-9.09t8.58-3.21a14.85,14.85,0,0,1,2.33.19q1.17.19,2.6.53l-.82,5.1q-.61-.14-1.48-.24a15.27,15.27,0,0,0-1.78-.1,5.33,5.33,0,0,0-4.39,1.75,7.87,7.87,0,0,0-1.43,5.08v4.66h7.68v5H80.46V270.1l5.54,1v4.28H68.22v-4.28l5.54-1V243.52Z"/>
    <path class="cls-4" d="M96.82,226.63v-4.32h12.24v47.8l5.54,1v4.28H96.82v-4.28l5.54-1V227.58Z"/>
    <path class="cls-4" d="M137.37,276.05q-7.68,0-12.22-5.12t-4.54-13.27v-1.5a18.86,18.86,0,0,1,4.67-13.07,14.4,14.4,0,0,1,11.06-5.22q7.41,0,11.24,4.49t3.82,12v4.18H127.54l-.1.17a14.54,14.54,0,0,0,2.69,8.72,8.56,8.56,0,0,0,7.24,3.42,16.85,16.85,0,0,0,6-1,13.73,13.73,0,0,0,4.44-2.67l2.62,4.35a16.06,16.06,0,0,1-5.22,3.21A20.86,20.86,0,0,1,137.37,276.05Zm-1-32.91A7.26,7.26,0,0,0,130.6,246a13.44,13.44,0,0,0-2.92,7.12l.07.17h17v-.88a10.27,10.27,0,0,0-2.11-6.59A7.51,7.51,0,0,0,136.35,243.15Z"/>
    <path class="cls-4" d="M176.44,270.82a9,9,0,0,0,5.86-2.06,6.28,6.28,0,0,0,2.53-5h6l.07.2q.17,4.76-4.23,8.45a15.48,15.48,0,0,1-10.25,3.69q-8,0-12.25-5.23T160,257.66v-1.43a20.16,20.16,0,0,1,4.25-13.1q4.25-5.25,12.24-5.25a20.53,20.53,0,0,1,7.94,1.46,16,16,0,0,1,5.83,4l.31,8.16h-5.34l-1.46-5.78a8.86,8.86,0,0,0-3.06-1.87,11.74,11.74,0,0,0-4.22-.71q-5.27,0-7.53,3.79a17.85,17.85,0,0,0-2.26,9.3v1.43a18.07,18.07,0,0,0,2.24,9.4Q171.14,270.82,176.44,270.82Z"/>
    <path class="cls-4" d="M211.19,229.69v8.87h7v5h-7v22.33a5,5,0,0,0,1.07,3.64,3.87,3.87,0,0,0,2.84,1.05,14.58,14.58,0,0,0,2-.15q1.1-.15,1.85-.32l.92,4.59a8.58,8.58,0,0,1-2.79,1,17.62,17.62,0,0,1-3.67.39,8.67,8.67,0,0,1-6.49-2.46q-2.41-2.46-2.41-7.73V243.52h-5.81v-5h5.81v-8.87Z"/>
    <path class="cls-4" d="M227.69,271.06l5.54-1V243.83l-5.54-1v-4.32h12.24V270.1l5.54,1v4.28H227.69Zm12.24-41.91h-6.7v-6.83h6.7Z"/>
    <path class="cls-4" d="M251.49,256.61q0-8.16,4.42-13.44t12-5.29q7.61,0,12.05,5.27t4.44,13.46v.75q0,8.23-4.42,13.46t-12,5.23q-7.65,0-12.07-5.25t-4.42-13.44Zm6.7.75a17.44,17.44,0,0,0,2.46,9.65,8.87,8.87,0,0,0,14.57,0,17.35,17.35,0,0,0,2.48-9.65v-.75a17.39,17.39,0,0,0-2.48-9.62,8.84,8.84,0,0,0-14.58,0,17.58,17.58,0,0,0-2.45,9.62Z"/>
    <path class="cls-4" d="M290.63,271.06l5.54-1V243.83l-5.54-1v-4.32h11.52l.48,5.47a13.35,13.35,0,0,1,4.61-4.54,12.29,12.29,0,0,1,6.31-1.61q5.95,0,9.21,3.48T326,252.12v18l5.54,1v4.28H313.78v-4.28l5.54-1V252.26q0-4.86-1.92-6.9t-5.86-2a9.44,9.44,0,0,0-5.12,1.39,10.19,10.19,0,0,0-3.55,3.81V270.1l5.54,1v4.28H290.63Z"/>
    <path class="cls-4" d="M366.64,250.12h-5l-1.09-4.42a9.08,9.08,0,0,0-3.08-1.85,11.87,11.87,0,0,0-4.2-.7q-3.57,0-5.3,1.56a4.9,4.9,0,0,0-1.73,3.77,4.21,4.21,0,0,0,1.53,3.43q1.53,1.26,6.22,2.24,7,1.5,10.37,4.06a8.19,8.19,0,0,1,3.4,6.88,9.5,9.5,0,0,1-4,7.92q-4,3-10.35,3a26.87,26.87,0,0,1-7.51-1,20,20,0,0,1-5.95-2.8l0-8.4h5l1.26,4.93a7,7,0,0,0,3.14,1.53,17.37,17.37,0,0,0,4.06.48,9.48,9.48,0,0,0,5.59-1.45,4.46,4.46,0,0,0,2-3.79,4.56,4.56,0,0,0-1.68-3.64q-1.68-1.43-6.37-2.48-6.7-1.46-10.1-4a8,8,0,0,1-3.4-6.8,9.6,9.6,0,0,1,3.82-7.65,15.09,15.09,0,0,1,9.94-3.16,24.16,24.16,0,0,1,7.51,1.09,15.67,15.67,0,0,1,5.54,3Z"/>
  </g>
  <g>
    <path class="cls-4" d="M1059.56,285.77l5.54-1V244.44l-5.54-1v-4.32h11.29l.61,4.49a12.38,12.38,0,0,1,4.47-3.84,13.4,13.4,0,0,1,6.1-1.33,12.23,12.23,0,0,1,10.62,5.42q3.79,5.42,3.79,14.33V259q0,8-3.81,12.83a12.59,12.59,0,0,1-10.5,4.88,14.59,14.59,0,0,1-6-1.14,11.54,11.54,0,0,1-4.37-3.38v12.68l5.54,1v4.32h-17.78Zm30.15-27.54a19.53,19.53,0,0,0-2.45-10.3,8,8,0,0,0-7.27-4,9,9,0,0,0-4.9,1.29,9.72,9.72,0,0,0-3.3,3.54v17.92a8.75,8.75,0,0,0,8.26,4.76,8.26,8.26,0,0,0,7.21-3.47,15.28,15.28,0,0,0,2.45-9Z"/>
    <path class="cls-4" d="M1103.34,243.49v-4.32h11.52l.65,5.34a12.85,12.85,0,0,1,3.86-4.42,9,9,0,0,1,5.25-1.6,11.44,11.44,0,0,1,1.62.12,9,9,0,0,1,1.27.26l-.88,6.22-3.81-.2a7.67,7.67,0,0,0-4.45,1.24,8,8,0,0,0-2.79,3.48v21.11l5.54,1V276h-17.78v-4.28l5.54-1V244.44Z"/>
    <path class="cls-4" d="M1133.13,257.22q0-8.16,4.42-13.44t12-5.29q7.61,0,12.05,5.27t4.44,13.46V258q0,8.23-4.42,13.46t-12,5.23q-7.65,0-12.07-5.25T1133.13,258Zm6.7.75a17.44,17.44,0,0,0,2.46,9.65,8.87,8.87,0,0,0,14.57,0,17.35,17.35,0,0,0,2.48-9.65v-.75a17.39,17.39,0,0,0-2.48-9.62,8.84,8.84,0,0,0-14.58,0,17.58,17.58,0,0,0-2.45,9.62Z"/>
    <path class="cls-4" d="M1184.23,279q0,5.68-2.92,8.75t-8.12,3.08a11.64,11.64,0,0,1-2-.15,13.62,13.62,0,0,1-1.84-.46l.44-5.27a7.14,7.14,0,0,0,1.39.29,12.15,12.15,0,0,0,1.5.12,4.44,4.44,0,0,0,3.52-1.5q1.31-1.5,1.31-4.86V244.44l-5.54-1v-4.32h12.24Zm-.2-49.36h-6.7v-6.7h6.7Z"/>
    <path class="cls-4" d="M1211.06,276.66q-7.68,0-12.22-5.12t-4.54-13.27v-1.5a18.86,18.86,0,0,1,4.67-13.07,14.4,14.4,0,0,1,11.06-5.22q7.41,0,11.24,4.49t3.82,12v4.18h-23.86l-.1.17a14.54,14.54,0,0,0,2.69,8.72,8.56,8.56,0,0,0,7.24,3.42,16.85,16.85,0,0,0,6-1,13.73,13.73,0,0,0,4.44-2.67l2.62,4.35a16.06,16.06,0,0,1-5.22,3.21A20.86,20.86,0,0,1,1211.06,276.66Zm-1-32.91a7.26,7.26,0,0,0-5.74,2.84,13.44,13.44,0,0,0-2.92,7.12l.07.17h17V253a10.27,10.27,0,0,0-2.11-6.59A7.51,7.51,0,0,0,1210,243.76Z"/>
    <path class="cls-4" d="M1250.13,271.43a9,9,0,0,0,5.86-2.06,6.28,6.28,0,0,0,2.53-5h6l.07.2q.17,4.76-4.23,8.45a15.48,15.48,0,0,1-10.25,3.69q-8,0-12.25-5.23t-4.23-13.16v-1.43a20.16,20.16,0,0,1,4.25-13.1q4.25-5.25,12.24-5.25a20.53,20.53,0,0,1,7.94,1.46,16,16,0,0,1,5.83,4l.31,8.16h-5.34l-1.46-5.78a8.86,8.86,0,0,0-3.06-1.87,11.74,11.74,0,0,0-4.22-.71q-5.27,0-7.53,3.79a17.85,17.85,0,0,0-2.26,9.3v1.43a18.07,18.07,0,0,0,2.24,9.4Q1244.82,271.43,1250.13,271.43Z"/>
    <path class="cls-4" d="M1284.88,230.3v8.87h7v5h-7v22.33a5,5,0,0,0,1.07,3.64,3.87,3.87,0,0,0,2.84,1.05,14.58,14.58,0,0,0,2-.15q1.1-.15,1.85-.32l.92,4.59a8.58,8.58,0,0,1-2.79,1,17.62,17.62,0,0,1-3.67.39,8.67,8.67,0,0,1-6.49-2.46q-2.41-2.46-2.41-7.73V244.13h-5.81v-5h5.81V230.3Z"/>
    <path class="cls-4" d="M1301.38,271.67l5.54-1V244.44l-5.54-1v-4.32h12.24v31.55l5.54,1V276h-17.78Zm12.24-41.91h-6.7v-6.83h6.7Z"/>
    <path class="cls-4" d="M1325.17,257.22q0-8.16,4.42-13.44t12-5.29q7.61,0,12.05,5.27t4.44,13.46V258q0,8.23-4.42,13.46t-12,5.23q-7.65,0-12.07-5.25T1325.17,258Zm6.7.75a17.44,17.44,0,0,0,2.46,9.65,8.87,8.87,0,0,0,14.57,0,17.35,17.35,0,0,0,2.48-9.65v-.75a17.39,17.39,0,0,0-2.48-9.62,8.84,8.84,0,0,0-14.58,0,17.58,17.58,0,0,0-2.45,9.62Z"/>
    <path class="cls-4" d="M1364.32,271.67l5.54-1V244.44l-5.54-1v-4.32h11.52l.48,5.47a13.35,13.35,0,0,1,4.61-4.54,12.29,12.29,0,0,1,6.31-1.61q5.95,0,9.21,3.48t3.26,10.76v18l5.54,1V276h-17.78v-4.28l5.54-1V252.87q0-4.86-1.92-6.9t-5.86-2a9.44,9.44,0,0,0-5.12,1.39,10.19,10.19,0,0,0-3.55,3.81v21.59l5.54,1V276h-17.78Z"/>
    <path class="cls-4" d="M1440.33,250.73h-5l-1.09-4.42a9.07,9.07,0,0,0-3.08-1.85,11.88,11.88,0,0,0-4.2-.7q-3.57,0-5.3,1.56a4.9,4.9,0,0,0-1.73,3.77,4.21,4.21,0,0,0,1.53,3.43q1.53,1.26,6.22,2.24,7,1.5,10.37,4.06a8.19,8.19,0,0,1,3.4,6.88,9.5,9.5,0,0,1-4,7.92q-4,3-10.35,3a26.87,26.87,0,0,1-7.51-1,20,20,0,0,1-5.95-2.8l0-8.4h5l1.26,4.93A7,7,0,0,0,1423,271a17.37,17.37,0,0,0,4.06.48,9.48,9.48,0,0,0,5.59-1.45,4.45,4.45,0,0,0,2-3.79,4.56,4.56,0,0,0-1.68-3.64q-1.68-1.43-6.37-2.48-6.7-1.46-10.1-4a8,8,0,0,1-3.4-6.8,9.6,9.6,0,0,1,3.82-7.65,15.09,15.09,0,0,1,9.94-3.16,24.16,24.16,0,0,1,7.51,1.09,15.68,15.68,0,0,1,5.54,3Z"/>
  </g>
</svg>
