<?xml version="1.0" encoding="utf-8"?>
<!-- Generator: Adobe Illustrator 21.0.2, SVG Export Plug-In . SVG Version: 6.00 Build 0)  -->
<svg version="1.1" id="Layer_1" xmlns="http://www.w3.org/2000/svg" xmlns:xlink="http://www.w3.org/1999/xlink" x="0px" y="0px"
	 viewBox="0 0 1146 232" style="enable-background:new 0 0 1146 232;" xml:space="preserve">
<style type="text/css">
	.st0{fill:#4B2354;}
</style>
<g>
	<g>
		<path class="st0" d="M871.6,146c-1.9,0-3.7,3.9-7.3,3.9c-6.6,0,0.1-16.1,4.8-16.1c1.8,0,2.1,2,0.4,4.1c-0.9,1.1-0.2,2.4,1.9,2.4
			c7.8,0,9.3-11.8-1.1-11.8c-6.9,0-14,7.4-16.2,14.5c-2.1,2.8-4.7,5.9-6.5,5.9c-3.8,0,4.5-9,4.5-15c0-2.9-1.9-5-5.3-5
			c-3.2,0-6.8,1.8-10.8,6.9c0.8-2.2,1.7-4.4,2-5.3c0.7-2-0.4-1.9-3.3-1.4c-2.3,0.4-3.4,0.6-4.2,2.3c-5.3,10.3-10,17.2-12.6,17.2
			c-1.9,0-1.8-1.8-0.1-5.7c1.7-3.8,6.3-13.2,6.3-13.2s-0.9-0.6-3.5-0.6s-4.9,0.4-6.4,3.2c-0.8,1.4-3.9,8.4-5.4,12.8
			c-2.1,6.4,0.5,10.5,5,10.5c4.9,0,8.8-4.7,12.3-10c-1,2.8-2.3,6.1-2.8,7.7c-0.4,1.5,0.1,1.9,1.2,1.9c1.6,0,3-0.1,4.3-0.2
			c1.3-0.1,1.7-0.7,2.3-2.3c1-2.6,2.3-5.3,4.1-8.9c3.6-7.1,5.8-8.5,7.4-8.5c1.2,0,2,1.1,0.9,3.5c-2.2,4.4-5.2,8-5.2,11.9
			c0,2.8,2.1,5.3,5.2,5.3c4.4,0,7.8-2.7,10.4-5.8c1.1,3.6,4.6,5.9,8.7,5.9C871.5,155.8,874.9,146,871.6,146z"/>
		<path class="st0" d="M818.5,121.6c-0.6,2.8,1,5,3.5,5c2.6,0,5.1-2.2,5.7-5c0.6-2.8-1-5-3.5-5C821.7,116.6,819.2,118.9,818.5,121.6
			z"/>
		<path class="st0" d="M879.9,146.3c-2.4,0-4.9,2.1-5.5,4.8c-0.6,2.6,0.9,4.8,3.3,4.8c2.4,0,4.9-2.1,5.5-4.8
			S882.3,146.3,879.9,146.3z"/>
	</g>
	<g>
		<path class="st0" d="M359.7,162.6c-4.5-0.5-8-1.3-11.3-4c-3-2.5-5.4-6.5-7.3-11.7c-4.1-11.2-8.1-25-10.1-32
			c26.3-9.2,38.5-21.1,38.5-34.4c0-12.2-10-20.2-32.1-17.4c-9.8,1.2-16.9,2.6-24.5,4.1c-28.3,5.5-38.9,17.7-38.9,30.3
			c0,8.5,7.5,14.4,16.1,14.4c5.9,0,6.5-3.3,4.7-4.6c-3.7-2.8-5.9-5.5-5.9-10.2c0-7.4,5.6-16.9,26-21.4c1.3-0.3,2.4-0.5,3.5-0.8
			c-3.4,9.6-9.4,26.5-14.9,41c-31.2,12.5-41,29.6-41,41.5c0,8.9,7,14,15.2,14c12.6,0,22.5-8.4,30.4-27.4c2.9-6.9,6.1-15,9.2-23.4
			c2,7.4,5.7,20.3,9.6,30.7c2.3,6,4.3,10.3,7.4,13.4c3.7,3.7,8.8,5.6,14.7,5.6c7.1,0,11.3-2.4,12.4-4.1
			C363,164.2,362.2,162.9,359.7,162.6z M294,139.7c-6.9,14.2-11.1,20.1-16.5,21c-2.4,0.4-4.3-0.8-4.3-4.3c0-3.9,4.2-18.5,26.5-30.2
			C297.4,132,295.4,136.8,294,139.7z M321.8,109.1c5.4-14.8,10.4-29,13.2-37.2c11.8-1.3,17.8,2.3,17.8,11.1
			c0,8.6-7.3,17.1-22.9,23.1C327,107.2,324.2,108.2,321.8,109.1z"/>
		<path class="st0" d="M654.5,140c-2.4,0-5.9,3.9-12.2,3.9c-4.3,0-6.5-2.7-6.5-8.4c0-1.4,0.2-2.9,0.5-4.5c0.5,0,1,0,1.6,0
			c20.2,0,32.3-11.7,32.3-23.1c0-8.3-6.3-12.4-12.5-12.4c-15.1,0-33.3,17.9-36.4,36.2c-4.3,7.4-7.9,10.2-10.1,10.1
			c-2.5-0.1-2.3-3.6,0-10.2c3.5-10,8.5-23.5,12.9-33.9c8.7-20.6,14.2-32,14.9-34.4c0.7-2.4-0.6-2.8-3-2.4
			c-8.8,1.3-13.7,0.9-17.4,7.1c-5.9,9.8-31.2,49.2-31.2,49.2s7.5-48.7,8.7-53.7c0.6-2.7-0.8-3.5-3.2-2.9c-2.8,0.8-5.3,1.4-9.1,2.6
			c-3.3,1.1-4,2.2-6.3,7.5c-1.2,2.8-10.9,31.5-17.7,46c-7.3,15.4-13,24.4-26.6,25.5c-3.7,0.3-3.9,2.2-2.9,4.5
			c2.1,4.9,7.4,7.8,12.3,7.8c8.5,0,14.5-6,20.3-20c4.8-11.6,11.9-31.5,17.2-46.5c-4.4,23.3-9.6,54.4-10.4,62.6
			c-0.4,4.8,6,4.9,8.6,0.2c6.8-12.3,21.5-37.5,34.7-60.3c-5.4,12.9-11.7,28.2-14.6,36.8c-2,6.3-3.8,10.9-3.8,16.7
			c0,6.7,4.6,10.7,9.7,10.7c5.2,0,11.2-2.6,17.6-10.7c1.9,6.7,6.9,10.9,15.4,10.9c11.1,0,19.3-7.6,19.3-12.4
			C656.7,141,655.9,140,654.5,140z M654.4,105.5c6.3,0,1.4,16.5-15,17C643.4,113.7,650.2,105.5,654.4,105.5z"/>
		<path class="st0" d="M748.1,78.4c5.9-4.3,10.4-4.5,11.8-5.7c2.1-1.8-0.8-10.5-9-10.5c-13.1,0-19.9,16.4-25.1,30.9
			c-3.4,9.2-7.1,20.6-10,29.7c-0.1,0.2-0.1,0-0.1-0.1c1.4-20.3,3.8-52.4,4-56c0.1-1.9,0-2.9-0.9-3.3c-0.4-0.3-1.2-0.3-1.7-0.3
			c-1.8,0-3.4,0.1-5.1,0.1c-7.7,0-18.4,0-22.7,0c-33.4,0-30.9,31.3-10.3,31.3c3.8,0,3.9-3.7,2.1-4.7c-7.5-3.8-9-17.5,16-17.5
			c3.2,0,5.2,0,6.8,0c-3.1,10.7-9,28.7-16.4,44.6c-7.9,17-12.4,23.3-24.8,26.5c-3.6,0.9-3.3,2.9-2.3,5.3c1.2,2.8,5.7,5.8,11.2,5.8
			c9.8,0,15-7.2,20.3-21.6c5.1-14,9.5-27.5,12.7-38c0,0,0-0.1,0-0.1c0.1,0,0,0.1,0,0.2c-0.9,22.6-1.7,51.4-1.9,56.6
			c-0.1,4,1.5,4,4.6,2.6c6.3-2.7,8.5-3.7,10.2-8.8c5.3-16.2,10.4-29.7,16.4-44.9C737.5,90.9,743.2,81.9,748.1,78.4z"/>
		<path class="st0" d="M766.4,96.7c-26.3,0-39.2,30.5-39.2,43.6c0,9.3,5.9,15.1,15.9,15.1c22,0,34.6-30,34.6-43.8
			C777.8,102.2,773.4,96.7,766.4,96.7z M747.4,143.3c-9.8,0,3.2-36.8,12-36.8C767.5,106.5,757.7,143.3,747.4,143.3z"/>
		<path class="st0" d="M835.8,80.7c-2.2,0-9.9,0.2-21.6,0.6c1.9-4.6,3.4-8.3,4.4-10.8c0.8-1.9,0.4-3-1.6-3c-1.8,0-4.9,0.6-8.6,1.6
			c-5,1.3-5.6,2.2-8.3,8c-0.6,1.2-1.3,2.8-2.1,4.8c-11.4,0.4-24.7,1-39.4,1.6c-5.7,0.3-13.8,7.4-6.8,7.4c13.8,0,28.7,0.5,42.3,0.9
			c-2.1,5.6-4.7,12.5-7.9,20.6c-4,10.2-9.6,22.4-9.6,30.7c0,6.3,4.3,11.6,11.8,11.6c9.4,0,13.2-5.5,12.2-8.7
			c-0.6-1.8-2.3-1.8-5.9-1.8c-2.5,0-3.4-1.7-3.4-3.6c0-2.9,1.4-5.9,2.9-9.9c5.3-13.8,10.8-27.4,15.4-38.5c3.8,0.1,7.4,0.1,10.7,0.1
			c8.1,0,11.2-0.2,14.1-2.4c2.4-1.8,3.5-2.8,4.8-4.5C840.7,83.8,841.3,80.7,835.8,80.7z"/>
		<path class="st0" d="M502.8,94.1c4.3,0,8.7-4,9.7-8.9c1-4.9-1.6-8.9-5.9-8.9c-4.3,0-8.7,4-9.7,8.9
			C495.8,90.1,498.5,94.1,502.8,94.1z"/>
		<path class="st0" d="M521.2,144.7c-2.1-0.3-2.7-1.7-2.7-4.1c0-2.9,0.8-7,2.2-11.6c34.3-16.1,56.8-65.2,31.2-65.2
			c-17,0-38.2,37.7-45,63.3c-3.8,6.1-10.2,15.3-14.7,15.3c-3.5,0-2.6-4.6,0-11.5c5.9-16,14.5-32.5,14.5-32.5s-4.3-1.8-10.2-0.8
			c-3.8,0.7-5.5,2.6-7.3,6c-0.2,0.3-0.5,0.7-0.7,1.3c-11.1,23.9-18.1,37.4-24.4,37.4c-4.4,0-1.9-4.9,0.6-11.7
			c5.9-16,14.5-32.5,14.5-32.5s-4.3-1.8-10.2-0.8c-3.7,0.6-5.4,2.4-7.1,5.6c-1.2-3.3-3.7-6.5-9.1-6.5c-16.5,0-28.9,21.2-32.4,36.2
			c-3.4,5.2-7.8,10.8-11.1,10.8c-3.3,0-3.3-2.9-0.7-9.7c4.2-10.9,12.3-29.7,18.7-44.5c16.2,0.4,31.5,0.7,40.3,0.7
			c8.1,0,11.2-0.2,14.1-2.4c2.4-1.8,3.5-2.8,4.8-4.5c1.4-1.7,2-4.8-3.5-4.8c-3,0-25.2,0.7-51.6,1.7c2-4.5,3.6-8.1,4.5-10.2
			c0.6-1.3-0.3-2.7-2.3-2.5c-3.1,0.3-4.2,0.7-7.5,1.5c-5,1.3-6.2,2.7-9,8.5c-0.4,0.8-0.9,1.9-1.5,3.3c-10.5,0.4-21.2,0.9-31.2,1.3
			c-5.7,0.3-12.3,6.6-5.3,6.6c8.7,0,20.5,0.2,32.9,0.5c-2.2,4.9-4.6,10.6-6.6,15.6c-0.2,0.4-0.5,0.9-0.7,1.5
			c-8.4,19.1-21.2,39.2-35.3,39.2c-5.5,0-7.8-3.6-7.8-8.3c0-1.8,0.3-3.7,0.7-5.7c0.5,0,1.1,0.1,1.8,0.1c20.2,0,32.1-12.4,32.1-23.8
			c0-7.3-6.1-11.6-12.2-11.6c-16.6,0-36.9,21.6-36.9,41.6c0,10.8,5.8,17.9,15.6,17.9c13.2,0,23.5-8.1,30.7-17c-0.4,2-0.6,4-0.6,5.9
			c0,6.3,3.6,10.8,9.4,10.8c6.6,0,12.3-4,17.6-11c1.1,7,5.1,11,11,11c7,0,13-5.3,17.8-11.7c0.3,5.8,2.3,11.7,10,11.7
			c5.4,0,11-2.9,17.6-12.1c0.2,6,2.7,12.4,9.9,12.4c7,0,13.2-5,18.8-12.6c0.5,7.6,4.6,12.1,10.5,12.1c6,0,11.1-3.9,10.8-8.2
			C526,143.6,523.2,145,521.2,144.7z M550.6,74.5c3.7,0-6.4,26.5-25,41.2C533.6,96.3,546.2,74.5,550.6,74.5z M379.6,105
			c6.4,0,2.5,17.8-14.5,17.8c-0.1,0-0.1,0-0.2,0C368.9,113.5,375.4,105,379.6,105z M436.6,143c-9.6,0,6.6-36.3,15.8-36.3
			c3.5,0,4.7,2.3,5.2,4.2C450.1,128.5,444,143,436.6,143z"/>
	</g>
</g>
</svg>
